<?xml version="1.0" encoding="UTF-8"?>
<svg version="1.1" viewBox="0 0 465 466.25" xml:space="preserve" xmlns="http://www.w3.org/2000/svg"><defs><clipPath id="f"><path d="m0 0h371.84v373h-371.84v-373z"/></clipPath><clipPath id="e"><path d="m0 0h372v373h-372v-373z"/></clipPath><clipPath id="d"><path d="m0 0h371.84v373h-371.84v-373z"/></clipPath><clipPath id="c"><path d="m43.753 38h284.34v244h-284.34v-244z"/></clipPath><clipPath id="b"><path d="m43 38h286v244h-286v-244z"/></clipPath><clipPath id="a"><path d="m43.753 38h284.34v244h-284.34v-244z"/></clipPath></defs><g transform="matrix(1.25,0,0,-1.25,0,466.25)"><ellipse transform="scale(1,-1)" cx="186.07" cy="-185.64" rx="183.92" ry="185.64" fill="#fff" fill-rule="evenodd" stroke="#000" stroke-width=".8px"/><g clip-path="url(#f)"><g clip-path="url(#e)"><g clip-path="url(#d)"><g transform="scale(1.1584)"><path d="m159.91 42.386c65.165 0 118.1 53.21 118.1 118.72 0 65.506-52.933 118.72-118.1 118.72s-118.1-53.21-118.1-118.72c0-65.506 52.933-118.72 118.1-118.72zm0.452-40.79c87.463 0 158.51 71.266 158.51 159s-71.045 159-158.51 159-158.51-71.266-158.51-159c0-87.735 71.046-159 158.51-159z" fill="none" stroke="#363639" stroke-width="3"/></g><path d="m30.116 253.33 5.0552-6.063 2.9249 7.3025c0.06487 0.1158 0.12974 0.2305 0.19461 0.3486 0.06371 0.1159 0.12279 0.1993 0.17376 0.2514 0.1031 0.1031 0.23862 0.1413 0.40659 0.1159 0 0 0.42512-0.1228 0.77496-0.2908l1.9565-0.9869c0.19345-0.1171 0.34867-0.2132 0.46452-0.2908 0.11583-0.0765 0.19344-0.1355 0.23283-0.1738 0.1031-0.1031 0.14132-0.2444 0.11584-0.4263 0 0-0.11468-0.3869-0.27107-0.6197l-4.2038-6.6445 7.8654-0.5803c0.16681 0.0127 0.32204-7e-3 0.46451-0.0579 0.14133-0.0522 0.25601-0.1228 0.34868-0.2144 0.0637-0.0637 0.1031-0.1853 0.11584-0.3672 0 0 0.0069-0.3996-0.0197-0.6591l-0.36721-2.1882c-0.03938-0.271-0.08108-0.4737-0.12626-0.6104-0.04518-0.1356-0.10078-0.234-0.16449-0.3001-0.07761-0.0776-0.2004-0.1216-0.36836-0.1355 0 0-0.35447 7e-3 -0.56183 0.0579l-7.6708 1.9368 1.9565-7.6499c0.05212-0.2329 0.06486-0.4321 0.03938-0.6012-0.02664-0.168-0.08456-0.2954-0.17492-0.3881-0.05097-0.0498-0.15406-0.1031-0.30929-0.1541 0 0-0.34867-0.0903-0.58151-0.117l-2.15-0.3289c-0.2838-0.051-0.51895-0.0742-0.70661-0.0672s-0.32551 0.0544-0.41702 0.1448c-0.06371 0.0637-0.11816 0.1703-0.1645 0.3197 0 0-0.06139 0.3058-0.04864 0.4749l-0.58036 7.8631-6.6051-4.1632c-0.24557-0.168-0.46451-0.2653-0.65912-0.2908-0.19345-0.0266-0.34751 0.0186-0.46451 0.1356-0.02549 0.0255-0.0834 0.1286-0.17376 0.3093 0 0-0.16217 0.3093-0.21314 0.3881l-0.9881 1.9553c-0.18071 0.3359-0.28033 0.5908-0.30003 0.7657-0.01969 0.1737 0.02202 0.3127 0.12511 0.4158 0.1031 0.1031 0.19924 0.1877 0.29076 0.2526 0 0 0.1807 0.1158 0.27106 0.154l7.3407 2.8867-6.0815 5.0355-0.23283 0.2329c-0.21894 0.2189-0.30813 0.4262-0.27107 0.6197 0 0 0.23284 0.4657 0.58151 0.8132l1.5105 1.5117c0.36141 0.3614 0.63595 0.5583 0.82361 0.5908 0 0 0.38922-0.0614 0.61047-0.2815l0.23168-0.2317" fill="#363639"/><path d="m332.35 253.33 5.0564-6.063 2.9238 7.3025c0.0648 0.1158 0.1297 0.2305 0.1934 0.3486 0.066 0.1159 0.1239 0.1993 0.1749 0.2514 0.1031 0.1031 0.2386 0.1413 0.4066 0.1159 0 0 0.4263-0.1228 0.775-0.2908l1.9565-0.9869c0.1934-0.1171 0.3487-0.2132 0.4645-0.2908 0.1159-0.0765 0.1946-0.1355 0.2328-0.1738 0.1031-0.1031 0.1414-0.2444 0.1159-0.4263 0 0-0.1159-0.3869-0.2711-0.6197l-4.2026-6.6445 7.8631-0.5803c0.1679 0.0127 0.3232-7e-3 0.4657-0.0579 0.1413-0.0522 0.2571-0.1228 0.3475-0.2144 0.0649-0.0637 0.1042-0.1853 0.117-0.3672 0 0 7e-3 -0.3996-0.0197-0.6591l-0.3684-2.1882c-0.0382-0.271-0.0799-0.4737-0.1251-0.6104-0.0451-0.1356-0.1007-0.234-0.1645-0.3001-0.0776-0.0776-0.2004-0.1216-0.3683-0.1355 0 0-0.3545 7e-3 -0.5618 0.0579l-7.6697 1.9368 1.9565-7.6499c0.051-0.2329 0.0637-0.4321 0.0382-0.6012-0.0266-0.168-0.0846-0.2954-0.1749-0.3881-0.051-0.0498-0.1541-0.1031-0.3093-0.1541 0 0-0.3487-0.0903-0.5815-0.117l-2.15-0.3289c-0.2838-0.051-0.5189-0.0742-0.7066-0.0672-0.1865 7e-3 -0.3255 0.0544-0.417 0.1448-0.0637 0.0637-0.1193 0.1703-0.1645 0.3197 0 0-0.0614 0.3058-0.0486 0.4749l-0.5804 7.8631-6.6051-4.1632c-0.2456-0.168-0.4645-0.2653-0.6591-0.2908-0.1923-0.0266-0.3475 0.0186-0.4645 0.1356-0.0255 0.0255-0.0834 0.1286-0.175 0.3093 0 0-0.1609 0.3093-0.2119 0.3881l-0.9881 1.9553c-0.1808 0.3359-0.2803 0.5908-0.3001 0.7657-0.0197 0.1737 0.022 0.3127 0.1252 0.4158 0.1031 0.1031 0.1992 0.1877 0.2907 0.2526 0 0 0.1807 0.1158 0.271 0.154l7.3419 2.8867-6.0827 5.0355-0.2317 0.2329c-0.2201 0.2189-0.3104 0.4262-0.271 0.6197 0 0 0.2317 0.4657 0.5803 0.8132l1.5106 1.5117c0.3614 0.3614 0.6359 0.5583 0.8236 0.5908 0 0 0.3904-0.0614 0.6105-0.2815l0.2316-0.2317" fill="#363639"/><path d="m46.399 297.47-1.1549 1.2001c1.3472 1.2012 2.6145 2.3723 3.803 3.5157 1.2001 1.1549 2.3272 2.2866 3.3802 3.3975 0 0 6.5993-2.6851 9.3204-3.7033l21.106-7.8516-6.5507 19.512c-1.7793 5.3158-3.1242 9.0273-4.0323 11.139 1.3588 1.2117 2.4905 2.2531 3.3941 3.1218 0 0 2.1476 2.1141 3.9559 3.9513l1.1538-1.2001c-1.448-1.441-2.2786-2.3666-2.4917-2.7778-0.2143-0.4101-0.29192-0.7668-0.23516-1.075 0.07877-0.4031 0.56877-1.0982 1.4712-2.0862 0 0 1.9044-2.0643 5.0297-5.412l8.3531-8.6798c1.6345-1.6993 3.2527-3.3303 4.8548-4.8953 1.1792-1.1514 1.9473-1.7712 2.3075-1.8592 0.358-0.0881 0.746-0.0336 1.1642 0.1645 0 0 1.375 0.9915 2.8716 2.3839l1.1549-1.1989c-2.6075-2.2936-4.4261-3.9339-5.4525-4.9231 0 0-2.6064-2.6157-5.332-5.456l-1.1549 1.2001c1.4492 1.441 2.282 2.37 2.5021 2.7859 0.2201 0.4158 0.29539 0.7703 0.22588 1.0657-0.07876 0.4054-0.56991 1.1005-1.4711 2.0874 0 0-1.9171 2.0781-5.0309 5.412l-13.24 13.759 6.6213-19.696c1.0286-3.0767 1.8789-5.5325 2.5484-7.3674 0 0 1.3067-3.4126 2.4372-6.2483l-0.72399-0.6962s-1.1317 0.5572-1.5453 0.7147l-3.8783 1.5036-26.785 10.074 12.645-13.14c1.6356-1.6993 3.2539-3.3315 4.8548-4.8965 1.1804-1.1514 1.9484-1.7712 2.3075-1.8592s0.746-0.0336 1.1653 0.1645c0 0 1.3738 0.9927 2.8716 2.384l1.1549-1.199-4.6185-4.1551-4.4772-4.5988-1.1549 1.2001c1.4364 1.4295 2.2647 2.3527 2.4836 2.7697 0.21893 0.4147 0.30118 0.7761 0.24441 1.0831-0.09151 0.3927-0.5815 1.0877-1.4712 2.0862 0 0-1.9241 2.0724-5.0494 5.3946l-8.352 8.6798c-1.6356 1.6994-3.2539 3.3431-4.8536 4.9324-1.1792 1.1503-1.9461 1.7677-2.2994 1.85-0.35215 0.0811-0.73673 0.0232-1.1549-0.1738 0 0-1.375-0.9915-2.8716-2.3851" fill="#363639"/><path d="m103.82 344.11-0.6394 1.5372c2.6365 0.9487 5.0656 1.8847 7.2851 2.8079 0 0 4.4609 1.9311 6.6271 2.984l0.6394-1.5371c-1.8569-0.8098-2.9631-1.3693-3.3187-1.6774-0.3557-0.307-0.5549-0.6105-0.5978-0.9105-0.0729-0.4054 0.124-1.2348 0.5896-2.4882 0 0 1.0322-2.6133 2.7443-6.8611l3.6999-8.886c1.4329-3.4416 2.5959-5.6205 3.4878-6.5368 0.8932-0.9151 1.9635-1.5348 3.2157-1.8592 0.9568-0.2409 2.1199-0.2676 3.4949-0.081 1.3727 0.1865 2.8206 0.5977 4.3428 1.2302 1.7758 0.739 3.2608 1.6159 4.4574 2.6307 1.1966 1.0147 2.0075 1.9808 2.4338 2.9005 0.4263 0.9198 0.6464 1.8431 0.6614 2.7698 0.0139 0.9255-0.19 2.1047-0.6081 3.5377 0 0-1.0658 3.1948-1.9392 5.2938l-3.0789 7.3963c-0.9071 2.1777-1.8245 4.2941-2.7547 6.3491-0.6649 1.5082-1.1468 2.3642-1.4456 2.5681-0.2989 0.2051-0.6835 0.2884-1.1526 0.2537 0 0-1.645-0.4275-3.5297-1.1735l-0.6405 1.5372c2.67 0.9615 4.6057 1.6924 5.8127 2.194 0 0 3.0408 1.3403 5.8406 2.6574l0.6406-1.5372c-1.8731-0.8167-2.9828-1.3773-3.3315-1.6832-0.3475-0.3046-0.5502-0.6081-0.6093-0.9151-0.0568-0.3996 0.1471-1.2244 0.6128-2.4789 0 0 1.0332-2.6122 2.7453-6.86l3.3489-8.0461c1.6472-3.9548 2.523-6.8299 2.6296-8.6265 0.1065-1.7967-0.3209-3.5991-1.2789-5.4085-0.7205-1.3519-1.8372-2.6331-3.3512-3.847-1.5129-1.2117-3.3165-2.2531-5.4097-3.1253-2.4418-1.0159-4.6798-1.6055-6.7151-1.7666-2.0341-0.1622-3.7173 0.0394-5.0494 0.6024-1.3322 0.563-2.3793 1.2684-3.1416 2.1163 0 0-2.1279 3.2366-3.416 6.3271l-4.4193 10.616c-0.907 2.1777-1.8163 4.2964-2.7314 6.3584-0.68 1.5012-1.17 2.3538-1.4689 2.5588-0.2988 0.2039-0.6788 0.2896-1.1398 0.2584 0 0-1.6415-0.4263-3.5424-1.1793" fill="#363639"/><path d="m174.86 328.66v1.353c1.0646 0.5027 1.7423 0.9012 2.0353 1.1965 0.1715 0.1564 0.2919 0.3557 0.3603 0.599 0.1552 0.4853 0.2583 1.5256 0.3104 3.1218 0 0 0.102 3.7879 0.102 4.2408v13.996c0 2.3585-0.0255 4.6649-0.0765 6.9203-0.0521 1.6472-0.1761 2.6225-0.3741 2.926-0.197 0.3035-0.5143 0.5283-0.9522 0.6765 0 0-1.6797 0.2386-3.7231 0.2734v1.6646c4.1899-0.1379 6.7835-0.2062 7.7797-0.2074 0 0 3.5632 0.0684 7.3928 0.2074v-1.6646c-2.0422-0.0336-3.2828-0.1251-3.7218-0.2734-0.4379-0.1471-0.7426-0.3498-0.9152-0.6116-0.205-0.3464-0.3348-1.1862-0.3857-2.523 0 0-0.051-2.8091-0.1031-7.3882v-17.482c0-1.821 0.0336-3.3037 0.1031-4.4493 1.9577-0.1205 3.8979-0.1808 5.822-0.1819 4.8432 0 8.235 0.3127 10.175 0.9371 0 0 0.4205 1.119 0.5931 1.7955l1.0298 4.3185h1.726c-0.3777-2.5844-0.746-5.6193-1.1074-9.1061-0.7032-0.1379-1.2615-0.2247-1.6751-0.2595 0 0-2.2658-0.0787-4.1215-0.0787l-15.25 0.2085s-3.3234-0.0695-5.024-0.2085" fill="#363639"/><path d="m227.31 323.07 0.5456 1.2371c1.177 0.0302 1.9577 0.1217 2.3458 0.2746 0.2189 0.073 0.4089 0.2073 0.571 0.4008 0.3371 0.3823 0.8515 1.2927 1.5419 2.7326 0 0 1.6229 3.4242 1.8059 3.8377l5.6483 12.806c0.951 2.1581 1.858 4.2791 2.721 6.363 0.6186 1.5279 0.8978 2.4708 0.8398 2.8288-0.0579 0.3568-0.2571 0.6915-0.6 1.0032 0 0-1.4387 0.8954-3.2945 1.7526l0.6707 1.5232c3.7787-1.8174 6.1233-2.9272 7.0349-3.3303 0 0 3.2875-1.375 6.8484-2.7929l-0.6719-1.5233c-1.8823 0.7935-3.0546 1.2106-3.5157 1.2522-0.461 0.0429-0.8212-0.0208-1.0842-0.1899-0.3278-0.234-0.7842-0.951-1.3715-2.1534 0 0-1.1793-2.5497-3.0755-6.7187l-7.0546-15.996c-0.7356-1.6658-1.302-3.0362-1.7017-4.1111 1.7434-0.9012 3.4937-1.7388 5.2545-2.5161 4.4308-1.9541 7.6604-3.0372 9.6875-3.2492 0 0 0.8364 0.8537 1.2673 1.404l2.6851 3.5354 1.5789-0.6974c-1.3877-2.2114-2.9504-4.8397-4.688-7.884-0.6996 0.1576-1.2441 0.3035-1.6368 0.4379 0 0-2.1047 0.8433-3.8029 1.5928l-13.869 6.3433s-3.0685 1.2777-4.6799 1.8372" fill="#363639"/><path d="m270.73 299.65 1.0877 1.2256c1.36-1.185 2.3377-1.8674 2.9354-2.0492 0.2479-0.0811 0.4854-0.073 0.7135 0.0278 0.358 0.1448 1.0519 0.746 2.0828 1.8024 0 0 2.9481 3.0883 4.0532 4.3336l8.8257 9.9412c1.5662 1.7642 3.0779 3.5064 4.5363 5.2267 1.0553 1.2661 1.6102 2.077 1.6646 2.4361 0.0533 0.3579-0.0336 0.7366-0.2641 1.1386 0 0-1.097 1.2928-2.6018 2.6759l1.1052 1.2452 5.3864-4.9914 5.9043-5.068c2.8207-2.4349 4.8618-4.2107 6.1198-5.3285 1.2719-1.1283 2.4094-2.2658 3.4126-3.4115-0.8619-0.5572-1.5719-1.075-2.1338-1.5499 0 0-1.4422-1.3414-3.9385-3.7393l-1.214 1.0773c1.1874 1.3125 2.1743 2.5914 2.962 3.8413-0.4413 0.9243-1.0402 1.8151-1.7955 2.6723-1.2777 1.4584-2.6353 2.8253-4.074 4.1031-0.3081 0.2745-1.0171 0.8583-2.1303 1.7526-1.1109 0.8943-1.9148 1.5267-2.4129 1.8985 0 0-2.5647-2.7082-3.708-3.9442l-5.9147-6.5067c1.4329-1.4121 2.779-2.6759 4.0381-3.7937 1.5279-1.3565 2.8937-2.443 4.1007-3.2574 0.4564-0.3127 0.8109-0.4436 1.0657-0.3904 0 0 0.8282 0.4935 1.7249 1.3218l1.324 1.2591 1.1561-1.0263-0.3279-0.3695-3.6894-3.9617-3.9281-4.6173-1.3483 1.1966 1.1178 1.3738c0.8259 0.9823 1.2684 1.6554 1.3286 2.0214 0.0591 0.3637-0.0764 0.7738-0.4065 1.2302-0.5943 0.8051-1.9438 2.1431-4.0509 4.0127-0.8596 0.7645-2.1083 1.8152-3.7462 3.1519-1.2152-1.2394-2.9563-3.1369-5.2255-5.6923-2.1303-2.3978-3.7161-4.2489-4.7575-5.5521 1.7237-1.7839 3.7335-3.6964 6.0329-5.7375 1.631-1.448 2.838-2.428 3.6246-2.94 0.7854-0.5131 1.5823-0.9082 2.3932-1.185 0.5108 0.2653 1.148 0.673 1.9125 1.2233 0 0 2.2646 1.6066 2.8739 2.1105l1.2708-1.1282c-2.6597-2.3238-4.754-4.3475-6.2866-6.0723 0 0-2.6701 1.9195-4.2501 3.3211l-11.364 10.366s-1.8939 1.5893-5.1849 4.3254" fill="#363639"/><path d="m42.785 185.94 1.6646-0.0429-0.41122-7.7716s-0.0093-2.962 0.01621-7.2932l-1.6634 0.0429c0.01853 2.0271-0.04054 3.2655-0.17723 3.7161-0.13438 0.4494-0.33014 0.7645-0.58614 0.9429-0.34057 0.2143-1.1781 0.366-2.5125 0.4518 0 0-2.8241 0.1251-7.3824 0.2965l-12.041 0.3151c-2.3585 0.0626-4.6637 0.0973-6.9202 0.1043-1.6484-8e-3 -2.6261-0.1066-2.9354-0.2966-0.30813-0.1888-0.54212-0.5004-0.70082-0.9348 0 0-0.28149-1.6716-0.37068-3.7138l-1.6646 0.0429c0.19113 3.3268 0.31045 5.8753 0.35678 7.6442 0 0 0.057919 4.2246 0.038226 7.4206l1.6646-0.0441c-0.019693-2.026 0.039385-3.2643 0.17607-3.7149 0.13437-0.4495 0.33014-0.7553 0.5873-0.9174 0.3394-0.2317 1.1769-0.3904 2.5114-0.4773 0 0 2.8068-0.1077 7.3836-0.2966l5.3564-0.1413s-1.324 2.062-2.5392 3.3663l-3.0882 3.3269-5.6494 5.895s-3.5806 3.6756-4.2096 4.2072l-1.8986 0.0499c0.12279 2.041 0.19924 3.6443 0.23052 4.8131 0 0 0.033593 2.6005 0.00116 4.045l1.6912-0.044c-0.042861-1.6298-0.00232-2.7303 0.12163-3.3014 0.12279-0.5699 0.36837-1.134 0.73673-1.6947 0 0 2.1975-2.8392 4.2362-5.1618l9.2231-10.523 15.02 15.068c2.4233 2.4269 3.7427 3.81 3.9605 4.1482 0 0 0.34751 0.9951 0.39038 1.9739l1.6125-0.0417c-0.11353-1.6808-0.17608-2.8044-0.19229-3.3721-0.01622-0.6336-0.01738-1.9738-0.0012-4.0195 0 0-1.8418-1.7805-4.2999-4.1899l-2.6434-2.5856-11.386-11.402 0.32319-0.6012 5.0448-0.1309c2.3585-0.0626 4.6556-0.0892 6.8947-0.0776 1.6472-0.0105 2.6295 0.0799 2.9481 0.2699 0.31624 0.1899 0.55487 0.505 0.71473 0.9475 0 0 0.28148 1.6762 0.36952 3.7011" fill="#363639"/><path d="m355.45 139.47 1.492-0.5398-0.9638-6.2541c-0.461-0.563-0.8375-0.929-1.1294-1.0982-0.2919-0.1679-1.0993-0.4506-2.4245-0.8479-1.9634-0.585-4.5536-1.1445-7.7739-1.6796-3.2168-0.5329-6.8541-1.0252-10.908-1.4747 0 0 4.2906-5.4699 6.7569-8.3913l7.0117-8.374-1.3414-3.7057-0.6603 0.2387c-0.6731 1.2487-2.2438 3.6605-4.7112 7.2399-1.4283 2.0689-3.5783 4.8652-6.4522 8.3902-1.77 2.1928-2.8797 3.4716-3.3303 3.8354 0 0-0.9013 0.6267-1.3577 0.7935l-1.8847 0.6811c-2.2171 0.8028-4.3856 1.5603-6.5078 2.2739-1.5672 0.512-2.5299 0.7286-2.8924 0.6499-0.3603-0.0788-0.6835-0.3001-0.9719-0.6615 0 0-0.7958-1.4978-1.5233-3.4079l-1.5662 0.5676c1.0831 2.5843 1.9716 4.8374 2.6678 6.7591 0 0 1.4816 4.2953 2.4442 7.3627l1.565-0.5676c-0.6568-1.9159-0.9928-3.1102-1.0055-3.5805-0.0139-0.4692 0.0753-0.8213 0.2687-1.0565 0.2491-0.3266 0.9928-0.7425 2.2323-1.2464 0 0 2.6399-1.009 6.9109-2.611l2.8623-1.0368c0.8573 0.0742 1.6368 0.1657 2.3411 0.2757 0 0 2.1894 0.395 5.1016 0.9488l3.2203 0.6417c2.5438 0.505 4.3659 0.9035 5.4699 1.1989 2.1221 0.5642 3.6894 1.1017 4.7054 1.6113 0.5594 0.2722 1.0042 0.6082 1.3344 1.0102 0 0 0.6695 1.0865 1.0205 2.0549" fill="#363639"/><path d="m300.5 102.13 0.9383-0.7843c-0.27-1.1607-0.3951-1.8291-0.3719-2.0063 0.0232-0.17491 0.1379-0.39499 0.3475-0.65911 0.3325-0.41353 1.1237-1.1908 2.3712-2.3353 0 0 2.2114-1.9994 2.8891-2.567l12.036-10.062c1.3031-1.09 2.8658-2.3295 4.6891-3.7196 1.148-0.86994 1.9102-1.3507 2.2867-1.4422 0.2502-0.05213 0.4923-0.01969 0.7274 0.09846 0 0 1.4028 1.0982 2.5624 2.4569l1.2568-1.0507s-0.8595-0.94871-1.4109-1.6067l-3.5365-4.0277-5.9008-7.423c-1.6079-1.9229-3.0466-3.2388-4.3162-3.9466-1.2695-0.70662-2.5982-0.97768-3.9871-0.81435-1.3878 0.16565-2.6342 0.7101-3.7393 1.6322-0.878 0.73441-1.5569 1.5986-2.0364 2.5936-0.4808 0.99389-0.7576 2.0202-0.8329 3.079-0.0753 1.0599 0.0104 2.0955 0.2583 3.1091 0.2479 1.0124 0.7101 2.2206 1.3866 3.6257-1.4341-1.4202-2.6909-2.4847-3.7717-3.1937-1.0785-0.71009-2.1673-1.148-3.2678-1.3136-1.0993-0.16565-2.1929-0.07414-3.2806 0.27453-1.0865 0.34868-2.1279 0.94061-3.1276 1.7758-1.9681 1.6461-3.2088 3.6837-3.7196 6.1151-0.512 2.4303-0.3498 4.8745 0.4854 7.3337 0 0 1.7295 3.6906 3.3164 5.5892l4.951 5.5973s1.4491 1.8419 2.7975 3.671zm16.627-23.47-4.7505 3.9709c-0.6684-0.71704-1.2383-1.3588-1.7121-1.9264-1.3657-1.6333-2.2936-2.9991-2.7848-4.1018-0.4911-1.0993-0.7344-2.0654-0.7298-2.8994 6e-3 -0.83172 0.2259-1.704 0.6615-2.6168 0.4344-0.91165 1.1248-1.7619 2.0689-2.5531 1.6634-1.3901 3.3013-1.8708 4.9162-1.441 1.6147 0.43092 3.2643 1.653 4.9497 3.6686 0.936 1.1202 1.7237 2.2646 2.3608 3.4323 0 0-2.6643 2.5299-4.9799 4.4667zm-19.33 16.06c-1.0657-0.7877-2.055-1.7283-2.9701-2.823-1.4538-1.7387-2.3585-3.3674-2.7118-4.8849-0.3522-1.5175-0.2236-3.0188 0.388-4.505 0.6116-1.485 1.6229-2.8172 3.0338-3.9964 1.3971-1.1677 2.7964-1.8789 4.2004-2.1349 1.4016-0.25484 2.7812-0.03823 4.14 0.65333 1.3553 0.68924 3.0651 2.2658 5.1247 4.7297 0 0 1.053 1.3125 1.7376 2.2415l-7.5643 6.3236c-0.732 0.61164-2.5241 2.077-5.3783 4.3961" fill="#363639"/><path d="m267.58 69.099 0.8688-1.39c-1.5199-0.96957-2.4523-1.7144-2.7941-2.2368-0.1482-0.21545-0.2062-0.44481-0.1749-0.69155 0.0382-0.38458 0.4182-1.2209 1.141-2.5079 0 0 2.1303-3.6999 3.013-5.112l7.0453-11.273c1.2499-1.9994 2.494-3.942 3.7335-5.8267 0.9162-1.3704 1.5383-2.1314 1.8673-2.2843 0.3278-0.15291 0.717-0.17492 1.1665-0.06835 0 0 1.5499 0.68692 3.3014 1.741l0.8827-1.4121-6.3086-3.759-6.5287-4.2339c-3.1323-2.0179-5.412-3.474-6.8402-4.366-1.4411-0.90122-2.8532-1.6704-4.2363-2.3098-0.2907 0.98347-0.5861 1.8117-0.885 2.4836 0 0-0.878 1.7619-2.4743 4.8351l1.3762 0.85952c0.9244-1.5082 1.8731-2.8172 2.8485-3.9258 1.0124 0.16333 2.0353 0.48537 3.0708 0.96841 1.7596 0.81319 3.4543 1.7306 5.0865 2.7488 0.3499 0.21894 1.1109 0.73442 2.282 1.5499 1.1723 0.81319 2.0064 1.4051 2.5033 1.7781 0 0-1.8743 3.2249-2.7361 4.6718l-4.5733 7.511c-1.7584-0.97652-3.3524-1.9113-4.7784-2.8033-1.7341-1.0831-3.16-2.0874-4.2837-3.0141-0.4286-0.34983-0.6545-0.65333-0.6753-0.91281 0 0 0.2398-0.93365 0.7819-2.0272l0.8329-1.6264-1.3101-0.81899-0.2618 0.41934-2.7582 4.6567-3.3222 5.0726 1.5291 0.95451 1.0031-1.4584c0.7089-1.0703 1.2291-1.6843 1.5627-1.8453 0.3336-0.15986 0.7645-0.14596 1.2962 0.04286 0.9395 0.34172 2.6041 1.2592 4.9927 2.7523 0.9753 0.6093 2.3353 1.5105 4.0821 2.7037-0.8468 1.5152-2.1754 3.7219-3.986 6.6202-1.7005 2.721-3.028 4.7644-3.9837 6.1313-2.1974-1.1491-4.5999-2.538-7.2075-4.1667-1.8499-1.1561-3.1311-2.0376-3.8435-2.6481-0.7135-0.60815-1.3171-1.2615-1.8128-1.9612 0.11-0.56413 0.322-1.2916 0.6347-2.1801 0 0 0.9013-2.626 1.2129-3.3524l-1.441-0.90122c-1.4793 3.2064-2.8288 5.7884-4.0509 7.745 0 0 2.5948 2.0202 4.3868 3.1404l13.151 7.9743s2.0607 1.3692 5.6135 3.7532" fill="#363639"/><path d="m233.72 14.489 0.3486-1.6275s-1.6634-0.31276-3.0141-0.56645l-4.8629-0.90933c-0.958-0.20504-2.4361-0.55719-4.4366-1.0576-2.5983-0.66375-4.1065-1.0391-4.527-1.1306-3.2064-0.68692-5.6066-0.90006-7.2005-0.63827-1.5916 0.2618-2.9296 0.95335-4.015 2.0793-1.0842 1.1248-1.7897 2.45-2.1163 3.9767-0.3059 1.4236-0.2317 2.9203 0.2224 4.4911 0.4541 1.5684 1.2985 2.9724 2.5345 4.2142 1.236 1.2406 2.9493 2.3608 5.1409 3.364 0 0-1.8198 1.6136-3.8226 3.3304l-8.1585 7.0847c-2.318 1.9681-3.6571 3.0558-4.0185 3.2632-0.1761 0.08572-0.3452 0.13669-0.5074 0.15638 0 0-0.834-0.04518-1.69-0.22936l-0.3487 1.6287c1.2974 0.17144 2.4245 0.36026 3.3825 0.5653 0.9904 0.21198 2.1963 0.52359 3.6199 0.93481 1.3634-1.0379 3.7254-3.1288 7.0882-6.275 1.8673-1.7457 3.4937-3.189 4.8803-4.3289 0 0 4.3706-3.5945 6.3618-5.1015l-0.088-0.81667c-0.8839-0.13668-1.5523-0.25368-2.0064-0.34983-3.0546-0.65564-5.2162-1.8812-6.4823-3.6779s-1.6426-3.8899-1.1306-6.2819c0.4472-2.0863 1.4828-3.598 3.1068-4.5362 1.6241-0.93713 3.8123-1.1109 6.5658-0.52127 1.7294 0.37068 3.3685 0.99621 4.9196 1.8789-0.1297 0.93018-0.2629 1.7966-0.3996 2.6017 0 0-0.5051 2.7199-1.4109 7.4403l-2.4211 11.294c-0.4946 2.3064-1.0089 4.5455-1.5452 6.7186-0.3788 1.6044-0.6974 2.5369-0.9557 2.8021-0.2583 0.26411-0.6221 0.42049-1.09 0.47146 0 0-1.6948-0.11931-3.6849-0.51085l-0.3486 1.6287c2.414 0.37531 4.6196 0.77727 6.6178 1.2047 0 0 4.3092 0.99506 8.0925 1.9484l0.3487-1.6287c-1.9739-0.45757-3.1636-0.80508-3.569-1.0437-0.4055-0.23747-0.6661-0.50158-0.7796-0.79233-0.1286-0.38227-0.0776-1.2314 0.1517-2.5484 0 0 0.5422-2.7743 1.448-7.2457l2.5241-11.777c0.4947-2.3063 1.0032-4.5559 1.5256-6.7499 0.3962-1.6009 0.7217-2.5276 0.98-2.7836 0.256-0.25484 0.6128-0.40891 1.0727-0.46219 0 0 1.6912 0.11931 3.6976 0.51316" fill="#363639"/><path d="m173.28 42.975-0.3822-1.5939c-1.7573 0.40428-2.9412 0.54676-3.5539 0.42513-0.2572-0.04518-0.4622-0.16565-0.6163-0.36142-0.2479-0.29654-0.5769-1.1538-0.9881-2.5716 0 0-1.1457-4.1123-1.5337-5.7317l-4.9486-20.616c-0.1333-0.55718-0.1877-0.92671-0.1611-1.112 0.0603-0.33593 0.2746-0.77033 0.6418-1.3043 0.2352-0.34173 0.5398-0.59773 0.9151-0.76917 0 0 1.2349-0.42397 2.5844-0.76685l-0.3834-1.5939c-2.7721 0.73673-4.5177 1.1908-5.2359 1.3646-1.2187 0.29191-2.4373 0.54907-3.6559 0.77033 0 0-1.682 3.8458-2.1361 4.9l-3.6373 7.6952-5.3552 11.023c-1.7167 3.5157-3.108 6.2924-4.1725 8.3323 0 0-1.2418 2.4013-1.7237 3.196l-4.4378-18.492c-0.3961-1.6519-0.8039-3.6049-1.2209-5.8603-0.2699-1.4156-0.3695-2.3087-0.3-2.684 0.0648-0.24674 0.2015-0.4483 0.4112-0.607 0 0 1.6078-0.768 3.3408-1.2024l-0.3823-1.5939c-1.9542 0.54097-3.942 1.0518-5.9633 1.5383 0 0-3.6397 0.83751-5.2093 1.1433l0.3823 1.5939c1.741-0.4008 2.9145-0.54907 3.5226-0.44482 0.2583 0.04518 0.4645 0.17376 0.6232 0.38574 0.2433 0.28033 0.5723 1.1375 0.9881 2.5728 0-0.0012 1.1434 4.1042 1.5279 5.705l2.9203 12.169s1.6519 7.0662 3.1833 13.816l2.3978-1.3785 0.5711-0.2699c0.0927-0.05792 0.1714-0.12974 0.2386-0.21778 0.0973-0.11236 0.3336-0.52475 0.7101-1.2406 0 0 1.7353-3.3593 2.194-4.3254l2.2415-4.8988 12.618-25.688 4.6555 19.402c0.3973 1.6518 0.8063 3.6142 1.2268 5.8858 0.2699 1.4156 0.3683 2.3017 0.2942 2.6585-0.0603 0.26412-0.1946 0.47378-0.4043 0.63248 0 0-1.6078 0.76917-3.3408 1.2036l0.3823 1.5939c1.441-0.47147 3.0465-0.9186 4.8177-1.3449 0 0 4.0543-0.9105 6.3537-1.3368" fill="#363639"/><path d="m113.09 62.369-1.0159-1.2858c-1.4248 1.1039-2.4407 1.7306-3.0466 1.8766-0.2537 0.06719-0.49 0.04402-0.7112-0.06835-0.3499-0.16564-1.0078-0.80624-1.9762-1.9206 0 0-2.7651-3.2516-3.7972-4.5594l-8.2396-10.432c-1.4619-1.8499-2.8705-3.6767-4.2281-5.478-0.98-1.3252-1.4874-2.1673-1.521-2.5288-0.03359-0.36025 0.07645-0.73325 0.32897-1.1213 0 0 1.17-1.2279 2.7512-2.5218l-1.031-1.3067-5.6657 4.6741-6.1858 4.7193c-2.9562 2.2681-5.0957 3.9246-6.4163 4.9683-1.3345 1.0541-2.5346 2.1233-3.6037 3.2099 0.82824 0.60583 1.5094 1.163 2.0422 1.6704 0 0 1.3611 1.4202 3.7173 3.9582l1.2731-1.0055c-1.1097-1.3773-2.0214-2.7129-2.7361-4.0045 0.49463-0.89774 1.1433-1.7526 1.9472-2.5647 1.3588-1.3831 2.7929-2.6701 4.3022-3.8632 0.3232-0.25485 1.0657-0.79697 2.2276-1.6264 1.1607-0.8294 1.9994-1.4144 2.5183-1.7573 0 0 2.4048 2.852 3.4752 4.1505l5.5313 6.8368c-1.5129 1.3275-2.9296 2.5125-4.2501 3.5551-1.6032 1.2673-3.0303 2.2716-4.2814 3.0164-0.47378 0.28613-0.83519 0.39617-1.0866 0.32899 0 0-0.79813-0.54097-1.6461-1.419l-1.2499-1.3333-1.2128 0.95799 0.30697 0.38806 3.4543 4.1667 3.6559 4.8362 1.4144-1.1178-1.0356-1.4352c-0.768-1.0286-1.1711-1.726-1.2105-2.0944-0.03823-0.36721 0.12047-0.76917 0.47725-1.2047 0.63827-0.77032 2.0631-2.0283 4.2733-3.774 0.90355-0.7124 2.2102-1.6901 3.9223-2.9319 1.1422 1.309 2.7709 3.3026 4.8895 5.9842 1.989 2.5172 3.4648 4.4563 4.4296 5.8162-1.8233 1.6831-3.9396 3.4763-6.3526 5.3819-1.7109 1.3518-2.9736 2.2612-3.7879 2.7268-0.81318 0.46683-1.631 0.81434-2.4569 1.046-0.49463-0.29425-1.1074-0.7379-1.8395-1.3322 0 0-2.1673-1.7341-2.7465-2.2728l-1.3345 1.0541c2.5218 2.472 4.4968 4.6138 5.9274 6.4244 0-0.0011 2.7755-1.763 4.4343-3.072l11.941-9.6957s1.9831-1.4769 5.4247-4.0196" fill="#363639"/><path d="m50.582 78.223 2.3376 1.2337 0.89312-1.324c-3.4265-2.3306-5.7583-4.0068-6.9955-5.0285-0.98926 1.5905-2.5589 4.0729-4.71 7.4496-1.7584 2.7292-2.94 4.5432-3.5435 5.4398-0.65333 0.96842-2.209 3.1809-4.6671 6.641-1.777 2.5091-3.0871 4.3289-3.9327 5.4572 0 0 4.1818 2.4072 7.3696 4.4736l0.92208-1.3669-1.9554-1.5673c-1.1746-0.95682-1.8337-1.5152-1.9774-1.675s-0.22473-0.30119-0.24442-0.4286c-0.01853-0.12626 0.0035-0.28265 0.06603-0.46915 0.09035-0.2282 0.51316-0.97768 1.2673-2.2519 0 0 1.3715-2.2646 1.8511-2.9782l1.7584-2.6052s3.3848 1.9739 5.7294 3.5539l12.617 8.5106c1.9554 1.3194 3.8458 2.6249 5.6726 3.9189 1.3368 0.9637 2.0793 1.6147 2.2287 1.9541 0.14828 0.3371 0.16102 0.7287 0.03823 1.1746 0 0-0.74136 1.5256-1.8557 3.24l1.3808 0.9302c1.6044-2.6249 2.8392-4.5791 3.7022-5.8614 0 0 1.9299-2.7373 4.6671-6.546l-1.3796-0.93137c-1.1711 1.675-1.9426 2.655-2.3156 2.9435-0.37184 0.2884-0.70777 0.4228-1.0113 0.4066-0.41239-9e-3 -1.185-0.3661-2.3226-1.0692 0 0-2.3631-1.5534-6.1823-4.0462l-12.574-8.4817s-1.2557-0.86647-1.9554-1.3808l-3.5586-2.5867 2.1453-3.1821c1.2395-1.8372 2.2948-3.2469 3.1693-4.2327 0.27338-0.31277 0.51548-0.47032 0.72747-0.47263 0 0 1.2279 0.39385 2.6376 1.1584" fill="#363639"/><path d="m46.206 152.23 1.5824 0.5178s1.6866-5.8255 2.0446-6.9202l2.6701-7.5017-1.5824-0.5178c-0.66144 1.916-1.1329 3.0628-1.4121 3.4416s-0.56761 0.6093-0.86994 0.6915c-0.3927 0.0881-1.2314-0.0498-2.5183-0.417 0 0-2.7025-0.8294-7.0546-2.1975l-11.448-3.7427c-2.2426-0.7321-4.4262-1.4735-6.5541-2.2229-1.5488-0.5607-2.4384-0.9824-2.6654-1.265-0.22704-0.2815-0.34288-0.6522-0.34635-1.1155 0 0 0.29422-1.6693 0.89658-3.6234l-1.5824-0.5178c-0.9047 3.1554-1.6333 5.5811-2.1882 7.2804 0 0-1.375 4.0138-2.5264 7.1426l1.5824 0.5166c0.66723-1.931 1.1387-3.0824 1.4167-3.4531 0.2757-0.3707 0.56298-0.5966 0.86416-0.6788 0.39385-0.0881 1.2325 0.051 2.5195 0.4158 0 0 2.6851 0.8248 7.0546 2.1975l11.448 3.7427c2.2415 0.7333 4.4181 1.4712 6.5287 2.216 1.5499 0.5607 2.443 0.9835 2.6793 1.2685 0.23516 0.2838 0.35447 0.6568 0.3591 1.1201 0 0-0.29538 1.6693-0.89775 3.6223" fill="#363639"/><path d="m329.25 184.65-1.6647-2e-3 0.1947 7.7798s-0.0754 2.962-0.2213 7.2897l1.6646 4e-3c0.0382-2.0261 0.1309-3.2632 0.2803-3.7092 0.1471-0.446 0.351-0.7541 0.6128-0.9267 0.3464-0.205 1.1874-0.3325 2.5242-0.3811 0 0 2.8264-0.0464 7.3881-0.0904l12.045 0.022c2.3585 5e-3 4.6648 0.0348 6.9202 0.0904 1.6472 0.0544 2.6226 0.1795 2.9261 0.3776 0.3023 0.1981 0.5282 0.5167 0.6753 0.9557 0-1e-3 0.2352 1.6785 0.2653 3.7219l1.6658 3e-3c-0.0985-3.3314-0.146-5.8822-0.1426-7.6511 0 0 0.0591-4.2246 0.1692-7.4183l-1.6646-3e-3c-0.0382 2.026-0.1309 3.262-0.2803 3.7091-0.1483 0.446-0.3522 0.7449-0.6128 0.9001-0.3464 0.2224-1.1874 0.3579-2.5241 0.4077 0 0-2.8092 0.029-7.3882 0.0892l-5.3599-9e-3s1.382-2.0236 2.6342-3.2921l3.1786-3.2411 5.8128-5.7341s3.6825-3.5736 4.3254-4.0879l1.8986 4e-3c-0.0649-2.0434-0.0961-3.6489-0.095-4.8166 0 0 0.0394-2.6017 0.1112-4.0451l-1.6901-3e-3c-4e-3 1.6321-0.0741 2.7303-0.2143 3.2979-0.1401 0.5664-0.4008 1.1236-0.7842 1.6727 0 0-2.2762 2.7766-4.3787 5.0413l-9.515 10.261-14.592-15.482c-2.3539-2.4951-3.6339-3.9141-3.8424-4.2582 0 0-0.3186-1.0043-0.3348-1.9843l-1.6136-3e-3c0.0671 1.6832 0.0996 2.808 0.0984 3.3756-1e-3 0.6359-0.037 1.975-0.1112 4.0184 0 0 1.7909 1.8314 4.1806 4.3104l2.5705 2.6573 11.061 11.715-0.3394 0.5931-5.0459-9e-3c-2.3585-5e-3 -4.6567-0.0429-6.8947-0.1159-1.6472-0.037-2.6261-0.154-2.9389-0.3533-0.3116-0.1981-0.5409-0.5201-0.6881-0.9672 0 0-0.2339-1.6832-0.2663-3.7103" fill="#363639"/></g></g></g><g clip-path="url(#c)"><g clip-path="url(#b)"><g clip-path="url(#a)"><path d="m140.29 281.34c-0.4629-5.4883-7.8027-12.035-1.3225-16.531 0.9257-2.4466 3.9013-3.5046 4.6287-6.6125 1.8515-0.3967 4.0997-1.1902 4.6287-3.3062 1.1903-3.5046-5.4883-7.6044 0.6613-9.2575 2.2482 1.7193 3.9675 4.8271 5.9512 7.2738l0.6612-0.6613c0.4629 0.6613 1.5871 1.058 1.3225 1.9837l0.6613-0.6612c5.0255 4.5626 13.225 2.2482 19.837 3.3062 4.232-0.0661 9.0591-2.7111 12.564-0.6612 8.7946-0.8596 15.87 4.1658 23.805 3.3062 2.4467-2.1821 4.8272 1.5209 7.2738-0.6612 4.2981 5.0916 7.6043 10.58 9.9187 16.531-1.1903 0.9258-0.4629 2.645-0.6613 3.9675l1.3225 1.3225 1.3225-1.3225c0.5951-8.7284-5.6867-14.547-8.5962-21.821 8.1994-6.1496 20.102-3.4385 27.111-12.564h17.192l-0.6612 0.6612c7.1415-3.9013 15.804-5.4222 20.499-13.886 2.3144-8.1334-1.3225-15.407-1.9837-23.144 3.9675-3.3723 7.4059 3.9675 10.58-1.3225 5.7529 3.174 9.5881-2.1821 11.241-6.6124-0.3306-8.0672 12.828-9.3897 8.5962-17.854-9.1252 3.174-11.043 14.018-18.515 18.515 0.0661 0.6613 2.0499 1.1903 1.3225 2.645-2.5127 3.4385-7.935 1.8515-11.241 1.3225-0.3967-0.7935-1.2563-0.6613-1.9837-0.6613l-0.6613 0.6613 0.6613 0.6612c-2.3805 3.4385-8.7946 1.8515-12.564 1.3225-1.2564-0.4628-2.2483-1.6531-3.3062-2.645 2.3143-8.1994 0.6612-17.986 3.9674-25.789 1.3225 0.4629 2.2483 1.8515 3.9675 1.3225 1.1903-0.4628 0.4629-1.7853 0.6613-2.645-2.0499-0.3967-3.8352-1.5208-5.29-3.3062 0.9919-5.819 2.9095-11.307-0.6612-16.531-0.4629-3.1078 1.1241-7.0092-1.3226-9.2574 5.4223-5.5545 13.423-4.8271 18.515-11.241 10.58-5.819 21.358-13.886 29.095-23.805-9.1252 7.5382-19.176 14.415-27.772 21.821-7.3398 2.5789-12.96 9.4559-21.16 9.9187-4.8933-5.356-7.4721-11.638-11.902-17.192 8.3979-3.4384 18.052-3.8352 26.45-7.2737v-0.6612c-9.0591 2.1821-18.515 3.4385-27.111 6.6124-6.5464-3.4384-11.043-11.77-17.854-14.547l-1.9837-1.9837c23.144-2.645 45.89-8.2656 69.431-7.935l1.9837-1.9837c-25.26 0.6612-48.536 6.2818-73.398 7.9349-2.7111-1.7192-7.2737-3.3062-7.2737-7.2737 11.902-9.1913 26.516-11.77 39.675-17.854 7.0092-2.7111 15.143-2.5789 21.821-5.9512l-0.6613-0.66125c-23.342 3.0417-43.378 13.952-64.141 23.144-1.9176-3.5707-8.0672-4.4304-6.6125-8.5962 14.547-14.415 26.252-30.021 33.062-47.61-3.703 5.8851-5.9513 12.365-10.58 17.854l-0.6612-0.66125c3.4385-7.0753 6.8108-15.01 7.2737-22.482-4.9594 14.547-9.9187 29.095-21.16 40.997-3.5707 2.5127-8.2656 8.0011-13.225 9.9187-7.2737-2.7772-13.754-8.7285-19.176-14.547l-0.6612 0.66125c-7.935-6.2157-8.0673-15.738-13.225-23.144l-0.6612-4.6287c-1.9838 0.46288-4.761-1.1241-5.9512 1.3225-1.8515 6.8108 0.1983 13.622 3.3062 19.176-0.4629 5.4222-7.6043 3.174-11.241 5.29-7.0092 4.8271-14.68 5.29-19.837 13.225l1.3225 1.3225c-4.5626 0.33062-7.0754 6.7447-10.58 9.2574-0.2644-3.5046-4.2319-3.703-5.9512-6.6125 7.1415-4.4965 7.2076-12.035 13.225-16.531-0.1323-1.6531 1.1241-2.7772 0.6612-4.6287-5.819-1.9176 0.1984-7.4721-2.645-11.241-2.3805-2.5127-5.29-0.39675-7.9349 0 0.1983 0.59512-0.3307 0.92574-0.6613 1.3225 1.9838-1.4547 4.8271-2.8434 7.2737-1.3225l0.6613 0.66125c-3.9675 0.33062-7.4721 1.6531-10.58 3.9675-4.5626-0.72738-6.6124 6.6786-11.241 3.9675-7.1414 3.7691-16.531 2.1821-23.144 7.2737-6.2157-7.0753-14.349-15.076-19.837-22.482-1.1902 0.46288-0.46288 1.7854-0.66125 2.645 7.2737 4.2981 13.225 13.225 19.176 19.176-1.7854 2.1821-4.4965 3.4385-5.29 6.6125-7.0092-4.2981-8.9268-11.043-14.547-15.87-0.85961-0.85962-0.46287-3.4385-2.645-2.645l-0.66125 0.66125c-4.4304-2.4466-7.406 3.9675-10.58 5.29-3.4385 1.5209-2.645 5.9512-4.6287 8.5962 2.3144 0.85961 5.7528 0.33062 6.6125 3.3062-2.9095 1.8515-10.58-4.1658-9.9187 2.645v2.645l1.9838-3.9675c1.5209 1.1241 5.0916 0.19838 4.6287 3.3062l-0.66124 0.66125c-0.39675-0.79349-1.2564-0.66125-1.9838-0.66125-0.79349 3.5046 6.7447 3.4385 2.645 6.6125h-1.9837c3.3724 2.5789 4.5626 6.0173 7.935 8.5962-0.85962 2.7772-4.0997 6.2818-6.6125 6.6125h-1.9838c0.06613 2.6449-3.0417 0.3306-3.9675 1.9837-2.5789-2.0499-4.232 2.2482-6.6125 2.645 1.5209 0.9918 2.1821-1.9838 3.3062 0 0.529 1.6531-1.4547 2.9095-2.645 3.3062l-1.9837-1.3225c-0.529 7.0092 6.8108 13.225 1.3225 19.837-0.7935 4.6287 1.5209 8.7285 0.66125 12.564-1.5209 0.529-2.1821-0.8596-3.3062-1.3225 0.19838 0.5951-0.33062 0.9258-0.66124 1.3225 0.72737 2.0499 2.9095 0.5951 3.9675 1.9837-0.33063 0.3968-0.85962 0.7274-0.66125 1.3225 0.92575 0.2645 1.3225-0.8596 1.9837-1.3225l1.9837 2.645c0.13225 2.116-0.46287 6.1496 0.66125 8.5962-4.0336 1.8515-1.9176 5.1578 0 7.2738 5.5545 5.2899 12.431 9.3235 20.499 6.6124-2.1821-1.9176-4.6948-0.2645-6.6125-0.6612-5.0255 0.529-10.646-2.8434-13.886-7.2737-0.19838-0.5952 0.33062-0.9258 0.66124-1.3225 1.2564-0.3968 1.8515 0.5951 2.645 1.3225v0.6612c0.59512 0.1984 0.92575-0.3306 1.3225-0.6612 1.2564 1.7853 3.1079 2.1821 4.6287 3.3062-2.4466-0.8596-5.4222-3.2401-5.9512-5.9512 1.1241-0.9919 3.5046-0.9919 4.6287 0l0.66124 0.6612c1.1902-2.9756 4.4304 0 6.6125 0 1.7192 0 1.058 1.6531 2.645 1.9838 0.39674-0.7935 1.2564-0.6613 1.9837-0.6613 2.9095 1.2564 1.6531 4.232 1.9837 6.6125l1.3225-1.3225c1.3886 4.8932 7.2076 8.9929 10.58 11.902l-3.3062 2.645-1.9837-3.9675c-1.587-1.3886 0.529-0.0661 0 0.6613l0.66125 0.6612-0.66125 0.6613c0.85962 0.3967 0.66125 1.2563 0.66125 1.9837-1.7854 0.1984-3.5046 2.4466-5.29 0.6613-0.13224-1.1903-2.1821-0.4629-3.3062-0.6613l-3.3062 3.3062c1.3225 0.8597 0.33062 2.3144 0 3.3063-1.1241 0.8596-1.9176 2.4466-3.3062 2.6449-1.9837-1.1241 0.99188-1.7853 0-3.3062l1.9838-1.9837c-0.39676 0.3306-0.72738 0.8596-1.3225 0.6612l-0.66125-0.6612c1.7192-1.6531-0.85962 0.529 0 1.3225l-1.3225 1.3225c-3.1079-2.3805-8.3317-5.8851-5.29-10.58 1.1241-0.4628 1.7854-1.8515 3.3062-1.3225v-0.6612c-3.0417-1.1903-3.2401 1.7854-4.6287 3.3062-0.13224 3.174 0.85963 6.0174 3.3062 8.5962 1.1241 0.1984 2.645-0.529 3.3062 0.6613-1.1241 0.6612-1.6531 2.7111-3.3062 1.9837l-0.66125-0.6612c-2.3144 1.6531 2.645 2.8433 0 4.6287l-6.6125-1.9838c1.1902-0.0661 1.7854 1.3225 2.645 1.9838l-1.3225 1.3225h-5.29c-0.79349 0.3967-0.66124 1.2564-0.66124 1.9837 3.7691-2.3143 9.1913-0.6612 12.564-3.9675 2.116 0.3307 2.1821 2.645 3.3062 3.9675l-0.66125 0.6613c1.1241 2.7772 3.3062 5.9512 2.645 8.5962l-2.645-1.9838-1.3225 1.3225c2.5127 1.3225 3.2401 4.6288 3.9675 7.2737-0.19837 3.7692-5.4222 8.464-0.66125 11.241l0.66125 0.6613-0.66125 0.6612c0.46288 2.7111 4.0997 0.3306 5.29 1.3225v-0.6612c-1.9176 0.3306-2.3805 0.2645-3.9675-0.6613-0.19838-0.5951 0.33062-0.9257 0.66124-1.3225-0.92574 0.2645-1.3225-0.8596-1.9837-1.3225-0.79349-3.769 1.1902-6.414 2.645-9.2574 0.99187 0.1322 1.5209-1.1241 2.645-0.6613l0.66125 0.6613c-1.1241-1.587-1.1241-2.3805 0-3.9675 1.5209-0.529 2.1821 0.8596 3.3062 1.3225-0.59512-1.7853-2.8434-2.9095-1.9837-5.29 0.39675-0.3306 0.72737-0.8596 1.3225-0.6612 0.46287 0.6612 1.587 1.058 1.3225 1.9837 1.587-1.1241-0.529-3.8352 1.9837-4.6287l1.3225 1.3225c-0.19837-0.5951 0.33063-0.9258 0.66125-1.3225 1.1241 0.1984 2.645-0.529 3.3062 0.6612-0.85961 0.7935-0.85961 1.9838-1.9837 2.645-0.39674-0.3306-0.72737-0.8596-1.3225-0.6612 2.645 3.3723-2.645 9.1913 1.9837 12.564l7.2737 5.9512c-0.85962 0.6612-1.4547 2.0499-2.645 1.9837 0 0.7274-0.13225 1.587 0.66125 1.9838 0.66125-1.1241 0.59512-2.5128 1.9837-3.3063 1.587-0.0661 2.9095 0.5951 3.9675 1.9838-2.9095 1.1902-4.4304 5.819-7.935 2.645h-0.66125c1.6531 2.4466 2.3144 6.1496 1.9837 8.5962h1.3225c-0.46287-2.4466-1.8515-5.29-1.3225-7.2737 5.4884-1.6532 2.645 4.7609 5.29 6.6124-0.46287 1.1903-1.7854 0.4629-2.645 0.6613-0.19837 1.3225 0.529 3.0417-0.66125 3.9675-2.4466-0.9919-0.72737 1.9837-1.9837 2.6449l-3.3062 1.3225c4.8271 1.3886 6.1496 6.5464 7.2737 10.58-0.39676 0.3306-0.72737 0.8596-1.3225 0.6612l-1.3225-1.3225c0.19838 1.1242-0.52899 2.645 0.66124 3.3063l-5.29 1.9837c1.587 0.1323 3.2401-1.5209 4.6287 0l-0.66125 0.6613 2.645 2.6449-0.66125 0.6613c-0.46287-1.1903-1.7854-0.4629-2.645-0.6613l-0.66124 0.6613c-1.8515-2.3144-5.29-3.6369-8.5962-3.9675l1.9837 1.3225c-0.92574 1.1903-2.645 0.4629-3.9675 0.6612 3.0417 1.1242 7.2076 3.4385 9.9187 1.3225-0.13226 3.703 5.4883 3.3063 4.6287 7.2738l1.3225 1.3224c0.33062-1.5869-1.6531-2.9095 0.66125-3.9674-0.59512-0.1984-0.92575 0.3306-1.3225 0.6612-1.1241-0.9257-0.39676-2.5789-1.9838-3.3062 1.3225-0.9919 3.9675-0.9919 5.29 0 1.1902 1.1241 0.46289 3.1078 0.66125 4.6287 0.85963 0.1984 2.1821-0.529 2.645 0.6613-0.19837-1.5871-2.4466-2.3805-2.645-3.9675l1.3225-1.3225c0.39675 0.3306 0.72737 0.8596 1.3225 0.6612l-0.66125-0.6612 0.66125-0.6613c-0.99187-0.6612-3.2401-1.1241-3.3062-3.3062l1.3225-1.9838 3.9675 3.9675-0.66124 0.6613h2.645l-1.3225-1.3225c0.66126-1.1903 2.1822-0.4629 3.3063-0.6613-1.7854-2.8433-6.0835 0.1984-7.935-2.645 1.058-0.9257 3.2401-0.9918 3.9675-0.6612v0.6612c1.5209 0.5291 2.1821-0.8596 3.3062-1.3224 1.7854 1.9837 3.1079-0.9919 5.29 0-2.1821-0.9258-4.8271-0.6613-6.6125-2.645 2.4466-1.7854 4.8271 0.4629 7.2737 0.6612-1.4547-1.7853-4.0997-0.7935-5.2899-3.3062-0.9258 1.1241-2.9756 0.7935-3.9675 0l1.9837 1.3225c-0.4628 1.1902-1.7853 0.4629-2.645 0.6612-4.2981-1.3225-1.4548-7.4059-6.6125-6.6124 0.06612-1.4548-0.33063-3.1079 1.3225-3.9675 1.5209 1.1902 2.7772 1.2563 4.6287 0.6612-0.13225-2.5127-3.9014-1.7853-3.3062-4.6287 2.4466-0.1322 3.703-3.1079 6.6124-1.9837v-0.6613c-1.1241 1.1903-3.1078 0.4629-4.6287 0.6613-0.66124-0.8597-2.0499-1.4548-1.9837-2.645l0.66125-0.6613c-0.72737 0.6613-3.9675-0.7274-4.6287-3.3062-0.59513-2.5789 0.72737-4.3642 2.645-5.9512 0.72736 0 1.587 0.1984 1.9837-0.6613-1.5209-0.9257-3.5046-0.6612-4.6287-2.645 0.39674-0.7934 1.2564-0.6612 1.9837-0.6612v-1.3225c-2.4466 4.4965-6.1496 0.1323-8.5962-1.3225-2.0499-3.174-4.3642-6.4802-2.645-10.58 2.116-2.3805 4.5626 2.4466 7.2737 2.6449l0.66125 0.6613c-0.33062-2.9756-8.7946-3.174-5.29-7.2737 5.0255 3.5707 9.7203 7.8027 15.87 8.5962v-0.6613c-0.59512-0.1983-0.92575 0.3307-1.3225 0.6613-2.5127-2.116 1.8514-1.1903 1.3225-3.3062l-1.3225-1.3225c-0.19838 0.8596 0.529 2.1821-0.66125 2.6449-3.1079 0.9919-4.6948-1.5208-6.6125-3.3062-0.19837-0.5951 0.33062-0.9257 0.66125-1.3225 2.1821-0.529 3.5046 0.8597 5.29 1.3225-1.1902-2.5127-7.406-0.1322-6.6125-4.6287 1.7854-3.174 3.9675 0.529 6.6125-0.6613l-1.3225-1.3225c1.5209-1.7853 3.1079 0.4629 4.6287 0.6613 4.1658 1.5209 1.2564 5.8851 3.9675 7.935 0.1322-1.587-1.5209-3.2401 0-4.6288 1.8515 0.1323 1.7853 2.1822 2.645 3.3063-1.9177-3.7691-3.9675-5.7529-6.6125-9.2575-0.1984 0.5951 0.3306 0.9258 0.6612 1.3225-2.8433 1.3225-5.2899-2.3144-8.5962-1.9837-0.529-1.9176 1.7854-2.645 2.645-3.9675 0.59512-0.1984 0.92575 0.3306 1.3225 0.6612 1.5209-3.6368-2.3805-2.7772-3.9675-3.9675l-0.66125-0.6612c0.39674-0.3306 0.72737-0.8596 1.3225-0.6613l-1.3225-1.3224c1.2564-1.7854 2.3805 0.5951 3.9675 0-0.19838-2.116-5.4222-1.058-3.3062-3.9675l3.3062 0.6612c-0.46287-0.6612-1.587-1.058-1.3225-1.9837 0.92575-1.1903 2.645-0.4629 3.9675-0.6613 1.7192 1.1242 1.6532-1.8514 3.9674-1.3224 0.2645-0.9258-0.8596-1.3225-1.3225-1.9838 2.2483-1.8515 5.29-1.7853 7.935-2.645 5.4883 8.8607 5.0916 20.234 10.58 29.095 0.3968 5.4222 3.3063 9.1252 2.645 14.547 4.4965 1.6531-0.8596 6.6786 4.6287 7.935 2.645 0.2645 4.761 1.7853 6.6125 3.9674 1.5209 3.7691-0.4629 8.3318 2.645 10.58 3.3062 0.3306 6.1496 1.6531 8.5962 3.9675 3.9014 8.6623-7.6043 10.91-9.9187 17.854-2.4466 6.7447 4.0997 10.316 4.6287 15.209l0.6613-0.6613"/><path d="m80.783 274.06-1.9838 0.6613h1.9838v-0.6613"/><path d="m94.008 274.06c-0.39674-0.3306-0.72736-0.8596-1.3225-0.6612l0.66125 1.3225 0.66123-0.6613"/><path d="m88.718 272.08c-2.3805-0.9919-4.6948-2.1821-7.2737-2.645 0.46288 2.8434 4.4304 2.7773 7.2737 2.645"/><path d="m92.685 271.42h0.99187v0.99188h-0.99187v-0.99188z"/><path d="m76.815 268.78v0.6612h0.66125l-0.66125-0.6612"/><path d="m64.913 264.81 0.66124 1.3225v-0.6613l-0.66124-0.6612"/><path d="m68.219 263.49 0.66125 0.6612 0.66125-0.6612h-1.3225"/><path d="m75.493 262.82c-6.2818-0.0662-10.646-4.6288-15.87-7.2738 2.4466 1.2564 1.5209 7.0754 5.29 4.6288 3.1079 1.8515 7.0753 1.7853 10.58 2.645"/><path d="m56.316 255.55c0.19838 3.0418 1.9837 3.703 3.9675 5.9512-0.59512-2.2482-2.3805-4.6948-3.9675-5.9512"/><path d="m51.688 250.92c-0.13225 3.6369 1.3225 4.8932 2.645 7.935l-2.645-7.935"/><path d="m93.346 254.23h-1.3225c0.06612 3.0418 3.9014 0.9258 3.9675 3.9675 0.529-1.9176-1.7854-2.645-2.645-3.9675" fill="#fff"/><path d="m217.66 254.89c-0.8596-0.1984-2.1821 0.529-2.645-0.6613 2.3144-2.4466-1.3225-5.7528-1.9837-8.5962-1.3225-6.6124-9.4558-13.754-2.645-20.499 4.4304 0-0.1322 3.5707 1.3225 5.9512 0.1984 7.2076 4.4304 12.762 6.6125 19.176 1.5209 0.9918 2.1821-1.9838 3.3062 0-0.3306 0.3967-0.8596 0.7273-0.6612 1.3225 1.8515-0.3968 4.0997-1.1903 4.6287-3.3063 5.6867 0.1323 11.44 0.1984 15.87-2.645 0.3306 0.3968 0.8596 0.7274 0.6613 1.3225l-0.6613 0.6613c3.8353-0.529 5.0255-3.3724 8.5962-4.6287-2.8433-1.3887-3.7691-5.8852-4.6287-9.2575l1.3225-1.3225 0.6612 0.6612c0.3968-0.7934 1.2564-0.6612 1.9838-0.6612-0.2645-0.9257 0.8596-1.3225 1.3225-1.9837 1.1241 5.5544 6.0834 8.9268 10.58 11.902 6.4141-1.6531 13.556-1.5209 18.515-6.6125-0.7274 0-1.587-0.1322-1.9837 0.6613-1.058-2.5789-2.5789-0.1984-3.9675 0-5.4883 0.8596-12.696 1.7853-16.531-3.3063-2.645-2.0498-3.3062-5.7528-1.9837-8.5962 3.3062-5.3561 7.6043-11.902 3.9675-18.515-0.3968 0.8597-1.2564 0.6613-1.9838 0.6613-1.1241-1.587-1.1241-2.3805 0-3.9675-8.1333-5.6206-18.846-7.7366-28.434-11.241-16.73-5.29-34.385-8.3978-53.561-7.9349-0.9919 6.943-5.5545 12.498-7.2738 19.176-7.5382 7.8027-20.565 6.4141-30.417 4.6287-11.704-4.0997-17.523-16.333-18.515-27.772-0.9258-2.4466-3.5046-0.8596-5.29-1.3225-2.4466 5.4883 1.4548 11.572 2.645 17.192 2.2482 5.5545 3.174 11.704 7.2737 16.531 2.1821-0.6613 4.0336 0.8596 4.6287 2.6449-0.5951 2.5789 0.7274 4.3643 2.645 5.9513-1.587 1.9837-5.4222 1.2563-5.2899 4.6287 0.3967 4.761 6.4802 4.0997 9.2574 7.2737 5.7528 2.7111 0.7935 12.101 7.935 11.902-0.3968-1.9837 0.4628-3.4384 1.9837-4.6287 1.1903 0.4629 0.4629 1.7854 0.6612 2.645l2.645-2.645 1.3225 1.3225-1.9837 2.645c1.1902 0.0661 1.7854-1.3225 2.645-1.9837-1.1903-0.4629-0.4629-1.7854-0.6613-2.645l0.6613-0.6613c3.9675 3.9675 6.2818 12.233 13.225 13.225 0.1984 0.5951-0.3306 0.9257-0.6612 1.3225 3.1078 1.3224 8.7284 0.1983 13.886 1.3224 4.8271-1.1241 10.514-0.1983 14.548-3.3062 2.1821 0.7935 5.1577-0.3967 7.9349 0 5.4884 0.1323 10.117 2.1821 15.209 3.3062-0.7274 0.8597-1.7192 0.9919-2.645 1.3225 1.587 0.7935 4.8271 1.5209 5.9512-0.6612" fill="#fff"/><path d="m69.541 255.55c-2.3805 0.9919-3.9675-1.9837-5.9512 0h5.9512"/><path d="m109.22 253.57 0.6612-0.6612-1.3225-1.3225c0.3307 0.3967 0.8597 0.7273 0.6613 1.3225-2.3805 0.5951-4.6949-2.7112-7.935-1.9838 2.7773 1.3886 5.3561 3.0418 8.5962 3.3062l-0.6612-0.6612"/><path d="m115.17 252.91h-1.9837c0.6612 0.4628 1.058 1.5869 1.9837 1.3224v-1.3224"/><path d="m207.08 253.57v0.6612h0.6612l-0.6612-0.6612" fill="#fff"/><path d="m88.056 252.91v-0.6613l-1.3225 1.3225c0.59513 0.1984 0.92575-0.3306 1.3225-0.6612"/><path d="m184.6 250.92-8.5962 1.3225v0.6613c3.3062 0.3306 6.1496-0.3307 8.5962-1.9838"/><path d="m82.766 250.26c-1.587 0.2645-2.3805-3.5708-3.9675-1.3225 1.3225 0.4628 2.3805 1.587 3.9675 1.3225"/><path d="m236.18 249.6 1.9838-0.6612-1.9838 0.6612" fill="#fff"/><path d="m88.718 247.62v1.3225l0.66125-0.6613-0.66125-0.6612" fill="#fff"/><path d="m110.54 247.62c0.4629 1.1902 1.7854 0.4628 2.645 0.6612-4.761 0.6613-7.5382-3.6368-11.902-3.9675 0.8597 1.3225 5.7529 2.645 8.5962 3.9675l0.6613-0.6612"/><path d="m115.17 247.62-0.6612 0.6612h1.3225l-0.6613-0.6612"/><path d="m122.44 248.28-0.6612-3.3062 0.6612 3.3062"/><path d="m77.476 245.63c-1.7854-0.1983-5.6867 0.529-7.935-0.6612-5.1577 0.1984-6.6786-5.4884-11.241-5.29-0.46287-1.7853-1.5209-2.8433-3.3062-3.3062 4.3642 3.7691 8.6623 7.6043 13.886 9.2574 2.4466-0.7934 5.29 1.4548 8.5962 0.6613v-0.6613"/><path d="m81.444 244.97c-1.2564-0.6613-2.3805-1.4547-3.9675-1.3225 0.92574 0.3306 1.9176 0.4629 2.645 1.3225l-1.3225 1.3225c0.92575-0.3306 1.9176-0.4629 2.645-1.3225"/><path d="m63.59 245.63h0.99187v0.99187h-0.99187v-0.99187z"/><path d="m242.13 245.63h0.99187v0.99187h-0.99187v-0.99187z"/><path d="m58.961 244.31h0.99187v0.99187h-0.99187v-0.99187z"/><path d="m86.073 242.33-0.66124-0.6612c-0.39676 0.3306-0.72738 0.8596-1.3225 0.6612 0.39675 0.8596 1.587 0.8596 1.9837 0"/><path d="m71.525 241.66c0.66125 1.1902 2.1821 0.4628 3.3062 0.6612l-5.29-2.645c-0.59513 0.1323-1.6531 2.0499-0.66125 2.645 0.85962-0.1984 2.1821 0.529 2.645-0.6612"/><path d="m111.2 241.66h0.99187v0.99187h-0.99187v-0.99187z"/><path d="m110.54 241c-1.6531 0.1323-2.7772-1.1241-4.6287-0.6612 1.9837-0.7935 2.6449 1.4547 4.6287 0.6612"/><path d="m113.84 238.36 3.3062 2.645-2.6449-2.645h-0.6613"/><path d="m60.945 236.37c-0.72737 2.2482 1.1241 1.7192 1.9837 3.3062l0.66125-0.6612-2.645-2.645"/><path d="m66.235 233.73-1.9837 0.6612 1.9837 3.3063c0.59512-1.587-1.7854-2.7111 0-3.9675"/><path d="m275.85 237.7h0.99185v0.99187h-0.99185v-0.99187z"/><path d="m60.284 234.39-1.3225-2.6449 1.9837-1.3225 1.3225 1.9837c2.5127-0.9919 3.3724-2.9095 1.9837-5.29l-1.9837-1.9837c1.3886 1.4547 1.3225 3.5046 1.9837 5.29l-0.66124 0.6612c-2.5127-1.5209-3.8352-5.819-6.6125-6.6125 1.7854 1.8515 4.8271 3.9675 2.645 6.6125l-0.66125 0.6613c-4.2981-2.3144-4.6287-8.5963-9.9187-9.9187 5.2238 3.1078 8.1333 8.9268 10.58 13.225l0.66124-0.6613"/><path d="m47.059 231.08-2.645-3.9675 2.645 3.9675"/><path d="m47.72 221.83-0.66125-0.6613-0.66125 0.6613c-0.39675-0.3307-0.72737-0.8597-1.3225-0.6613l3.9675 7.935c-0.46287-2.4466-4.1658-5.1577-1.3225-7.2737"/><path d="m266.59 226.46c-1.4547-3.3063 2.1821-6.0835 4.6287-8.5962h1.3225c-1.6531-4.5626-5.4883-8.1995-9.2574-11.902 0 5.4884 2.9756 11.44 0 16.531 1.5208 1.1241 0.1322 3.174-1.3226 3.3062 0.7274 1.6531 3.1741 2.5789 4.6288 0.6613" fill="#fff"/><path d="m79.46 224.47 0.66125-0.6612-0.66125 0.6612"/><path d="m82.105 224.47h0.99187v0.99187h-0.99187v-0.99187z"/><path d="m271.88 219.84-0.6612 1.3225 0.6612-0.6612v-0.6613" fill="#fff"/><path d="m53.671 216.54c-0.39674 2.5788 2.645 2.645 3.9675 3.9675l-3.9675-3.9675"/><path d="m62.929 218.52v1.3225l0.66125-0.6612-0.66125-0.6613"/><path d="m50.365 218.52c-0.39675-0.3306-0.72737-0.8596-1.3225-0.6612 0.39675 0.3306 0.72737 0.8596 1.3225 0.6612"/><path d="m99.297 217.86c-6.0173-0.3306-11.638-1.587-16.531-4.6288 4.9594 4.0998 9.7203 5.8851 16.531 4.6288"/><path d="m61.606 215.21 1.3225 1.9837 0.66125-0.6612-1.9838-1.3225"/><path d="m123.1 217.2h0.99187v0.99187h-0.99187v-0.99187z" fill="#fff"/><path d="m276.51 217.2h0.99188v0.99187h-0.99188v-0.99187z" fill="#fff"/><path d="m226.26 212.57c1.5209-2.4466 2.8434-5.7528 1.3225-8.5962-2.3805-4.761-7.9349-4.4965-12.564-5.29-3.1078 0.529-6.414 0.529-8.5962 3.3063 1.3225 2.9756 4.1659 6.4802 7.2737 9.2574 1.5209 1.5209 1.7854 4.761 4.6288 4.6287 3.0417-0.1322 5.2899-2.1821 7.9349-3.3062"/><path d="m59.623 215.21c-2.9095-1.7193-7.406-3.9675-7.935-7.2737h-0.66125c1.587 1.7854-0.72737 6.3479 3.3062 5.9512 1.3886-0.6613 3.4385 1.1902 5.29 1.3225"/><path d="m62.268 211.25c-1.9837-1.1241-5.819-2.116-7.2737-4.6287 1.7192 1.8515 4.2981 4.4965 7.2737 4.6287"/><path d="m66.896 210.59v0.6612h0.66125l-0.66125-0.6612" fill="#fff"/><path d="m58.3 206.62h1.3225-1.3225"/><path d="m89.379 203.97h-3.3062c-0.7935 2.7111 2.3805 1.3225 3.3062 2.645v-2.645" fill="#fff"/><path d="m217 204.63c-0.5951-0.1983-0.9258 0.3307-1.3225 0.6613l0.6612 0.6612c0.3307-0.3967 0.8597-0.7273 0.6613-1.3225" fill="#fff"/><path d="m163.44 197.36c-0.8596-2.2482 1.8515-1.587 2.645-2.645 0.0661-4.8932 3.1079-9.3235 1.9837-13.886 1.4548-2.1821 3.5046-4.0998 2.645-7.2737 6.1496-4.4965 4.5626-12.167 7.935-17.854-0.4629-1.5209-1.8515-2.645-1.3225-4.6287 0.7935-1.9176 3.8352-1.1903 2.645-3.9675-1.1241-0.1984-2.645 0.529-3.3063-0.6613 1.7193-3.9674 4.232-7.0753 2.645-11.902l3.3063-1.9837c-0.4629-1.1903-1.7854-0.4629-2.645-0.6613 0 0.7274 0.1984 1.587-0.6613 1.9838-0.5951 0.1983-0.9257-0.3307-1.3225-0.6613 1.7193-1.9837-1.3225-3.4385 0.6613-5.29 4.3642-3.5046 11.109-5.6867 10.58-12.564-1.6531 0.9918-3.7691 2.6449-5.2899 1.9837 2.6449-4.9594 14.151-5.4884 9.9187-14.547-0.3968 0.8596-1.2564 0.6612-1.9838 0.6612l-1.9837-1.9837c0.8596-1.1241 2.3143-0.529 3.3062-1.3225-2.1821-2.9095-5.1577-6.6786-8.5962-7.935 0.1984 1.3225 2.4466 2.645 0.6613 3.9675-1.9177-6.4141-9.7204-6.8108-15.87-7.2737-1.4547 2.9095-3.7691 0-5.9512 0.66124-3.4385 0.72737-7.0753 0.99188-9.9187 3.3062 2.3144 2.3144-1.3225 2.645-1.9837 3.9675-0.3968-0.79348-1.2564-0.66124-1.9838-0.66124-2.3143 2.2482-0.6612 7.2737-3.9675 7.935v2.6449c3.0418-4.6948 8.9269-8.2655 11.241-13.225 1.8515 1.7854 5.1578 1.6531 5.9513 4.6287 1.2563-2.4466 3.7029-1.9176 5.9512-1.9837 2.645 1.8515 3.4385 4.4965 3.9675 7.2737-11.44 7.4721-10.382 21.292-14.548 32.401-2.8433 8.8607 3.174 20.631-2.645 29.095-5.0916 0.5289-8.53-2.9757-11.902-6.6125-2.5127 2.8433-5.29 5.0255-8.5962 5.9512-5.819-5.9512-2.7772-17.589-2.645-25.789-0.9918-1.7192-3.6368-2.4466-5.29-3.9675-1.1902 1.3225-0.4628 3.5046-0.6612 5.29 1.1902-0.0661 1.7854 1.3225 2.645 1.9837-0.3968 0.3306-0.7274 0.8596-1.3225 0.6613l-0.6613-0.6613-0.6612 0.6613c2.9095-0.6613 2.645 3.5046 3.9675 5.2899l-0.6613 0.6613-0.6612-0.6613c-0.1984 1.7854 0.529 3.9675-0.6613 5.29 0.1984 2.5789-0.8596 6.2818-3.3062 8.5962 0.7274 0 1.587-0.1322 1.9837 0.6613l-1.9837 1.9837c0.5951-0.1984 0.9258 0.3306 1.3225 0.6613-2.4466 2.7111-0.8596 5.8189-1.3225 9.9187 0.7274 0 1.587-0.1323 1.9837 0.6612-2.8433 6.6125 2.1822 13.225 3.3063 19.837 8.5301 6.6125 24.929 16.2 33.062 1.9837" fill="#fff"/><path d="m68.219 200.67c-0.39675-0.3307-0.72737-0.8597-1.3225-0.6613 0 0.7274-0.13225 1.587 0.66125 1.9838-1.587 0.6612 0.52899 1.0579 0 1.9837 1.1902-0.6613 0.46287-2.1821 0.66124-3.3062" fill="#fff"/><path d="m72.186 201.33 0.66125 1.9837v-1.3224l-0.66125-0.6613" fill="#fff"/><path d="m94.008 203.31c-0.39674-0.7934-1.2564-0.6612-1.9837-0.6612 0.39674 0.8596 1.2564 0.6612 1.9837 0.6612" fill="#fff"/><path d="m64.251 201.99c-1.587-1.3887 0.529-0.0662 0 0.6612v-0.6612"/><path d="m86.734 198.02-0.66124-0.6613c1.7854-1.3225 3.5046 1.3225 5.29 1.9838v0.6612c1.3886-0.7935 1.3225-2.1821 1.9838-3.3062-2.4466-0.6613-4.2981-1.6531-6.6125 0-0.85962 1.4547-0.66124 4.4303-3.3062 3.9675l0.66125 1.3225c1.6531-0.9919 3.3724-1.3887 2.645-3.9675" fill="#fff"/><path d="m90.04 200.67c-0.39674-0.3307-0.72737-0.8597-1.3225-0.6613l-0.66124 0.6613c0.39675 0.8596 1.587 0.8596 1.9837 0" fill="#fff"/><path d="m266.59 198.68c2.8433-10.646 2.7772-22.482 2.645-34.385-1.587-1.9176-2.4466-4.0997-2.645-6.6125l-1.3225 1.9838c-2.645-7.4721-2.3144-16.201-7.935-22.482-1.7192-2.9095-4.8271-5.29-7.2737-7.935-2.3144 4.2981-7.0092-0.3306-9.9187 3.9675-1.5208-1.7854-3.1078 0.4629-4.6287 0.6613l-1.3225 1.3224-0.6613-0.6612c-16.663 5.4222-31.872 14.349-48.271 20.499-1.6532 6.5464-3.3724 13.093-9.2575 17.854 0.6612 3.1079 2.8434 3.8352 5.29 5.29-1.7854 0.9918-4.8271 0.9918-6.6125 0 0.7274 2.645 4.6949 2.9756 7.2737 3.9675 6.348 0.9918 11.902-1.9838 17.854 0-5.7529-2.116-12.762-1.1903-18.515-3.3063l6.6124-1.3225c10.382 2.116 21.623 4.1659 32.401 3.3063 11.44 4.2981 21.623-2.3144 33.062-1.9838 2.9094-3.1078 7.4721-2.1821 11.241-3.3062l1.3225 1.3225c-4.8932 3.7691-11.44 3.5046-17.192 5.29-15.01 2.9756-31.277 2.9756-46.287 0 7.4059 3.8352 16.73 3.0417 24.466 5.9512 12.431 3.703 24.797 7.4059 36.369 13.225 1.7853-0.5951 0.9257-3.4385 3.3062-2.645" fill="#fff"/><path d="m74.831 200.01c0.06612-1.1902-1.3225-1.7854-1.9837-2.645 1.058-2.5127 2.645-0.3967 3.9675 0l3.3062-3.3062c-0.85962-0.1984-2.1821 0.529-2.645-0.6613 1.6531-1.9176 2.9095-2.1821 3.3062-4.6287 2.116-0.529 1.1902 3.8353 3.3062 1.3225-0.33063-2.3143-3.3724-5.3561-5.29-5.29 0.99188 1.1242 0.99188 3.5047 0 4.6288-1.9176 5.1577-11.506 2.116-8.5962 8.5962 1.1902 1.5208 2.645 2.3805 4.6287 1.9837" fill="#fff"/><path d="m83.428 198.02v0.6612h0.66125l-0.66125-0.6612" fill="#fff"/><path d="m77.476 194.05-1.9838 1.3225h0.66125l1.3225-1.3225"/><path d="m90.701 192.07-2.645 0.6613h1.9837l0.66125-0.6613" fill="#fff"/><path d="m310.24 192.73h0.99185v0.99187h-0.99185v-0.99187z" fill="#fff"/><path d="m51.688 192.07-3.3062-3.3062 3.3062 3.3062"/><path d="m77.476 187.44c-0.33063-1.9176-1.9176-2.116-2.645-3.3062-2.116-0.529-4.0997 0.7935-4.6287 2.645 2.7111 2.1821-2.3144 2.7772-0.66124 5.2899 3.0417-0.5289 7.2737-1.1241 7.935-4.6287" fill="#fff"/><path d="m58.3 191.41c1.058-2.645-1.587-4.3642-3.3062-5.29-1.6531 0.1323-2.7772-1.1241-4.6287-0.6612 1.6531 2.9756 4.8932 4.9593 7.935 5.9512"/><path d="m56.316 189.43c-1.1241-0.8597-1.9176-2.4466-3.3062-2.645 0.13225 1.8515 2.1821 1.7853 3.3062 2.645" fill="#fff"/><path d="m87.395 187.44c-0.13225-1.6531-3.5046-1.9837-1.3225-3.9674h-1.9837c-0.33063 1.9176 0.66125 5.0254 3.3062 3.9674" fill="#fff"/><path d="m88.718 185.46h0.99188v0.99187h-0.99188v-0.99187z" fill="#fff"/><path d="m90.04 183.47 0.66125 0.6612 1.9837-0.6612h-2.645" fill="#fff"/><path d="m55.655 182.15c-0.59513 0.1983-0.92575-0.3307-1.3225-0.6613v-0.6612c-1.1241 0.8596-1.2564 1.4547-0.66125 2.645 0.92575 0.2645 1.3225-0.8597 1.9838-1.3225"/><path d="m154.18 176.86c-4.9594 0.5951-4.761-7.8027-9.2575-3.9675-1.1241 3.5046 1.7854 5.29 2.645 7.935 1.9837 1.8515 4.8271 1.7853 7.2737 2.645 1.6531-1.3225 0.2645-4.6949-0.6612-6.6125"/><path d="m141.62 177.52c0.3306-2.4466-1.3886-4.0997-2.645-5.9512-2.7111 3.174-9.9187 3.9014-7.935 9.9187 3.8353 3.4385 8.5962-0.3306 10.58-3.9675"/><path d="m65.574 174.88-1.3225 1.3224c6.2157-3.3062 9.9848 2.7112 13.886 5.9513-2.4466-3.8353-7.0092-8.1334-12.564-7.2737"/><path d="m240.14 176.86c0.6613-3.1079-0.7274-4.8932-3.3062-5.9512h-1.3225c1.1241 1.5208 3.6369 2.5127 3.3062 4.6287-2.2482 2.8434-5.7528 2.7772-9.2574 2.645-15.936-1.9838-31.872-5.29-43.642-15.87 8.9268 11.902 28.301 14.878 44.304 17.854 3.3062-1.1241 7.4721-0.1984 9.9187-3.3062"/><path d="m55.655 176.86h-1.3225c0.13225 0.7935 0.529 2.0499 1.3225 1.9837v-1.9837"/><path d="m107.89 176.86h0.99187v0.99187h-0.99187v-0.99187z" fill="#fff"/><path d="m77.476 175.54v0.6612h0.66124l-0.66124-0.6612"/><path d="m119.13 172.23c-2.4466 0.1983-5.29-0.529-7.2737 0.6612l0.6612 3.3062c1.9838-1.9176 9.2575 2.116 6.6125-3.9674" fill="#fff"/><path d="m59.623 174.22v-0.6612c-1.1241 0.1983-2.645-0.529-3.3062 0.6612 1.6531-0.6612 1.9176 1.3225 3.3062 0"/><path d="m75.493 173.56-0.66124 0.6612h0.66124v-0.6612"/><path d="m54.994 173.56c-2.116 0.3306-3.1079-2.1822-4.6287-3.3063 0.85962 1.3886 2.1821 4.2981 4.6287 3.3063"/><path d="m97.314 171.57c-4.232-2.5127-9.2574-3.1078-13.886-4.6287 2.116 6.4802 9.3897 5.1577 13.886 5.29v-0.6613" fill="#fff"/><path d="m108.55 167.6c-3.7691 1.5209-6.0173-2.3805-7.9349-3.9674-7.2737-1.9838-14.547-3.9675-21.821-5.9513l-0.66124 0.6613c-1.1241-0.4629-0.46287-2.2483-1.9837-1.9838-0.26449 0.9258 0.85962 1.3225 1.3225 1.9838l-0.66125 0.6612c6.8108 7.4721 18.052 7.0754 27.111 10.58h4.6287v-1.9838" fill="#fff"/><path d="m119.13 167.6c0.3306-10.58 4.6287-20.3 3.9675-30.417-0.1323-1.8515-2.1821-1.7854-3.3063-2.645-2.9756 7.7366-4.9593 15.87-5.9512 24.466 0.7935 0.8597 1.9838 0.8597 2.645 1.9838-1.1241 0.4628-1.7854 1.8515-3.3062 1.3225l-1.3225 7.2737c2.7772 0.1322 5.4222 0 7.2737-1.9838" fill="#fff"/><path d="m65.574 168.93c0-0.7273 0.19838-1.587-0.66124-1.9837-0.59513-0.1984-0.92575 0.3306-1.3225 0.6612 0.66124 0.4629 1.058 1.587 1.9837 1.3225"/><path d="m47.72 161.65h-0.66125c-0.33062 2.7111 0.2645 5.0255 2.645 6.6125-0.19837-2.3805-2.2482-4.0336-1.9837-6.6125"/><path d="m56.978 166.94-0.66125-0.6613 0.66125 0.6613"/><path d="m105.91 157.02c-5.4884-2.8434-11.44-4.761-16.531-8.5962-0.26449 1.9176-1.9176 3.174-3.3062 4.6287-4.0336-1.8515-5.5545-4.1658-7.935-7.2737l0.66124-0.6613-2.645-1.9837c-1.7192 1.1241-4.5626-2.5127-5.9512 1.3225-0.33062 2.3805 0.33062 4.3642 1.9837 5.9512h0.66125c0.99187-2.645-4.9594-5.4222 0-6.6124 1.6531 2.6449 2.3144 6.6124 1.9837 9.2574 9.1913 4.1659 19.507 5.7529 28.434 10.58l5.9512 0.6612c2.1821-2.9756-0.7935-6.0173-3.3062-7.2737" fill="#fff"/><path d="m66.235 163.64h0.99187v0.99187h-0.99187v-0.99187z"/><path d="m154.84 161.65c1.9837-15.142-2.9756-29.095-5.9512-42.981-5.6206-1.9176-1.9838 4.6948-3.9675 6.6125l0.6612 1.9837-1.3224 27.111c1.3886 4.8271 6.5463 6.1496 10.58 7.2737" fill="#fff"/><path d="m141.62 155.7c1.4547-6.1496-0.1323-11.043 1.3225-17.192-0.3307-0.3968-0.8597-0.7274-0.6613-1.3225l0.6613-0.6613c-1.1903-0.6612-0.4629-2.1821-0.6613-3.3062 0.1984-3.1079-0.529-8.3317 0.6613-11.902-0.3307-0.9258-0.4629-1.9176-1.3225-2.645-5.4884-1.5209-3.1079 4.8271-4.6288 7.2737-1.4547 10.911-2.4466 22.879-1.9837 33.724 2.7772 0.0661 4.6949-1.9176 6.6125-3.9675" fill="#fff"/><path d="m47.059 153.06c0.85962 1.058 0.66125 2.5789 0.66125 3.9675l-1.3225 1.9837 1.9837-0.6612-1.3225-5.29"/><path d="m63.59 157.02c0-0.7274-0.13225-1.587 0.66124-1.9838-0.92574 0.2645-1.3225-0.8596-1.9837-1.3224-0.19837-0.5952 0.33062-0.9258 0.66125-1.3225l0.66125 0.6612c0.85962-0.3967 0.66124-1.2564 0.66124-1.9837-0.66124-1.1903-2.1821-0.4629-3.3062-0.6613l-0.66125 0.6613c-2.3144-0.7935-4.0997-0.1984-6.6125-1.3225 2.2482 3.5046 5.819 6.8108 9.9187 7.2737" fill="#fff"/><path d="m109.88 156.36c-0.9918-10.051 6.9431-16.399 5.9513-26.45l-1.9838-1.9838c1.1241-1.9837 3.7691 1.8515 3.9675-1.3225l-3.3062-3.3062c-4.0998 5.4884-0.1984 15.407-3.3063 21.821-2.4466-1.0579-0.7935-3.7691-1.9837-5.2899-0.1984 1.5208 0.529 3.5046-0.6613 4.6287-2.3143-4.8271-3.4384-10.977-1.9837-16.531 1.1903 1.4548 1.5209 3.2401 1.3225 5.29-1.1902-2.8434 2.5127-5.29-0.6612-7.2737l-0.6613 0.6612c-0.9919-2.9756-2.9756-4.9593-5.9512-5.9512-1.5209 9.4558-7.0754 17.192-10.58 25.789 4.1658 1.5209 8.0672 5.7529 12.564 4.6288 0.4629 3.7691 4.5626 4.2319 7.2737 5.2899" fill="#fff"/><path d="m54.994 155.04c0.59512-2.5788-2.5127-1.9176-3.3062-3.9674 0.2645 1.9837-0.06613 5.2899 3.3062 3.9674" fill="#fff"/><path d="m195.18 148.43c7.5382-3.1079 14.614-7.2737 21.821-11.241 10.646-2.5789 20.432-7.3398 31.079-9.9187-9.6542-4.9594-14.746-23.54-29.095-14.547l-13.225 3.9674c-8.7285 7.3399-14.812 16.928-21.16 25.789l1.3225 9.9187c3.1079-1.2564 5.5545-4.1659 9.2575-3.9675" fill="#fff"/><path d="m57.639 143.14c-0.39674 0.3306-0.72737 0.8596-1.3225 0.6613l-1.3225-1.3225c0.39675-0.7935 1.2564-0.6613 1.9837-0.6613-0.19837-0.5951 0.33062-0.9257 0.66124-1.3225 1.9176 1.3225 3.703 2.8434 5.9512 3.3063 1.1902-3.3724-8.5962-4.2981-1.3225-5.29-1.4547-2.4466-2.7111-1.3225-4.6287-0.6613-0.92574 0.2645-1.3225-0.8596-1.9837-1.3225-0.19838-2.5788 2.7772-0.3306 3.3062-2.6449l-2.645-2.645c-2.116 0.529-1.1902 3.5046-3.3062 4.6287 1.1902 0.7935 1.5209 1.9176 1.3225 3.3062 0.59513-0.1983 0.92575 0.3307 1.3225 0.6613 0.19837 0.5951-0.33063 0.9257-0.66125 1.3225-0.39675-0.7935-1.2564-0.6613-1.9837-0.6613 0.19837 0.5951-0.33062 0.9258-0.66125 1.3225 0.85962 0.1984 2.1821-0.529 2.645 0.6613l-0.66125 2.6449 9.2575 3.9675c1.3886-4.5626-3.9675-3.9675-5.9512-5.9512" fill="#fff"/><path d="m94.008 118.01c-2.645-3.5046-5.29 0.8597-7.935 1.3225-4.6287 4.4304-7.0092 9.7203-10.58 14.548-2.0499-0.3968-3.8352-1.5209-5.29-3.3063 3.3724-5.0916 4.6287-12.299 10.58-15.209-6.6125-1.1242-10.778 6.2818-14.547 9.2574-1.3225 2.9095 2.1821 3.8352 2.645 5.9512-0.39675 0.3307-0.72737 0.8596-1.3225 0.6613l-0.66125-0.6613c-0.85962 3.5708 3.3724 3.2401 4.6287 5.9512 0.99188-2.3143-4.9593-3.6368 0-3.9674 4.0336 2.0498 2.0499 8.9929 7.935 7.9349l3.9675 3.3063c2.5789-8.3979 9.522-16.201 10.58-25.789" fill="#fff"/><path d="m51.026 131.9c0.33062 0.3968 0.85962 0.7274 0.66125 1.3225 0.59512 0.1984 0.92574-0.3306 1.3225-0.6612-1.1902-0.6613-0.46287-2.1822-0.66125-3.3063-1.9837 0.2645-0.66124-2.0498-1.9837-2.645l-0.66125 0.6613c1.1902 0.4629 0.46288 1.7853 0.66125 2.645-3.3062 3.7691-2.3805 8.3978-0.66125 12.564 1.6531-3.8353-1.7192-7.3399 1.3225-10.58" fill="#fff"/><path d="m108.55 137.19h0.99187v0.99187h-0.99187v-0.99187z" fill="#fff"/><path d="m124.42 133.22c-0.1323-2.116-2.1821-2.7772-3.3063-3.3062 0.3968 1.3886 1.9176 2.9095 3.3063 3.3062" fill="#fff"/><path d="m64.913 121.98c-0.66125 0.6613-2.1821 1.8515-0.66125 2.645 1.1902-0.4629 0.46287-1.7854 0.66125-2.645" fill="#fff"/><path d="m194.52 124.62 4.6287-5.29-4.6287 5.29" fill="#fff"/><path d="m112.52 121.32-0.6612 2.645 0.6612-0.6613v-1.9837" fill="#fff"/><path d="m109.22 122.64c0.7935-4.8271 0.529-10.646 5.29-13.225 5.2899-1.4547 8.53-7.7366 13.225-10.58l-1.9837-2.645 1.3224-1.3225h-3.9674l2.645 1.9837c-7.2738 4.2981-16.267 4.6288-23.144 9.9187v1.3225l3.3063-2.6449 0.6612 0.6612c-2.9756 3.5046-3.9014 7.8027-5.29 11.902 2.0499 1.587 5.0916 3.5708 7.935 4.6288" fill="#fff"/><path d="m134.34 119.99c-4.8933 0.7273-3.703-6.348-7.935-5.9512l-3.3062-3.3063c-1.4548 3.174-4.761 1.7193-6.6125 3.9675 3.703-4.0997 7.6705 0.1323 11.902 0 0.9919 3.4385 2.9757 5.29 5.9513 7.2737v-1.9837" fill="#fff"/><path d="m62.268 119.99c0.529-1.7193-0.85962-2.645-1.3225-3.9675-1.5209 1.3225-0.13225 4.232 1.3225 3.9675" fill="#fff"/><path d="m62.929 113.38h-0.66125c-0.72737 2.7772 2.7111 3.8352 1.9837 6.6125 0.92575-1.3886 1.3225-5.8851-1.3225-6.6125" fill="#fff"/><path d="m54.994 114.04c-0.39675-0.7274-2.1821-2.0499-3.3062-0.6613l0.66124 3.9675 2.645-3.3062" fill="#fff"/><path d="m135.67 116.69c-0.9258 0.2645-1.3225-0.8596-1.9838-1.3224v-0.6613l-0.6612 0.6613 1.9837 1.9837 0.6613-0.6613" fill="#fff"/><path d="m217 104.79c0.1984-2.9095-3.174-2.9095-4.6287-4.6287-5.5545 1.5208-9.4559 7.1414-14.548 9.9187l-1.3225 7.2737c8.0672-1.1903 14.085-7.406 20.499-12.564" fill="#fff"/><path d="m168.73 100.82c-5.7529-5.8851-6.2157 4.6949-11.241 6.6125-2.4466 3.1079-9.2575 4.6287-7.2737 9.2574 6.9431-2.0498 15.738-8.001 18.515-15.87" fill="#fff"/><path d="m47.72 115.37h0.99187v0.99187h-0.99187v-0.99187z" fill="#fff"/><path d="m68.88 114.04c0-0.7274 0.19837-1.587-0.66125-1.9838h-2.645c0.19838 1.3886 1.587 5.4222 3.3062 1.9838" fill="#fff"/><path d="m141.62 110.74-2.645 3.9675 3.3062-3.3062-0.6612-0.6613" fill="#fff"/><path d="m159.47 100.82c-0.0661-1.9837-1.058-3.174-3.3062-2.645-3.8352 4.761-9.4558 9.9187-11.902 15.87l0.6612 0.6612c6.1496-2.9095 9.3897-9.9848 14.547-13.886" fill="#fff"/><path d="m95.991 114.04c0.2645-3.3063 1.7854-6.0835 3.9675-8.5962-0.33063-0.3968-0.85962-0.7274-0.66125-1.3225-2.7772 1.7192-5.4883 5.8189-5.29 9.9187h1.9838" fill="#fff"/><path d="m114.51 114.04 0.6612-0.6613-0.6612 0.6613" fill="#fff"/><path d="m135.67 104.79c-2.8434 1.7192-3.5047 5.4884-5.9513 7.935l0.6613 0.6612c0.3306-3.4385 5.6206-4.8271 5.29-8.5962" fill="#fff"/><path d="m94.669 104.12c-2.5789 0.0661-3.703-3.3724-5.9512-3.9675-0.46286 0.6612-1.587 1.058-1.3225 1.9837 0.66125 2.1821-1.9176 4.6949-3.9675 6.6125l-2.645 0.6612c2.9756 6.2157 4.8271-0.1322 9.2574 0 1.2564-2.4466 4.761-2.2482 4.6287-5.2899" fill="#fff"/><path d="m322.8 111.4-1.3225 1.3225h1.3225v-1.3225"/><path d="m224.93 109.41c-0.9257 0.2645-1.3225-0.8596-1.9837-1.3225l0.6612-0.6612c-1.9176-5.1577-5.1577 1.1902-7.9349 1.3225l-3.9675 3.3062c4.8271 0.1323 8.3979-2.7772 13.225-2.645" fill="#fff"/><path d="m74.831 110.74 0.66124 0.6613h1.3225l-1.9837-0.6613" fill="#fff"/><path d="m52.349 110.74c0-0.7273 0.19838-1.587-0.66124-1.9837v1.9837h0.66124" fill="#fff"/><path d="m129.71 107.43c-1.3225 0.6612-2.645 1.3225-3.9674 1.9837l1.3224 1.3225 2.645-3.3062" fill="#fff"/><path d="m144.26 107.43-0.6613-0.6613c-1.7192 0.7935 0.8596 1.3887 0 2.645 0.8596-0.3967 0.6613-1.2563 0.6613-1.9837" fill="#fff"/><path d="m86.734 97.512c-2.645-1.7192-3.4385-5.6206-6.6125-3.9675l-0.66125-0.66125v1.3225c0.59512-0.19837 0.92575 0.33062 1.3225 0.66125-1.4548 6.1496-8.5301 7.0092-7.935 13.886h3.3062l10.58-11.241" fill="#fff"/><path d="m328.09 107.43c-0.9257-0.1984-2.1821 0.1984-1.9837 1.3225 0.7935-0.1323 2.0498-0.529 1.9837-1.3225"/><path d="m124.42 105.45-4.6288 2.6449c1.5209-0.8596 4.3643-0.0661 4.6288-2.6449" fill="#fff"/><path d="m208.4 98.173c-5.29-2.9095-5.8851 5.4884-10.58 3.9675v5.9512c3.5047-3.3062 8.464-6.0173 10.58-9.9187" fill="#fff"/><path d="m70.864 105.45-0.66124 1.9837h0.66124v-1.9837" fill="#fff"/><path d="m147.57 93.545c0.529-1.5209-0.8596-2.1821-1.3225-3.3062-3.3724 3.5046-8.2656 7.4721-9.2575 12.564 5.0916-0.6613 6.348-6.4802 10.58-9.2575" fill="#fff"/><path d="m290.4 98.835-2.645-1.3225c0-1.1241 0.2645-3.9675-1.3225-5.29-2.7773-3.9675-5.0255-1.6531-7.935 0.66125 0.8596-0.19837 2.1822 0.529 2.645-0.66125 1.1241 0.92574 0.7935 2.9756 0 3.9675 0.9257-0.2645 1.3225 0.85962 1.9838 1.3225 0.3967-0.33062 0.7273-0.85962 1.3224-0.66125 0.3307 0.39676 0.8597 0.72738 0.6613 1.3225-3.3063 2.3805-6.0835 0-9.2575 2.645 4.8272-2.645 9.2575-0.3306 14.548-1.9837"/><path d="m112.52 95.528c-1.587 0.06611-2.0498-2.7111-3.9675-1.9837 0.3968 1.7192 0.9919 3.9675 2.645 4.6287l-1.9837 1.3225c2.9095 0.19838 1.587-2.7111 3.3062-3.9675" fill="#fff"/><path d="m202.45 96.851c-6.9431-4.8271-15.076-10.911-21.16-17.854-1.7854 2.4466-5.4884 2.3805-7.935 1.3225-8.9268-1.4547-14.614 5.0916-23.144 4.6287-1.058 1.1902-2.5789 2.116-1.9838 3.9675 3.9675 4.0997 7.0754-1.7854 10.58-2.645 13.489-2.0499 29.558-0.92575 37.691 12.564l5.9513-1.9838" fill="#fff"/><path d="m187.24 97.512h0.99187v0.99188h-0.99187v-0.99188z"/><path d="m275.85 96.851h0.99185v0.99188h-0.99185v-0.99188z"/><path d="m67.558 93.545c-0.85962-3.1079-6.7447 0.79349-2.645-3.3062 1.5209 2.1821 3.1079-1.5209 4.6287 0.66125-0.33063 0.39675-0.85962 0.72737-0.66125 1.3225l0.66125 0.66125c0.66124-1.1241 2.7111-1.6531 1.9837-3.3062-0.59511 0.19838-0.92574-0.33062-1.3225-0.66124 0.33062-0.92575 0.46287-1.9176 1.3225-2.645 1.9837 1.1902 2.116 3.174 1.9837 5.29 1.8515 0.66125 1.7854-1.7854 2.645-2.645 0.39675 0.33062 0.72737 0.85962 1.3225 0.66124-2.116-3.5046-6.0835-5.6206-9.9187-7.2737-1.9838 0.529-4.8271-0.85962-7.2737-1.3225l3.3062 3.3062c-1.587 0.92575-2.0499 0.99187-3.9675 0.66125 0.13224 1.8515 2.1821 1.7854 3.3062 2.645l3.9675-0.66125v-1.3225c-0.85962-0.19838-2.1821 0.529-2.645-0.66125 1.9176-0.46287 3.5707-2.116 5.29 0 0.06612 2.116-2.3805 3.7691-3.9675 4.6287-0.85962-0.19837-2.1821 0.529-2.645-0.66124l-2.645 1.9837 1.9837 1.9837c0.39675-0.33063 0.72737-0.85962 1.3225-0.66125l0.66124 0.66125c-2.116 1.058-0.46287 2.0499 0 3.3062 2.4466 0.99187 2.3144-1.4547 3.3062-2.645" fill="#fff"/><path d="m126.41 90.9c4.6949-4.3642 8.6623-8.993 11.902-13.886l-1.3225-3.3062c-6.8108 5.7528-12.696 12.431-20.499 17.192-0.6612 1.1241-2.7111 1.6531-1.9837 3.3062 4.0336-0.92575 7.472-3.3062 11.902-3.3062" fill="#fff"/><path d="m108.55 89.577 8.5962-7.935c1.1903 2.3144 3.8353 2.3805 5.29 0.66125 2.3805-4.8932 6.1496-9.2574 9.2575-13.886-5.1577 2.8434-9.1252 8.464-14.548 10.58l-0.6612-0.66125-0.6612 0.66125c0.5951-0.19838 0.9257 0.33062 1.3224 0.66125-1.4547 1.8515-4.827 1.7854-7.2737 2.645-3.2401-0.06612-5.0254 3.3724-7.9349 3.9675 0.7935 1.6531 5.4883 10.249 6.6124 3.3062" fill="#fff"/><path d="m281.8 92.222h0.99188v0.99187h-0.99188v-0.99187z" fill="#fff"/><path d="m69.541 90.238h0.99187v0.99188h-0.99187v-0.99188z"/><path d="m221.63 86.271-5.29 3.9675h1.9838l3.3062-3.9675" fill="#fff"/><path d="m99.959 78.997-5.29 2.645 2.645 1.9837c0.85962-1.5209 0.7935-3.5046 2.645-4.6287" fill="#fff"/><path d="m92.685 79.659h-1.3225c0.39675 0.33062 0.72737 0.85962 1.3225 0.66124v-0.66124" fill="#fff"/><path d="m119.8 69.079-14.547 3.9675c2.3805 1.1902 4.3642-2.5127 5.9512 0.66124-1.9176 1.058-4.4303 0.66125-5.9512 2.645 6.4141 1.2564 10.514-4.2981 14.547-7.2737" fill="#fff"/><path d="m139.63 75.03c0.1984-0.59512-0.3306-0.92575-0.6612-1.3225v1.3225h0.6612" fill="#fff"/><path d="m140.96 71.062h-2.645c0.529 1.3886 1.4548 1.4547 2.645 1.9837v-1.9837" fill="#fff"/><path d="m113.84 72.385 0.6613-0.66125-0.6613 0.66125"/><path d="m136.33 63.789h-1.3225c0.1984 0.59512-0.3306 0.92574-0.6612 1.3225h-1.3225v1.9837c-0.0661-2.5789 3.3062-0.99187 3.3062-3.3062" fill="#fff"/><path d="m240.8 61.144-3.3063 5.9512c1.1242-1.9837 2.9095-3.703 3.3063-5.9512" fill="#fff"/></g></g></g></g></svg>
