<?xml version="1.0" encoding="UTF-8"?>
<!DOCTYPE svg  PUBLIC '-//W3C//DTD SVG 1.1//EN'  'http://www.w3.org/Graphics/SVG/1.1/DTD/svg11.dtd'>
<svg width="497pt" height="562pt" viewBox="0 0 497 561.85" xmlns="http://www.w3.org/2000/svg">
<g class="graph" transform="scale(1) translate(36 525.85)">
<title>G</title>
<polygon points="-36 36 -36 -525.85 461 -525.85 461 36" fill="#fff" stroke="transparent"/>
<g class="cluster">
<title>cluster_thread</title>
<polygon points="8 -8 8 -481.85 417 -481.85 417 -8" fill="#1e90ff" stroke="#000" stroke-dasharray="5,2" stroke-width="3"/>
</g>
<g class="cluster">
<title>cluster_0</title>
<path d="m40-73h252c6 0 12-6 12-12v-364.85c0-6-6-12-12-12h-252c-6 0-12 6-12 12v364.85c0 6 6 12 12 12" fill="#ffd700" stroke="#000" stroke-width="6"/>
</g>
<g class="cluster">
<title>cluster_1</title>
<path d="m65-98h202c6 0 12-6 12-12v-148.43c0-6-6-12-12-12h-202c-6 0-12 6-12 12v148.43c0 6 6 12 12 12" fill="#00ff7f" stroke="#000" stroke-width="6"/>
</g>
<g class="node">
<title>A1</title>
<ellipse cx="91" cy="-415.64" rx="21.43" ry="21.43" fill="#e0115f" stroke="#000" stroke-width="6"/>
<text x="91" y="-410.64" fill="white" font-family="Times,serif" font-size="20" text-anchor="middle">a</text>
</g>
<g class="node">
<title>B1</title>
<ellipse cx="169" cy="-415.64" rx="21.43" ry="21.43" fill="#1e90ff" stroke="#000" stroke-width="6"/>
<text x="169" y="-410.64" fill="white" font-family="Times,serif" font-size="20" text-anchor="middle">b</text>
</g>
<g class="node">
<title>label1</title>
<polygon points="396.5 -247.21 329.5 -247.21 329.5 -211.21 396.5 -211.21" fill="#ffd700" stroke="transparent" stroke-width="6"/>
<text x="363" y="-223.01" fill="white" font-family="Poppins" font-size="24" text-anchor="middle">Pool</text>
</g>
<g class="node">
<title>label2</title>
<polygon points="202.5 -64 135.5 -64 135.5 -28 202.5 -28" fill="#00ff7f" stroke="transparent" stroke-width="6"/>
<text x="169" y="-39.8" fill="white" font-family="Poppins" font-size="24" text-anchor="middle">Pool</text>
</g>
</g>
</svg>
