<?xml version="1.0" encoding="UTF-8"?>
<!DOCTYPE svg  PUBLIC '-//W3C//DTD SVG 1.1//EN'  'http://www.w3.org/Graphics/SVG/1.1/DTD/svg11.dtd'>
<svg width="491pt" height="611pt" viewBox="0 0 491 611" xmlns="http://www.w3.org/2000/svg">
<g class="graph" transform="scale(1) translate(36 575)">
<title>G</title>
<polygon points="-36 36 -36 -575 455 -575 455 36" fill="#fff" stroke="transparent"/>
<g class="cluster">
<title>cluster_thread</title>
<polygon points="8 -70 8 -531 411 -531 411 -70" fill="#1e90ff" stroke="#000" stroke-dasharray="5,2" stroke-width="3"/>
</g>
<g class="cluster">
<title>cluster_0</title>
<path d="m40-135h246c6 0 12-6 12-12v-352c0-6-6-12-12-12h-246c-6 0-12 6-12 12v352c0 6 6 12 12 12" fill="#ffd700" stroke="#000" stroke-width="6"/>
</g>
<g class="cluster">
<title>cluster_1</title>
<path d="m65-160h196c6 0 12-6 12-12v-142c0-6-6-12-12-12h-196c-6 0-12 6-12 12v142c0 6 6 12 12 12" fill="#00ff7f" stroke="#000" stroke-width="6"/>
</g>
<g class="node">
<title>A2</title>
<ellipse cx="91" cy="-288" rx="18" ry="18" fill="#e0115f" stroke="#000" stroke-width="6"/>
</g>
<g class="node">
<title>label1</title>
<polygon points="390.5 -306 323.5 -306 323.5 -270 390.5 -270" fill="#ffd700" stroke="transparent" stroke-width="6"/>
<text x="357" y="-281.8" font-family="Poppins" font-size="24" text-anchor="middle">Pool</text>
</g>
<g class="node">
<title>B2</title>
<ellipse cx="163" cy="-288" rx="18" ry="18" fill="#e0115f" stroke="#000" stroke-width="6"/>
</g>
<g class="node">
<title>label2</title>
<polygon points="196.5 -126 129.5 -126 129.5 -90 196.5 -90" fill="#00ff7f" stroke="transparent" stroke-width="6"/>
<text x="163" y="-101.8" font-family="Poppins" font-size="24" text-anchor="middle">Pool</text>
</g>
<g class="node">
<title>thread_label</title>
<polygon points="232 -36 94 -36 94 0 232 0" fill="#1e90ff" stroke="transparent" stroke-width="6"/>
<text x="163" y="-11.8" font-family="Poppins" font-size="24" text-anchor="middle">Thread #1</text>
</g>
</g>
</svg>
