<?xml version="1.0" encoding="UTF-8" standalone="no"?>
<!DOCTYPE svg PUBLIC "-//W3C//DTD SVG 1.1//EN"
 "http://www.w3.org/Graphics/SVG/1.1/DTD/svg11.dtd">
<!-- Generated by graphviz version 2.43.0 (0)
 -->
<!-- Title: mulle_objc_class Pages: 1 -->
<svg width="179pt" height="139pt"
 viewBox="0.00 0.00 178.50 139.00" xmlns="http://www.w3.org/2000/svg" xmlns:xlink="http://www.w3.org/1999/xlink">
<g id="graph0" class="graph" transform="scale(1 1) rotate(0) translate(4 135)">
<title>mulle_objc_class</title>
<polygon fill="white" stroke="transparent" points="-4,4 -4,-135 174.5,-135 174.5,4 -4,4"/>
<!-- 0x642b183dcc60 -->
<g id="node1" class="node">
<title>0x642b183dcc60</title>
<polygon fill="none" stroke="black" points="94.5,-131 40.5,-131 40.5,-95 94.5,-95 94.5,-131"/>
<polygon fill="blue" stroke="transparent" points="61.5,-104 61.5,-121 73.5,-121 73.5,-104 61.5,-104"/>
<polygon fill="none" stroke="black" points="61.5,-104 61.5,-121 73.5,-121 73.5,-104 61.5,-104"/>
<text text-anchor="start" x="62.5" y="-108.8" font-family="Times,serif" font-size="14.00" fill="white">A</text>
<polygon fill="none" stroke="black" points="60.5,-103.5 60.5,-122.5 74.5,-122.5 74.5,-103.5 60.5,-103.5"/>
</g>
<!-- 0x642b0c9c12b0 -->
<g id="node2" class="node">
<title>0x642b0c9c12b0</title>
<polygon fill="black" stroke="transparent" points="9.5,-22 9.5,-39 126.5,-39 126.5,-22 9.5,-22"/>
<polygon fill="none" stroke="black" points="9.5,-22 9.5,-39 126.5,-39 126.5,-22 9.5,-22"/>
<text text-anchor="start" x="29.5" y="-26.8" font-family="Times,serif" font-size="14.00" fill="white">methodlist</text>
<polygon fill="none" stroke="black" points="9.5,-5 9.5,-22 126.5,-22 126.5,-5 9.5,-5"/>
<text text-anchor="start" x="10.5" y="-9.8" font-family="Times,serif" font-size="14.00">instanceMethod</text>
<polygon fill="none" stroke="black" points="8,-4 8,-40 127,-40 127,-4 8,-4"/>
</g>
<!-- 0x642b183dcc60&#45;&gt;0x642b0c9c12b0 -->
<g id="edge1" class="edge">
<title>0x642b183dcc60&#45;&gt;0x642b0c9c12b0</title>
<path fill="none" stroke="black" d="M67.5,-94.84C67.5,-83.44 67.5,-68.13 67.5,-54.58"/>
<polygon fill="black" stroke="black" points="71,-54.19 67.5,-44.19 64,-54.19 71,-54.19"/>
<text text-anchor="middle" x="119" y="-65.8" font-family="Times,serif" font-size="14.00">methodlist #0</text>
</g>
</g>
</svg>
