<?xml version="1.0" encoding="UTF-8" standalone="no"?>
<!DOCTYPE svg PUBLIC "-//W3C//DTD SVG 1.1//EN"
 "http://www.w3.org/Graphics/SVG/1.1/DTD/svg11.dtd">
<!-- Generated by graphviz version 2.43.0 (0)
 -->
<!-- Title: mulle_objc_class Pages: 1 -->
<svg width="562pt" height="251pt"
 viewBox="0.00 0.00 562.00 251.00" xmlns="http://www.w3.org/2000/svg" xmlns:xlink="http://www.w3.org/1999/xlink">
<g id="graph0" class="graph" transform="scale(1 1) rotate(0) translate(4 247)">
<title>mulle_objc_class</title>
<polygon fill="white" stroke="transparent" points="-4,4 -4,-247 558,-247 558,4 -4,4"/>
<!-- 0x642b183ddbb0 -->
<g id="node1" class="node">
<title>0x642b183ddbb0</title>
<polygon fill="none" stroke="black" points="283.5,-243 229.5,-243 229.5,-207 283.5,-207 283.5,-243"/>
<polygon fill="blue" stroke="transparent" points="249.5,-216 249.5,-233 263.5,-233 263.5,-216 249.5,-216"/>
<polygon fill="none" stroke="black" points="249.5,-216 249.5,-233 263.5,-233 263.5,-216 249.5,-216"/>
<text text-anchor="start" x="251" y="-220.8" font-family="Times,serif" font-size="14.00" fill="white">B</text>
<polygon fill="none" stroke="black" points="248.5,-215.5 248.5,-234.5 264.5,-234.5 264.5,-215.5 248.5,-215.5"/>
</g>
<!-- 0x642b183dcc60 -->
<g id="node2" class="node">
<title>0x642b183dcc60</title>
<polygon fill="none" stroke="black" points="94.5,-143.5 40.5,-143.5 40.5,-107.5 94.5,-107.5 94.5,-143.5"/>
<polygon fill="blue" stroke="transparent" points="61.5,-116.5 61.5,-133.5 73.5,-133.5 73.5,-116.5 61.5,-116.5"/>
<polygon fill="none" stroke="black" points="61.5,-116.5 61.5,-133.5 73.5,-133.5 73.5,-116.5 61.5,-116.5"/>
<text text-anchor="start" x="62.5" y="-121.3" font-family="Times,serif" font-size="14.00" fill="white">A</text>
<polygon fill="none" stroke="black" points="60.5,-116 60.5,-135 74.5,-135 74.5,-116 60.5,-116"/>
</g>
<!-- 0x642b183ddbb0&#45;&gt;0x642b183dcc60 -->
<g id="edge1" class="edge">
<title>0x642b183ddbb0&#45;&gt;0x642b183dcc60</title>
<path fill="none" stroke="black" stroke-width="3" d="M229.37,-216.66C208.4,-210.52 178.92,-200.87 154.5,-189 130.22,-177.2 125.31,-171.91 103.5,-156 100.89,-154.09 98.22,-152.06 95.56,-150"/>
<polygon fill="black" stroke="black" stroke-width="3" points="97.74,-147.26 87.75,-143.75 93.38,-152.73 97.74,-147.26"/>
<text text-anchor="middle" x="175" y="-177.8" font-family="Times,serif" font-size="14.00">super</text>
</g>
<!-- 0x642b0c9c14d0 -->
<g id="node3" class="node">
<title>0x642b0c9c14d0</title>
<polygon fill="black" stroke="transparent" points="122.5,-125.5 122.5,-142.5 239.5,-142.5 239.5,-125.5 122.5,-125.5"/>
<polygon fill="none" stroke="black" points="122.5,-125.5 122.5,-142.5 239.5,-142.5 239.5,-125.5 122.5,-125.5"/>
<text text-anchor="start" x="142.5" y="-130.3" font-family="Times,serif" font-size="14.00" fill="white">methodlist</text>
<polygon fill="none" stroke="black" points="122.5,-108.5 122.5,-125.5 239.5,-125.5 239.5,-108.5 122.5,-108.5"/>
<text text-anchor="start" x="123.5" y="-113.3" font-family="Times,serif" font-size="14.00">instanceMethod</text>
<polygon fill="none" stroke="black" points="121,-107.5 121,-143.5 240,-143.5 240,-107.5 121,-107.5"/>
</g>
<!-- 0x642b183ddbb0&#45;&gt;0x642b0c9c14d0 -->
<g id="edge2" class="edge">
<title>0x642b183ddbb0&#45;&gt;0x642b0c9c14d0</title>
<path fill="none" stroke="black" d="M229.5,-208.03C222.01,-202.68 214.34,-196.21 208.5,-189 200.94,-179.66 194.98,-167.96 190.54,-157.21"/>
<polygon fill="black" stroke="black" points="193.74,-155.78 186.89,-147.7 187.21,-158.29 193.74,-155.78"/>
<text text-anchor="middle" x="260" y="-177.8" font-family="Times,serif" font-size="14.00">methodlist #0</text>
</g>
<!-- 0x642b0c9c1570 -->
<g id="node4" class="node">
<title>0x642b0c9c1570</title>
<polygon fill="black" stroke="transparent" points="275.5,-133.5 275.5,-150.5 392.5,-150.5 392.5,-133.5 275.5,-133.5"/>
<polygon fill="none" stroke="black" points="275.5,-133.5 275.5,-150.5 392.5,-150.5 392.5,-133.5 275.5,-133.5"/>
<text text-anchor="start" x="295.5" y="-138.3" font-family="Times,serif" font-size="14.00" fill="white">methodlist</text>
<polygon fill="none" stroke="black" points="275.5,-116.5 275.5,-133.5 360.5,-133.5 360.5,-116.5 275.5,-116.5"/>
<text text-anchor="start" x="286.5" y="-121.3" font-family="Times,serif" font-size="14.00">category</text>
<polygon fill="none" stroke="black" points="360.5,-116.5 360.5,-133.5 392.5,-133.5 392.5,-116.5 360.5,-116.5"/>
<text text-anchor="start" x="371.5" y="-121.3" font-family="Times,serif" font-size="14.00">P</text>
<polygon fill="none" stroke="black" points="275.5,-99.5 275.5,-116.5 392.5,-116.5 392.5,-99.5 275.5,-99.5"/>
<text text-anchor="start" x="276.5" y="-104.3" font-family="Times,serif" font-size="14.00">instanceMethod</text>
<polygon fill="none" stroke="black" points="274,-99 274,-152 393,-152 393,-99 274,-99"/>
</g>
<!-- 0x642b183ddbb0&#45;&gt;0x642b0c9c1570 -->
<g id="edge3" class="edge">
<title>0x642b183ddbb0&#45;&gt;0x642b0c9c1570</title>
<path fill="none" stroke="black" d="M283.62,-211.55C293.53,-205.87 304.11,-198.31 311.5,-189 316.9,-182.2 321.03,-173.98 324.16,-165.77"/>
<polygon fill="black" stroke="black" points="327.51,-166.8 327.41,-156.21 320.88,-164.55 327.51,-166.8"/>
<text text-anchor="middle" x="372" y="-177.8" font-family="Times,serif" font-size="14.00">methodlist #1</text>
</g>
<!-- 0x642b0c9c1638 -->
<g id="node5" class="node">
<title>0x642b0c9c1638</title>
<polygon fill="black" stroke="transparent" points="428.5,-133.5 428.5,-150.5 545.5,-150.5 545.5,-133.5 428.5,-133.5"/>
<polygon fill="none" stroke="black" points="428.5,-133.5 428.5,-150.5 545.5,-150.5 545.5,-133.5 428.5,-133.5"/>
<text text-anchor="start" x="448.5" y="-138.3" font-family="Times,serif" font-size="14.00" fill="white">methodlist</text>
<polygon fill="none" stroke="black" points="428.5,-116.5 428.5,-133.5 512.5,-133.5 512.5,-116.5 428.5,-116.5"/>
<text text-anchor="start" x="439" y="-121.3" font-family="Times,serif" font-size="14.00">category</text>
<polygon fill="none" stroke="black" points="512.5,-116.5 512.5,-133.5 545.5,-133.5 545.5,-116.5 512.5,-116.5"/>
<text text-anchor="start" x="523" y="-121.3" font-family="Times,serif" font-size="14.00">Q</text>
<polygon fill="none" stroke="black" points="428.5,-99.5 428.5,-116.5 545.5,-116.5 545.5,-99.5 428.5,-99.5"/>
<text text-anchor="start" x="429.5" y="-104.3" font-family="Times,serif" font-size="14.00">instanceMethod</text>
<polygon fill="none" stroke="black" points="427,-99 427,-152 546,-152 546,-99 427,-99"/>
</g>
<!-- 0x642b183ddbb0&#45;&gt;0x642b0c9c1638 -->
<g id="edge4" class="edge">
<title>0x642b183ddbb0&#45;&gt;0x642b0c9c1638</title>
<path fill="none" stroke="black" d="M283.71,-223.42C318.99,-221.6 381.43,-214.65 427.5,-189 438.92,-182.64 449.43,-173.32 458.32,-163.8"/>
<polygon fill="black" stroke="black" points="461.06,-165.99 465.09,-156.18 455.83,-161.34 461.06,-165.99"/>
<text text-anchor="middle" x="497" y="-177.8" font-family="Times,serif" font-size="14.00">methodlist #2</text>
</g>
<!-- 0x642b0c9c12b0 -->
<g id="node6" class="node">
<title>0x642b0c9c12b0</title>
<polygon fill="black" stroke="transparent" points="9.5,-22 9.5,-39 126.5,-39 126.5,-22 9.5,-22"/>
<polygon fill="none" stroke="black" points="9.5,-22 9.5,-39 126.5,-39 126.5,-22 9.5,-22"/>
<text text-anchor="start" x="29.5" y="-26.8" font-family="Times,serif" font-size="14.00" fill="white">methodlist</text>
<polygon fill="none" stroke="black" points="9.5,-5 9.5,-22 126.5,-22 126.5,-5 9.5,-5"/>
<text text-anchor="start" x="10.5" y="-9.8" font-family="Times,serif" font-size="14.00">instanceMethod</text>
<polygon fill="none" stroke="black" points="8,-4 8,-40 127,-40 127,-4 8,-4"/>
</g>
<!-- 0x642b183dcc60&#45;&gt;0x642b0c9c12b0 -->
<g id="edge5" class="edge">
<title>0x642b183dcc60&#45;&gt;0x642b0c9c12b0</title>
<path fill="none" stroke="black" d="M67.5,-107.28C67.5,-92.86 67.5,-71.89 67.5,-54.47"/>
<polygon fill="black" stroke="black" points="71,-54.18 67.5,-44.18 64,-54.18 71,-54.18"/>
<text text-anchor="middle" x="119" y="-65.8" font-family="Times,serif" font-size="14.00">methodlist #0</text>
</g>
</g>
</svg>
