<?xml version="1.0" encoding="UTF-8" standalone="no"?>
<!DOCTYPE svg PUBLIC "-//W3C//DTD SVG 1.1//EN"
 "http://www.w3.org/Graphics/SVG/1.1/DTD/svg11.dtd">
<!-- Generated by graphviz version 2.43.0 (0)
 -->
<!-- Title: mulle_objc_class Pages: 1 -->
<svg width="1028pt" height="346pt"
 viewBox="0.00 0.00 1027.50 346.00" xmlns="http://www.w3.org/2000/svg" xmlns:xlink="http://www.w3.org/1999/xlink">
<g id="graph0" class="graph" transform="scale(1 1) rotate(0) translate(4 342)">
<title>mulle_objc_class</title>
<polygon fill="white" stroke="transparent" points="-4,4 -4,-342 1023.5,-342 1023.5,4 -4,4"/>
<!-- 0x642b183de0e0 -->
<g id="node1" class="node">
<title>0x642b183de0e0</title>
<polygon fill="none" stroke="black" points="739.5,-338 685.5,-338 685.5,-302 739.5,-302 739.5,-338"/>
<polygon fill="blue" stroke="transparent" points="705.5,-311 705.5,-328 719.5,-328 719.5,-311 705.5,-311"/>
<polygon fill="none" stroke="black" points="705.5,-311 705.5,-328 719.5,-328 719.5,-311 705.5,-311"/>
<text text-anchor="start" x="707" y="-315.8" font-family="Times,serif" font-size="14.00" fill="white">C</text>
<polygon fill="none" stroke="black" points="704.5,-310.5 704.5,-329.5 720.5,-329.5 720.5,-310.5 704.5,-310.5"/>
</g>
<!-- 0x642b183ddbb0 -->
<g id="node2" class="node">
<title>0x642b183ddbb0</title>
<polygon fill="none" stroke="black" points="360.5,-247 306.5,-247 306.5,-211 360.5,-211 360.5,-247"/>
<polygon fill="blue" stroke="transparent" points="326.5,-220 326.5,-237 340.5,-237 340.5,-220 326.5,-220"/>
<polygon fill="none" stroke="black" points="326.5,-220 326.5,-237 340.5,-237 340.5,-220 326.5,-220"/>
<text text-anchor="start" x="328" y="-224.8" font-family="Times,serif" font-size="14.00" fill="white">B</text>
<polygon fill="none" stroke="black" points="325.5,-219.5 325.5,-238.5 341.5,-238.5 341.5,-219.5 325.5,-219.5"/>
</g>
<!-- 0x642b183de0e0&#45;&gt;0x642b183ddbb0 -->
<g id="edge1" class="edge">
<title>0x642b183de0e0&#45;&gt;0x642b183ddbb0</title>
<path fill="none" stroke="black" stroke-width="3" d="M685.24,-312.6C618.46,-296.92 446.57,-256.55 370.58,-238.71"/>
<polygon fill="black" stroke="black" stroke-width="3" points="371.05,-235.22 360.51,-236.34 369.44,-242.04 371.05,-235.22"/>
<text text-anchor="middle" x="578" y="-272.8" font-family="Times,serif" font-size="14.00">super</text>
</g>
<!-- 0x642b183dd130 -->
<g id="node3" class="node">
<title>0x642b183dd130</title>
<polygon fill="none" stroke="black" points="666.5,-247 612.5,-247 612.5,-211 666.5,-211 666.5,-247"/>
<polygon fill="blue" stroke="transparent" points="633.5,-220 633.5,-237 645.5,-237 645.5,-220 633.5,-220"/>
<polygon fill="none" stroke="black" points="633.5,-220 633.5,-237 645.5,-237 645.5,-220 633.5,-220"/>
<text text-anchor="start" x="634.5" y="-224.8" font-family="Times,serif" font-size="14.00" fill="white">X</text>
<polygon fill="none" stroke="black" points="632.5,-219.5 632.5,-238.5 646.5,-238.5 646.5,-219.5 632.5,-219.5"/>
</g>
<!-- 0x642b183de0e0&#45;&gt;0x642b183dd130 -->
<g id="edge2" class="edge">
<title>0x642b183de0e0&#45;&gt;0x642b183dd130</title>
<path fill="none" stroke="black" d="M685.5,-313.31C669.5,-308.42 650.45,-299.58 640.5,-284 635.57,-276.28 634.25,-266.58 634.52,-257.54"/>
<polygon fill="black" stroke="black" points="638.02,-257.66 635.43,-247.39 631.05,-257.04 638.02,-257.66"/>
<text text-anchor="middle" x="702.5" y="-272.8" font-family="Times,serif" font-size="14.00">protocol class #0</text>
</g>
<!-- 0x642b183dd660 -->
<g id="node5" class="node">
<title>0x642b183dd660</title>
<polygon fill="none" stroke="black" points="816.5,-247 762.5,-247 762.5,-211 816.5,-211 816.5,-247"/>
<polygon fill="blue" stroke="transparent" points="783.5,-220 783.5,-237 795.5,-237 795.5,-220 783.5,-220"/>
<polygon fill="none" stroke="black" points="783.5,-220 783.5,-237 795.5,-237 795.5,-220 783.5,-220"/>
<text text-anchor="start" x="784.5" y="-224.8" font-family="Times,serif" font-size="14.00" fill="white">Y</text>
<polygon fill="none" stroke="black" points="782.5,-219.5 782.5,-238.5 796.5,-238.5 796.5,-219.5 782.5,-219.5"/>
</g>
<!-- 0x642b183de0e0&#45;&gt;0x642b183dd660 -->
<g id="edge4" class="edge">
<title>0x642b183de0e0&#45;&gt;0x642b183dd660</title>
<path fill="none" stroke="black" d="M739.57,-304.73C748.34,-299.15 757.58,-292.12 764.5,-284 771.19,-276.15 776.47,-266.2 780.42,-256.99"/>
<polygon fill="black" stroke="black" points="783.78,-258.01 784.18,-247.42 777.26,-255.45 783.78,-258.01"/>
<text text-anchor="middle" x="836.5" y="-272.8" font-family="Times,serif" font-size="14.00">protocol class #1</text>
</g>
<!-- 0x642b0c9c1700 -->
<g id="node7" class="node">
<title>0x642b0c9c1700</title>
<polygon fill="black" stroke="transparent" points="875.5,-229 875.5,-246 992.5,-246 992.5,-229 875.5,-229"/>
<polygon fill="none" stroke="black" points="875.5,-229 875.5,-246 992.5,-246 992.5,-229 875.5,-229"/>
<text text-anchor="start" x="895.5" y="-233.8" font-family="Times,serif" font-size="14.00" fill="white">methodlist</text>
<polygon fill="none" stroke="black" points="875.5,-212 875.5,-229 992.5,-229 992.5,-212 875.5,-212"/>
<text text-anchor="start" x="876.5" y="-216.8" font-family="Times,serif" font-size="14.00">instanceMethod</text>
<polygon fill="none" stroke="black" points="874,-211 874,-247 993,-247 993,-211 874,-211"/>
</g>
<!-- 0x642b183de0e0&#45;&gt;0x642b0c9c1700 -->
<g id="edge6" class="edge">
<title>0x642b183de0e0&#45;&gt;0x642b0c9c1700</title>
<path fill="none" stroke="black" d="M739.78,-316.79C785.88,-312.61 876.7,-302.26 902.5,-284 910.88,-278.07 917.31,-269.1 922.09,-260.17"/>
<polygon fill="black" stroke="black" points="925.31,-261.54 926.47,-251 919,-258.51 925.31,-261.54"/>
<text text-anchor="middle" x="968" y="-272.8" font-family="Times,serif" font-size="14.00">methodlist #0</text>
</g>
<!-- 0x642b183dcc60 -->
<g id="node8" class="node">
<title>0x642b183dcc60</title>
<polygon fill="none" stroke="black" points="94.5,-143.5 40.5,-143.5 40.5,-107.5 94.5,-107.5 94.5,-143.5"/>
<polygon fill="blue" stroke="transparent" points="61.5,-116.5 61.5,-133.5 73.5,-133.5 73.5,-116.5 61.5,-116.5"/>
<polygon fill="none" stroke="black" points="61.5,-116.5 61.5,-133.5 73.5,-133.5 73.5,-116.5 61.5,-116.5"/>
<text text-anchor="start" x="62.5" y="-121.3" font-family="Times,serif" font-size="14.00" fill="white">A</text>
<polygon fill="none" stroke="black" points="60.5,-116 60.5,-135 74.5,-135 74.5,-116 60.5,-116"/>
</g>
<!-- 0x642b183ddbb0&#45;&gt;0x642b183dcc60 -->
<g id="edge7" class="edge">
<title>0x642b183ddbb0&#45;&gt;0x642b183dcc60</title>
<path fill="none" stroke="black" stroke-width="3" d="M306.28,-223.82C272.7,-218.18 214.22,-206.74 166.5,-189 136.87,-177.98 129.86,-173.44 103.5,-156 100.74,-154.17 97.94,-152.17 95.18,-150.1"/>
<polygon fill="black" stroke="black" stroke-width="3" points="97.16,-147.21 87.13,-143.79 92.84,-152.72 97.16,-147.21"/>
<text text-anchor="middle" x="187" y="-177.8" font-family="Times,serif" font-size="14.00">super</text>
</g>
<!-- 0x642b0c9c14d0 -->
<g id="node9" class="node">
<title>0x642b0c9c14d0</title>
<polygon fill="black" stroke="transparent" points="122.5,-125.5 122.5,-142.5 239.5,-142.5 239.5,-125.5 122.5,-125.5"/>
<polygon fill="none" stroke="black" points="122.5,-125.5 122.5,-142.5 239.5,-142.5 239.5,-125.5 122.5,-125.5"/>
<text text-anchor="start" x="142.5" y="-130.3" font-family="Times,serif" font-size="14.00" fill="white">methodlist</text>
<polygon fill="none" stroke="black" points="122.5,-108.5 122.5,-125.5 239.5,-125.5 239.5,-108.5 122.5,-108.5"/>
<text text-anchor="start" x="123.5" y="-113.3" font-family="Times,serif" font-size="14.00">instanceMethod</text>
<polygon fill="none" stroke="black" points="121,-107.5 121,-143.5 240,-143.5 240,-107.5 121,-107.5"/>
</g>
<!-- 0x642b183ddbb0&#45;&gt;0x642b0c9c14d0 -->
<g id="edge8" class="edge">
<title>0x642b183ddbb0&#45;&gt;0x642b0c9c14d0</title>
<path fill="none" stroke="black" d="M306.32,-222.73C283.33,-217.25 250.39,-206.9 226.5,-189 214.81,-180.25 204.78,-167.7 197.09,-156.15"/>
<polygon fill="black" stroke="black" points="199.98,-154.17 191.68,-147.58 194.06,-157.91 199.98,-154.17"/>
<text text-anchor="middle" x="278" y="-177.8" font-family="Times,serif" font-size="14.00">methodlist #0</text>
</g>
<!-- 0x642b0c9c1570 -->
<g id="node10" class="node">
<title>0x642b0c9c1570</title>
<polygon fill="black" stroke="transparent" points="275.5,-133.5 275.5,-150.5 392.5,-150.5 392.5,-133.5 275.5,-133.5"/>
<polygon fill="none" stroke="black" points="275.5,-133.5 275.5,-150.5 392.5,-150.5 392.5,-133.5 275.5,-133.5"/>
<text text-anchor="start" x="295.5" y="-138.3" font-family="Times,serif" font-size="14.00" fill="white">methodlist</text>
<polygon fill="none" stroke="black" points="275.5,-116.5 275.5,-133.5 360.5,-133.5 360.5,-116.5 275.5,-116.5"/>
<text text-anchor="start" x="286.5" y="-121.3" font-family="Times,serif" font-size="14.00">category</text>
<polygon fill="none" stroke="black" points="360.5,-116.5 360.5,-133.5 392.5,-133.5 392.5,-116.5 360.5,-116.5"/>
<text text-anchor="start" x="371.5" y="-121.3" font-family="Times,serif" font-size="14.00">P</text>
<polygon fill="none" stroke="black" points="275.5,-99.5 275.5,-116.5 392.5,-116.5 392.5,-99.5 275.5,-99.5"/>
<text text-anchor="start" x="276.5" y="-104.3" font-family="Times,serif" font-size="14.00">instanceMethod</text>
<polygon fill="none" stroke="black" points="274,-99 274,-152 393,-152 393,-99 274,-99"/>
</g>
<!-- 0x642b183ddbb0&#45;&gt;0x642b0c9c1570 -->
<g id="edge9" class="edge">
<title>0x642b183ddbb0&#45;&gt;0x642b0c9c1570</title>
<path fill="none" stroke="black" d="M333.5,-210.78C333.5,-198.65 333.5,-181.89 333.5,-166.51"/>
<polygon fill="black" stroke="black" points="337,-166.16 333.5,-156.16 330,-166.16 337,-166.16"/>
<text text-anchor="middle" x="385" y="-177.8" font-family="Times,serif" font-size="14.00">methodlist #1</text>
</g>
<!-- 0x642b0c9c1638 -->
<g id="node11" class="node">
<title>0x642b0c9c1638</title>
<polygon fill="black" stroke="transparent" points="428.5,-133.5 428.5,-150.5 545.5,-150.5 545.5,-133.5 428.5,-133.5"/>
<polygon fill="none" stroke="black" points="428.5,-133.5 428.5,-150.5 545.5,-150.5 545.5,-133.5 428.5,-133.5"/>
<text text-anchor="start" x="448.5" y="-138.3" font-family="Times,serif" font-size="14.00" fill="white">methodlist</text>
<polygon fill="none" stroke="black" points="428.5,-116.5 428.5,-133.5 512.5,-133.5 512.5,-116.5 428.5,-116.5"/>
<text text-anchor="start" x="439" y="-121.3" font-family="Times,serif" font-size="14.00">category</text>
<polygon fill="none" stroke="black" points="512.5,-116.5 512.5,-133.5 545.5,-133.5 545.5,-116.5 512.5,-116.5"/>
<text text-anchor="start" x="523" y="-121.3" font-family="Times,serif" font-size="14.00">Q</text>
<polygon fill="none" stroke="black" points="428.5,-99.5 428.5,-116.5 545.5,-116.5 545.5,-99.5 428.5,-99.5"/>
<text text-anchor="start" x="429.5" y="-104.3" font-family="Times,serif" font-size="14.00">instanceMethod</text>
<polygon fill="none" stroke="black" points="427,-99 427,-152 546,-152 546,-99 427,-99"/>
</g>
<!-- 0x642b183ddbb0&#45;&gt;0x642b0c9c1638 -->
<g id="edge10" class="edge">
<title>0x642b183ddbb0&#45;&gt;0x642b0c9c1638</title>
<path fill="none" stroke="black" d="M360.68,-222.73C383.67,-217.25 416.61,-206.9 440.5,-189 449.42,-182.32 457.37,-173.44 464.06,-164.47"/>
<polygon fill="black" stroke="black" points="466.93,-166.46 469.83,-156.27 461.21,-162.43 466.93,-166.46"/>
<text text-anchor="middle" x="508" y="-177.8" font-family="Times,serif" font-size="14.00">methodlist #2</text>
</g>
<!-- 0x642b0c9c1370 -->
<g id="node4" class="node">
<title>0x642b0c9c1370</title>
<polygon fill="black" stroke="transparent" points="581.5,-125.5 581.5,-142.5 698.5,-142.5 698.5,-125.5 581.5,-125.5"/>
<polygon fill="none" stroke="black" points="581.5,-125.5 581.5,-142.5 698.5,-142.5 698.5,-125.5 581.5,-125.5"/>
<text text-anchor="start" x="601.5" y="-130.3" font-family="Times,serif" font-size="14.00" fill="white">methodlist</text>
<polygon fill="none" stroke="black" points="581.5,-108.5 581.5,-125.5 698.5,-125.5 698.5,-108.5 581.5,-108.5"/>
<text text-anchor="start" x="582.5" y="-113.3" font-family="Times,serif" font-size="14.00">instanceMethod</text>
<polygon fill="none" stroke="black" points="580,-107.5 580,-143.5 699,-143.5 699,-107.5 580,-107.5"/>
</g>
<!-- 0x642b183dd130&#45;&gt;0x642b0c9c1370 -->
<g id="edge3" class="edge">
<title>0x642b183dd130&#45;&gt;0x642b0c9c1370</title>
<path fill="none" stroke="black" d="M639.5,-210.78C639.5,-196.36 639.5,-175.39 639.5,-157.97"/>
<polygon fill="black" stroke="black" points="643,-157.68 639.5,-147.68 636,-157.68 643,-157.68"/>
<text text-anchor="middle" x="691" y="-177.8" font-family="Times,serif" font-size="14.00">methodlist #0</text>
</g>
<!-- 0x642b0c9c1430 -->
<g id="node6" class="node">
<title>0x642b0c9c1430</title>
<polygon fill="black" stroke="transparent" points="734.5,-125.5 734.5,-142.5 851.5,-142.5 851.5,-125.5 734.5,-125.5"/>
<polygon fill="none" stroke="black" points="734.5,-125.5 734.5,-142.5 851.5,-142.5 851.5,-125.5 734.5,-125.5"/>
<text text-anchor="start" x="754.5" y="-130.3" font-family="Times,serif" font-size="14.00" fill="white">methodlist</text>
<polygon fill="none" stroke="black" points="734.5,-108.5 734.5,-125.5 851.5,-125.5 851.5,-108.5 734.5,-108.5"/>
<text text-anchor="start" x="735.5" y="-113.3" font-family="Times,serif" font-size="14.00">instanceMethod</text>
<polygon fill="none" stroke="black" points="733,-107.5 733,-143.5 852,-143.5 852,-107.5 733,-107.5"/>
</g>
<!-- 0x642b183dd660&#45;&gt;0x642b0c9c1430 -->
<g id="edge5" class="edge">
<title>0x642b183dd660&#45;&gt;0x642b0c9c1430</title>
<path fill="none" stroke="black" d="M790.01,-210.78C790.44,-196.36 791.06,-175.39 791.57,-157.97"/>
<polygon fill="black" stroke="black" points="795.08,-157.78 791.87,-147.68 788.08,-157.57 795.08,-157.78"/>
<text text-anchor="middle" x="843" y="-177.8" font-family="Times,serif" font-size="14.00">methodlist #0</text>
</g>
<!-- 0x642b0c9c12b0 -->
<g id="node12" class="node">
<title>0x642b0c9c12b0</title>
<polygon fill="black" stroke="transparent" points="9.5,-22 9.5,-39 126.5,-39 126.5,-22 9.5,-22"/>
<polygon fill="none" stroke="black" points="9.5,-22 9.5,-39 126.5,-39 126.5,-22 9.5,-22"/>
<text text-anchor="start" x="29.5" y="-26.8" font-family="Times,serif" font-size="14.00" fill="white">methodlist</text>
<polygon fill="none" stroke="black" points="9.5,-5 9.5,-22 126.5,-22 126.5,-5 9.5,-5"/>
<text text-anchor="start" x="10.5" y="-9.8" font-family="Times,serif" font-size="14.00">instanceMethod</text>
<polygon fill="none" stroke="black" points="8,-4 8,-40 127,-40 127,-4 8,-4"/>
</g>
<!-- 0x642b183dcc60&#45;&gt;0x642b0c9c12b0 -->
<g id="edge11" class="edge">
<title>0x642b183dcc60&#45;&gt;0x642b0c9c12b0</title>
<path fill="none" stroke="black" d="M67.5,-107.28C67.5,-92.86 67.5,-71.89 67.5,-54.47"/>
<polygon fill="black" stroke="black" points="71,-54.18 67.5,-44.18 64,-54.18 71,-54.18"/>
<text text-anchor="middle" x="119" y="-65.8" font-family="Times,serif" font-size="14.00">methodlist #0</text>
</g>
</g>
</svg>
