<?xml version="1.0" encoding="UTF-8"?>
<!DOCTYPE svg  PUBLIC '-//W3C//DTD SVG 1.1//EN'  'http://www.w3.org/Graphics/SVG/1.1/DTD/svg11.dtd'>
<svg width="1644pt" height="526pt" viewBox="0 0 1644 526" xmlns="http://www.w3.org/2000/svg" xmlns:xlink="http://www.w3.org/1999/xlink">
<g class="graph" transform="scale(1) translate(4 522)">
<title>mulle_objc_class</title>
<polygon points="-4 4 -4 -522 1640 -522 1640 4" fill="#fff" stroke="transparent"/>
<g class="node">
<title>0x6150a433fc40</title>
<a xlink:href="file:///./CGPoint.dot" xlink:title="&lt;TABLE&gt;">
<polygon points="1348.5 -518 967.5 -518 967.5 -389 1348.5 -389" fill="none" stroke="#000"/>
<polygon points="977 -495.5 977 -512.5 1340 -512.5 1340 -495.5" fill="blue" stroke="transparent"/>
<polygon points="977 -495.5 977 -512.5 1340 -512.5 1340 -495.5" fill="none" stroke="#000"/>
<text x="1129" y="-500.3" fill="white" font-family="Times,serif" font-size="14">CGPoint</text>
<polygon points="977 -478.5 977 -495.5 1112 -495.5 1112 -478.5" fill="none" stroke="#000"/>
<text x="996" y="-483.3" font-family="Times,serif" font-size="14">allocationsize</text>
<polygon points="1112 -478.5 1112 -495.5 1340 -495.5 1340 -478.5" fill="none" stroke="#000"/>
<text x="1216.5" y="-483.3" font-family="Times,serif" font-size="14">40</text>
<polygon points="977 -461.5 977 -478.5 1112 -478.5 1112 -461.5" fill="none" stroke="#000"/>
<text x="1003.5" y="-466.3" font-family="Times,serif" font-size="14">inheritance</text>
<polygon points="1112 -461.5 1112 -478.5 1340 -478.5 1340 -461.5" fill="none" stroke="#000"/>
<text x="1113" y="-466.3" font-family="Times,serif" font-size="14">superclass categories protocols</text>
<polygon points="977 -444.5 977 -461.5 1112 -461.5 1112 -444.5" fill="none" stroke="#000"/>
<text x="1026" y="-449.3" font-family="Times,serif" font-size="14">state</text>
<polygon points="1112 -444.5 1112 -461.5 1340 -461.5 1340 -444.5" fill="none" stroke="#000"/>
<text x="1212.5" y="-449.3" font-family="Times,serif" font-size="14">0x0</text>
<polygon points="977 -427.5 977 -444.5 1112 -444.5 1112 -427.5" fill="none" stroke="#000"/>
<text x="1013.5" y="-432.3" font-family="Times,serif" font-size="14">ivarhash</text>
<polygon points="1112 -427.5 1112 -444.5 1340 -444.5 1340 -427.5" fill="none" stroke="#000"/>
<text x="1182.5" y="-432.3" font-family="Times,serif" font-size="14">0xa8e101c2</text>
<polygon points="977 -410.5 977 -427.5 1112 -427.5 1112 -410.5" fill="none" stroke="#000"/>
<text x="978" y="-415.3" font-family="Times,serif" font-size="14">allocatedInstances</text>
<polygon points="1112 -410.5 1112 -427.5 1340 -427.5 1340 -410.5" fill="none" stroke="#000"/>
<text x="1221" y="-415.3" font-family="Times,serif" font-size="14">0</text>
<polygon points="977 -393.5 977 -410.5 1112 -410.5 1112 -393.5" fill="none" stroke="#000"/>
<text x="1013.5" y="-398.3" font-family="Times,serif" font-size="14">preloads</text>
<polygon points="1112 -393.5 1112 -410.5 1340 -410.5 1340 -393.5" fill="none" stroke="#000"/>
<text x="1221" y="-398.3" font-family="Times,serif" font-size="14">0</text>
<polygon points="975.5 -393 975.5 -514 1340.5 -514 1340.5 -393" fill="none" stroke="#000"/>
</a>
</g>
<g class="node">
<title>0x6150a433fe20</title>
<a xlink:href="file:///./CGPoint.dot" xlink:title="&lt;TABLE&gt;">
<polygon points="1450.5 -300 1105.5 -300 1105.5 -296 1101.5 -296 1101.5 -292 1105.5 -292 1105.5 -213 1101.5 -213 1101.5 -209 1105.5 -209 1105.5 -205 1450.5 -205" fill="none" stroke="#000"/>
<polyline points="1105.5 -296 1109.5 -296 1109.5 -292 1105.5 -292" fill="none" stroke="#000"/>
<polyline points="1105.5 -213 1109.5 -213 1109.5 -209 1105.5 -209" fill="none" stroke="#000"/>
<polygon points="1115 -277.5 1115 -294.5 1442 -294.5 1442 -277.5" fill="#daa520" stroke="transparent"/>
<polygon points="1115 -277.5 1115 -294.5 1442 -294.5 1442 -277.5" fill="none" stroke="#000"/>
<text x="1249" y="-282.3" fill="white" font-family="Times,serif" font-size="14">CGPoint</text>
<polygon points="1115 -260.5 1115 -277.5 1214 -277.5 1214 -260.5" fill="none" stroke="#000"/>
<text x="1116" y="-265.3" font-family="Times,serif" font-size="14">allocationsize</text>
<polygon points="1214 -260.5 1214 -277.5 1442 -277.5 1442 -260.5" fill="none" stroke="#000"/>
<text x="1314" y="-265.3" font-family="Times,serif" font-size="14">352</text>
<polygon points="1115 -243.5 1115 -260.5 1214 -260.5 1214 -243.5" fill="none" stroke="#000"/>
<text x="1123.5" y="-248.3" font-family="Times,serif" font-size="14">inheritance</text>
<polygon points="1214 -243.5 1214 -260.5 1442 -260.5 1442 -243.5" fill="none" stroke="#000"/>
<text x="1215" y="-248.3" font-family="Times,serif" font-size="14">superclass categories protocols</text>
<polygon points="1115 -226.5 1115 -243.5 1214 -243.5 1214 -226.5" fill="none" stroke="#000"/>
<text x="1146" y="-231.3" font-family="Times,serif" font-size="14">state</text>
<polygon points="1214 -226.5 1214 -243.5 1442 -243.5 1442 -226.5" fill="none" stroke="#000"/>
<text x="1310" y="-231.3" font-family="Times,serif" font-size="14">0x40</text>
<polygon points="1115 -209.5 1115 -226.5 1214 -226.5 1214 -209.5" fill="none" stroke="#000"/>
<text x="1133.5" y="-214.3" font-family="Times,serif" font-size="14">preloads</text>
<polygon points="1214 -209.5 1214 -226.5 1442 -226.5 1442 -209.5" fill="none" stroke="#000"/>
<text x="1323" y="-214.3" font-family="Times,serif" font-size="14">0</text>
<polygon points="1113.5 -209 1113.5 -296 1442.5 -296 1442.5 -209" fill="none" stroke="#000"/>
</a>
</g>
<g class="edge">
<title>0x6150a433fc40-&gt;0x6150a433fe20</title>
<path d="m1151.1-388.76c0.87 11.29 3.19 22.66 7.89 32.76 8.64 18.59 22.47 35.11 37.7 49.16" fill="none" stroke="#daa520"/>
<polygon points="1199.1 -309.39 1204.3 -300.14 1194.5 -304.15" fill="#daa520" stroke="#daa520"/>
<text x="1177.5" y="-359.8" fill="goldenrod" font-family="Times,serif" font-size="14" text-anchor="middle">meta</text>
</g>
<g class="node">
<title>0x6150a40142d0</title>
<polygon points="9 -315.5 9 -332.5 415 -332.5 415 -315.5" stroke="transparent"/>
<polygon points="9 -315.5 9 -332.5 415 -332.5 415 -315.5" fill="none" stroke="#000"/>
<text x="173.5" y="-320.3" fill="white" font-family="Times,serif" font-size="14">methodlist</text>
<polygon points="9 -243.5 9 -315.5 137 -315.5 137 -243.5" fill="none" stroke="#000"/>
<text x="57" y="-275.8" font-family="Times,serif" font-size="14">area</text>
<polygon points="137 -243.5 137 -315.5 415 -315.5 415 -243.5" fill="none" stroke="#000"/>
<polygon points="139 -296.5 139 -313.5 255 -313.5 255 -296.5" fill="none" stroke="#d3d3d3"/>
<text x="162.5" y="-301.3" font-family="Times,serif" font-size="14">signature</text>
<polygon points="255 -296.5 255 -313.5 413 -313.5 413 -296.5" fill="none" stroke="#d3d3d3"/>
<text x="303.5" y="-301.3" font-family="Times,serif" font-size="14">f16@0:8</text>
<polygon points="139 -279.5 139 -296.5 255 -296.5 255 -279.5" fill="none" stroke="#d3d3d3"/>
<text x="163" y="-284.3" font-family="Times,serif" font-size="14">methodid</text>
<polygon points="255 -279.5 255 -296.5 413 -296.5 413 -279.5" fill="none" stroke="#d3d3d3"/>
<text x="291" y="-284.3" font-family="Times,serif" font-size="14">0xb0f21449</text>
<polygon points="139 -262.5 139 -279.5 255 -279.5 255 -262.5" fill="none" stroke="#d3d3d3"/>
<text x="183" y="-267.3" font-family="Times,serif" font-size="14">bits</text>
<polygon points="255 -262.5 255 -279.5 413 -279.5 413 -262.5" fill="none" stroke="#d3d3d3"/>
<text x="298" y="-267.3" font-family="Times,serif" font-size="14">0x200000</text>
<polygon points="139 -245.5 139 -262.5 255 -262.5 255 -245.5" fill="none" stroke="#d3d3d3"/>
<text x="140.5" y="-250.3" font-family="Times,serif" font-size="14">implementation</text>
<polygon points="255 -245.5 255 -262.5 413 -262.5 413 -245.5" fill="none" stroke="#d3d3d3"/>
<text x="256.5" y="-250.3" font-family="Times,serif" font-size="14">0x00006150a3ef96c0</text>
<polygon points="138 -244.5 138 -314.5 414 -314.5 414 -244.5" fill="none" stroke="#d3d3d3"/>
<polygon points="9 -171.5 9 -243.5 137 -243.5 137 -171.5" fill="none" stroke="#000"/>
<text x="10" y="-203.8" font-family="Times,serif" font-size="14">translateWithX:y:</text>
<polygon points="137 -171.5 137 -243.5 415 -243.5 415 -171.5" fill="none" stroke="#000"/>
<polygon points="139 -224.5 139 -241.5 254 -241.5 254 -224.5" fill="none" stroke="#d3d3d3"/>
<text x="162" y="-229.3" font-family="Times,serif" font-size="14">signature</text>
<polygon points="254 -224.5 254 -241.5 413 -241.5 413 -224.5" fill="none" stroke="#d3d3d3"/>
<text x="278.5" y="-229.3" font-family="Times,serif" font-size="14">v24@0:8f16f20</text>
<polygon points="139 -207.5 139 -224.5 254 -224.5 254 -207.5" fill="none" stroke="#d3d3d3"/>
<text x="162.5" y="-212.3" font-family="Times,serif" font-size="14">methodid</text>
<polygon points="254 -207.5 254 -224.5 413 -224.5 413 -207.5" fill="none" stroke="#d3d3d3"/>
<text x="289.5" y="-212.3" font-family="Times,serif" font-size="14">0xb7ee7240</text>
<polygon points="139 -190.5 139 -207.5 254 -207.5 254 -190.5" fill="none" stroke="#d3d3d3"/>
<text x="182.5" y="-195.3" font-family="Times,serif" font-size="14">bits</text>
<polygon points="254 -190.5 254 -207.5 413 -207.5 413 -190.5" fill="none" stroke="#d3d3d3"/>
<text x="320" y="-195.3" font-family="Times,serif" font-size="14">0x0</text>
<polygon points="139 -173.5 139 -190.5 254 -190.5 254 -173.5" fill="none" stroke="#d3d3d3"/>
<text x="140" y="-178.3" font-family="Times,serif" font-size="14">implementation</text>
<polygon points="254 -173.5 254 -190.5 413 -190.5 413 -173.5" fill="none" stroke="#d3d3d3"/>
<text x="255" y="-178.3" font-family="Times,serif" font-size="14">0x00006150a3ef9680</text>
<polygon points="138 -172.5 138 -242.5 414 -242.5 414 -172.5" fill="none" stroke="#d3d3d3"/>
<polygon points="8 -171 8 -334 416 -334 416 -171" fill="none" stroke="#000"/>
</g>
<g class="edge">
<title>0x6150a433fc40-&gt;0x6150a40142d0</title>
<path d="m967.31-433.53c-145.17 17.05-349.41 46.66-533.2 95.04" fill="none" stroke="#000"/>
<polygon points="434.82 -335.06 424.26 -335.88 433.03 -341.83" stroke="#000"/>
<text x="620.5" y="-359.8" font-family="Times,serif" font-size="14" text-anchor="middle">methodlist #0</text>
</g>
<g class="node">
<title>0x6150a40143d0</title>
<polygon points="451 -288.5 451 -305.5 870 -305.5 870 -288.5" stroke="transparent"/>
<polygon points="451 -288.5 451 -305.5 870 -305.5 870 -288.5" fill="none" stroke="#000"/>
<text x="622" y="-293.3" fill="white" font-family="Times,serif" font-size="14">methodlist</text>
<polygon points="451 -271.5 451 -288.5 592 -288.5 592 -271.5" fill="none" stroke="#000"/>
<text x="490" y="-276.3" font-family="Times,serif" font-size="14">category</text>
<polygon points="592 -271.5 592 -288.5 870 -288.5 870 -271.5" fill="none" stroke="#000"/>
<text x="697" y="-276.3" font-family="Times,serif" font-size="14">Additions</text>
<polygon points="451 -199.5 451 -271.5 592 -271.5 592 -199.5" fill="none" stroke="#000"/>
<text x="452" y="-231.8" font-family="Times,serif" font-size="14">rotateWithRadians:</text>
<polygon points="592 -199.5 592 -271.5 870 -271.5 870 -199.5" fill="none" stroke="#000"/>
<polygon points="594 -252.5 594 -269.5 709 -269.5 709 -252.5" fill="none" stroke="#d3d3d3"/>
<text x="617" y="-257.3" font-family="Times,serif" font-size="14">signature</text>
<polygon points="709 -252.5 709 -269.5 868 -269.5 868 -252.5" fill="none" stroke="#d3d3d3"/>
<text x="745" y="-257.3" font-family="Times,serif" font-size="14">v20@0:8f16</text>
<polygon points="594 -235.5 594 -252.5 709 -252.5 709 -235.5" fill="none" stroke="#d3d3d3"/>
<text x="617.5" y="-240.3" font-family="Times,serif" font-size="14">methodid</text>
<polygon points="709 -235.5 709 -252.5 868 -252.5 868 -235.5" fill="none" stroke="#d3d3d3"/>
<text x="746" y="-240.3" font-family="Times,serif" font-size="14">0x8a8efb2d</text>
<polygon points="594 -218.5 594 -235.5 709 -235.5 709 -218.5" fill="none" stroke="#d3d3d3"/>
<text x="637.5" y="-223.3" font-family="Times,serif" font-size="14">bits</text>
<polygon points="709 -218.5 709 -235.5 868 -235.5 868 -218.5" fill="none" stroke="#d3d3d3"/>
<text x="775" y="-223.3" font-family="Times,serif" font-size="14">0x0</text>
<polygon points="594 -201.5 594 -218.5 709 -218.5 709 -201.5" fill="none" stroke="#d3d3d3"/>
<text x="595" y="-206.3" font-family="Times,serif" font-size="14">implementation</text>
<polygon points="709 -201.5 709 -218.5 868 -218.5 868 -201.5" fill="none" stroke="#d3d3d3"/>
<text x="710" y="-206.3" font-family="Times,serif" font-size="14">0x00006150a3ef9750</text>
<polygon points="593 -200.5 593 -270.5 869 -270.5 869 -200.5" fill="none" stroke="#d3d3d3"/>
<polygon points="449.5 -198.5 449.5 -306.5 870.5 -306.5 870.5 -198.5" fill="none" stroke="#000"/>
</g>
<g class="edge">
<title>0x6150a433fc40-&gt;0x6150a40143d0</title>
<path d="m999.06-388.99c-59.85 23.92-127.72 51.04-186.93 74.7" fill="none" stroke="#000"/>
<polygon points="813.29 -310.98 802.7 -310.52 810.69 -317.48" stroke="#000"/>
<text x="1004.5" y="-359.8" font-family="Times,serif" font-size="14" text-anchor="middle">methodlist #1</text>
</g>
<g class="node">
<title>0x6150a4014250</title>
<polygon points="906 -298.5 906 -315.5 1079 -315.5 1079 -298.5" stroke="transparent"/>
<polygon points="906 -298.5 906 -315.5 1079 -315.5 1079 -298.5" fill="none" stroke="#000"/>
<text x="967" y="-303.3" fill="white" font-family="Times,serif" font-size="14">ivarlist</text>
<polygon points="906 -243.5 906 -298.5 917 -298.5 917 -243.5" fill="none" stroke="#000"/>
<text x="907" y="-267.3" font-family="Times,serif" font-size="14">x</text>
<polygon points="917 -243.5 917 -298.5 1079 -298.5 1079 -243.5" fill="none" stroke="#000"/>
<polygon points="919 -279.5 919 -296.5 990 -296.5 990 -279.5" fill="none" stroke="#d3d3d3"/>
<text x="920" y="-284.3" font-family="Times,serif" font-size="14">signature</text>
<polygon points="990 -279.5 990 -296.5 1077 -296.5 1077 -279.5" fill="none" stroke="#d3d3d3"/>
<text x="1030.5" y="-284.3" font-family="Times,serif" font-size="14">f</text>
<polygon points="919 -262.5 919 -279.5 990 -279.5 990 -262.5" fill="none" stroke="#d3d3d3"/>
<text x="920.5" y="-267.3" font-family="Times,serif" font-size="14">methodid</text>
<polygon points="990 -262.5 990 -279.5 1077 -279.5 1077 -262.5" fill="none" stroke="#d3d3d3"/>
<text x="991" y="-267.3" font-family="Times,serif" font-size="14">0xd0c5087f</text>
<polygon points="919 -245.5 919 -262.5 990 -262.5 990 -245.5" fill="none" stroke="#d3d3d3"/>
<text x="934.5" y="-250.3" font-family="Times,serif" font-size="14">offset</text>
<polygon points="990 -245.5 990 -262.5 1077 -262.5 1077 -245.5" fill="none" stroke="#d3d3d3"/>
<text x="1028.5" y="-250.3" font-family="Times,serif" font-size="14">0</text>
<polygon points="918 -244.5 918 -297.5 1078 -297.5 1078 -244.5" fill="none" stroke="#d3d3d3"/>
<polygon points="906 -188.5 906 -243.5 917 -243.5 917 -188.5" fill="none" stroke="#000"/>
<text x="907" y="-212.3" font-family="Times,serif" font-size="14">y</text>
<polygon points="917 -188.5 917 -243.5 1079 -243.5 1079 -188.5" fill="none" stroke="#000"/>
<polygon points="919 -224.5 919 -241.5 993 -241.5 993 -224.5" fill="none" stroke="#d3d3d3"/>
<text x="921.5" y="-229.3" font-family="Times,serif" font-size="14">signature</text>
<polygon points="993 -224.5 993 -241.5 1077 -241.5 1077 -224.5" fill="none" stroke="#d3d3d3"/>
<text x="1032" y="-229.3" font-family="Times,serif" font-size="14">f</text>
<polygon points="919 -207.5 919 -224.5 993 -224.5 993 -207.5" fill="none" stroke="#d3d3d3"/>
<text x="922" y="-212.3" font-family="Times,serif" font-size="14">methodid</text>
<polygon points="993 -207.5 993 -224.5 1077 -224.5 1077 -207.5" fill="none" stroke="#d3d3d3"/>
<text x="995.5" y="-212.3" font-family="Times,serif" font-size="14">0xc0c4ef4f</text>
<polygon points="919 -190.5 919 -207.5 993 -207.5 993 -190.5" fill="none" stroke="#d3d3d3"/>
<text x="936" y="-195.3" font-family="Times,serif" font-size="14">offset</text>
<polygon points="993 -190.5 993 -207.5 1077 -207.5 1077 -190.5" fill="none" stroke="#d3d3d3"/>
<text x="1030" y="-195.3" font-family="Times,serif" font-size="14">4</text>
<polygon points="918 -189.5 918 -242.5 1078 -242.5 1078 -189.5" fill="none" stroke="#d3d3d3"/>
<polygon points="904.5 -188 904.5 -317 1079.5 -317 1079.5 -188" fill="none" stroke="#000"/>
</g>
<g class="edge">
<title>0x6150a433fc40-&gt;0x6150a4014250</title>
<path d="m1089-388.73c-5.56 5.86-10.98 11.81-16.01 17.73-11.01 12.94-21.93 27.37-32.02 41.57" fill="none" stroke="#000"/>
<polygon points="1043.8 -327.29 1035.2 -321.11 1038 -331.31" stroke="#000"/>
<text x="1111" y="-359.8" font-family="Times,serif" font-size="14" text-anchor="middle">ivarlist #0</text>
</g>
<g class="node">
<title>0x6150a433e950</title>
<polygon points="1477 -58 1477 -75 1627 -75 1627 -58" fill="dimgray" stroke="transparent"/>
<polygon points="1477 -58 1477 -75 1627 -75 1627 -58" fill="none" stroke="#000"/>
<text x="1514.5" y="-62.8" fill="white" font-family="Times,serif" font-size="14">categories</text>
<polygon points="1477 -41 1477 -58 1561 -58 1561 -41" fill="none" stroke="#000"/>
<text x="1478" y="-45.8" font-family="Times,serif" font-size="14">"Additions"</text>
<polygon points="1561 -41 1561 -58 1627 -58 1627 -41" fill="none" stroke="#000"/>
<text x="1562" y="-45.8" font-family="Times,serif" font-size="14">6ffd00ed</text>
<polygon points="1476 -40 1476 -76 1628 -76 1628 -40" fill="none" stroke="#000"/>
</g>
<g class="edge">
<title>0x6150a433fc40-&gt;0x6150a433e950</title>
<path d="m1348.7-409.4c40.94 16.68 80.94 39.7 111.28 71.4 67.25 70.27 85.36 190.68 90.22 247.53" fill="none" stroke="#000"/>
<polygon points="1553.7 -90.55 1551 -80.31 1546.8 -90.01" stroke="#000"/>
<text x="1581" y="-248.8" font-family="Times,serif" font-size="14" text-anchor="middle">categoryids</text>
</g>
<g class="edge">
<title>0x6150a433fe20-&gt;0x6150a433fc40</title>
<path d="m1249.9-300.03c-14.42-23.91-32.31-53.58-48.46-80.37" fill="none" stroke="#daa520"/>
<polygon points="1198.5 -378.62 1196.3 -388.99 1204.5 -382.23" fill="#daa520" stroke="#daa520"/>
<text x="1232.5" y="-359.8" fill="goldenrod" font-family="Times,serif" font-size="14" text-anchor="middle">meta</text>
</g>
<g class="edge">
<title>0x6150a433fe20-&gt;0x6150a433fc40</title>
<path d="m1276.1-300.13c-2.67-22.67-8.52-49.56-21.08-70.87-2.02-3.42-4.23-6.76-6.6-10.02" fill="none" stroke="blue"/>
<polygon points="1245.6 -378.92 1242.2 -388.95 1251.1 -383.23" fill="blue" stroke="blue"/>
<text x="1279" y="-359.8" fill="blue" font-family="Times,serif" font-size="14" text-anchor="middle">infra</text>
</g>
<g class="edge">
<title>0x6150a433fe20-&gt;0x6150a433e950</title>
<path d="m1336.3-204.99c28.41 22.14 63.36 48.61 95.72 70.99 14.1 9.75 48.49 31.16 76.86 48.62" fill="none" stroke="#000"/>
<polygon points="1510.8 -88.32 1517.4 -80.11 1507.1 -82.36" stroke="#000"/>
<text x="1474" y="-137.8" font-family="Times,serif" font-size="14" text-anchor="middle">categoryids</text>
</g>
<g class="node">
<title>0x6150a4014298</title>
<polygon points="723 -85 723 -102 1033 -102 1033 -85" stroke="transparent"/>
<polygon points="723 -85 723 -102 1033 -102 1033 -85" fill="none" stroke="#000"/>
<text x="839.5" y="-89.8" fill="white" font-family="Times,serif" font-size="14">methodlist</text>
<polygon points="723 -13 723 -85 755 -85 755 -13" fill="none" stroke="#000"/>
<text x="724" y="-45.3" font-family="Times,serif" font-size="14">new</text>
<polygon points="755 -13 755 -85 1033 -85 1033 -13" fill="none" stroke="#000"/>
<polygon points="757 -66 757 -83 872 -83 872 -66" fill="none" stroke="#d3d3d3"/>
<text x="780" y="-70.8" font-family="Times,serif" font-size="14">signature</text>
<polygon points="872 -66 872 -83 1031 -83 1031 -66" fill="none" stroke="#d3d3d3"/>
<text x="916.5" y="-70.8" font-family="Times,serif" font-size="14">@16@0:8</text>
<polygon points="757 -49 757 -66 872 -66 872 -49" fill="none" stroke="#d3d3d3"/>
<text x="780.5" y="-53.8" font-family="Times,serif" font-size="14">methodid</text>
<polygon points="872 -49 872 -66 1031 -66 1031 -49" fill="none" stroke="#d3d3d3"/>
<text x="906.5" y="-53.8" font-family="Times,serif" font-size="14">0x89996112</text>
<polygon points="757 -32 757 -49 872 -49 872 -32" fill="none" stroke="#d3d3d3"/>
<text x="800.5" y="-36.8" font-family="Times,serif" font-size="14">bits</text>
<polygon points="872 -32 872 -49 1031 -49 1031 -32" fill="none" stroke="#d3d3d3"/>
<text x="920" y="-36.8" font-family="Times,serif" font-size="14">0x50000</text>
<polygon points="757 -15 757 -32 872 -32 872 -15" fill="none" stroke="#d3d3d3"/>
<text x="758" y="-19.8" font-family="Times,serif" font-size="14">implementation</text>
<polygon points="872 -15 872 -32 1031 -32 1031 -15" fill="none" stroke="#d3d3d3"/>
<text x="873" y="-19.8" font-family="Times,serif" font-size="14">0x00006150a3ef9620</text>
<polygon points="756 -14 756 -84 1032 -84 1032 -14" fill="none" stroke="#d3d3d3"/>
<polygon points="722 -12.5 722 -103.5 1034 -103.5 1034 -12.5" fill="none" stroke="#000"/>
</g>
<g class="edge">
<title>0x6150a433fe20-&gt;0x6150a4014298</title>
<path d="m1181.2-204.9c-58.28 28.05-132.65 63.84-193.15 92.95" fill="none" stroke="#000"/>
<polygon points="989.34 -108.7 978.82 -107.52 986.31 -115.01" stroke="#000"/>
<text x="1105.5" y="-137.8" font-family="Times,serif" font-size="14" text-anchor="middle">methodlist #0</text>
</g>
<g class="node">
<title>0x6150a4014398</title>
<polygon points="1070 -94 1070 -111 1441 -111 1441 -94" stroke="transparent"/>
<polygon points="1070 -94 1070 -111 1441 -111 1441 -94" fill="none" stroke="#000"/>
<text x="1217" y="-98.8" fill="white" font-family="Times,serif" font-size="14">methodlist</text>
<polygon points="1070 -77 1070 -94 1163 -94 1163 -77" fill="none" stroke="#000"/>
<text x="1085" y="-81.8" font-family="Times,serif" font-size="14">category</text>
<polygon points="1163 -77 1163 -94 1441 -94 1441 -77" fill="none" stroke="#000"/>
<text x="1268" y="-81.8" font-family="Times,serif" font-size="14">Additions</text>
<polygon points="1070 -5 1070 -77 1163 -77 1163 -5" fill="none" stroke="#000"/>
<text x="1071" y="-37.3" font-family="Times,serif" font-size="14">newWithX:y:</text>
<polygon points="1163 -5 1163 -77 1441 -77 1441 -5" fill="none" stroke="#000"/>
<polygon points="1165 -58 1165 -75 1280 -75 1280 -58" fill="none" stroke="#d3d3d3"/>
<text x="1188" y="-62.8" font-family="Times,serif" font-size="14">signature</text>
<polygon points="1280 -58 1280 -75 1439 -75 1439 -58" fill="none" stroke="#d3d3d3"/>
<text x="1301.5" y="-62.8" font-family="Times,serif" font-size="14">@24@0:8f16f20</text>
<polygon points="1165 -41 1165 -58 1280 -58 1280 -41" fill="none" stroke="#d3d3d3"/>
<text x="1188.5" y="-45.8" font-family="Times,serif" font-size="14">methodid</text>
<polygon points="1280 -41 1280 -58 1439 -58 1439 -41" fill="none" stroke="#d3d3d3"/>
<text x="1315.5" y="-45.8" font-family="Times,serif" font-size="14">0xc42e0007</text>
<polygon points="1165 -24 1165 -41 1280 -41 1280 -24" fill="none" stroke="#d3d3d3"/>
<text x="1208.5" y="-28.8" font-family="Times,serif" font-size="14">bits</text>
<polygon points="1280 -24 1280 -41 1439 -41 1439 -24" fill="none" stroke="#d3d3d3"/>
<text x="1328" y="-28.8" font-family="Times,serif" font-size="14">0x50000</text>
<polygon points="1165 -7 1165 -24 1280 -24 1280 -7" fill="none" stroke="#d3d3d3"/>
<text x="1166" y="-11.8" font-family="Times,serif" font-size="14">implementation</text>
<polygon points="1280 -7 1280 -24 1439 -24 1439 -7" fill="none" stroke="#d3d3d3"/>
<text x="1281" y="-11.8" font-family="Times,serif" font-size="14">0x00006150a3ef9700</text>
<polygon points="1164 -6 1164 -76 1440 -76 1440 -6" fill="none" stroke="#d3d3d3"/>
<polygon points="1068.5 -4 1068.5 -112 1441.5 -112 1441.5 -4" fill="none" stroke="#000"/>
</g>
<g class="edge">
<title>0x6150a433fe20-&gt;0x6150a4014398</title>
<path d="m1272.4-204.9c-2.81 23.57-6.29 52.62-9.39 78.58" fill="none" stroke="#000"/>
<polygon points="1266.5 -125.68 1261.8 -116.17 1259.5 -126.51" stroke="#000"/>
<text x="1316.5" y="-137.8" font-family="Times,serif" font-size="14" text-anchor="middle">methodlist #1</text>
</g>
</g>
</svg>
