<?xml version="1.0" encoding="UTF-8"?>
<!DOCTYPE svg  PUBLIC '-//W3C//DTD SVG 1.1//EN'  'http://www.w3.org/Graphics/SVG/1.1/DTD/svg11.dtd'>
<svg width="1141pt" height="509pt" viewBox="0 0 1141 509" xmlns="http://www.w3.org/2000/svg" xmlns:xlink="http://www.w3.org/1999/xlink">
<g class="graph" transform="scale(1) translate(4 505)">
<title>mulle_objc_class</title>
<polygon points="-4 4 -4 -505 1137 -505 1137 4" fill="#fff" stroke="transparent"/>
<g class="node">
<title>0x5d023faddc40</title>
<a xlink:href="file:///./CGPoint.dot" xlink:title="&lt;TABLE&gt;">
<polygon points="958.5 -501 577.5 -501 577.5 -372 958.5 -372" fill="none" stroke="#000"/>
<polygon points="587 -478.5 587 -495.5 950 -495.5 950 -478.5" fill="blue" stroke="transparent"/>
<polygon points="587 -478.5 587 -495.5 950 -495.5 950 -478.5" fill="none" stroke="#000"/>
<text x="739" y="-483.3" fill="white" font-family="Times,serif" font-size="14">CGPoint</text>
<polygon points="587 -461.5 587 -478.5 722 -478.5 722 -461.5" fill="none" stroke="#000"/>
<text x="606" y="-466.3" font-family="Times,serif" font-size="14">allocationsize</text>
<polygon points="722 -461.5 722 -478.5 950 -478.5 950 -461.5" fill="none" stroke="#000"/>
<text x="826.5" y="-466.3" font-family="Times,serif" font-size="14">40</text>
<polygon points="587 -444.5 587 -461.5 722 -461.5 722 -444.5" fill="none" stroke="#000"/>
<text x="613.5" y="-449.3" font-family="Times,serif" font-size="14">inheritance</text>
<polygon points="722 -444.5 722 -461.5 950 -461.5 950 -444.5" fill="none" stroke="#000"/>
<text x="723" y="-449.3" font-family="Times,serif" font-size="14">superclass categories protocols</text>
<polygon points="587 -427.5 587 -444.5 722 -444.5 722 -427.5" fill="none" stroke="#000"/>
<text x="636" y="-432.3" font-family="Times,serif" font-size="14">state</text>
<polygon points="722 -427.5 722 -444.5 950 -444.5 950 -427.5" fill="none" stroke="#000"/>
<text x="822.5" y="-432.3" font-family="Times,serif" font-size="14">0x0</text>
<polygon points="587 -410.5 587 -427.5 722 -427.5 722 -410.5" fill="none" stroke="#000"/>
<text x="623.5" y="-415.3" font-family="Times,serif" font-size="14">ivarhash</text>
<polygon points="722 -410.5 722 -427.5 950 -427.5 950 -410.5" fill="none" stroke="#000"/>
<text x="792.5" y="-415.3" font-family="Times,serif" font-size="14">0xa8e101c2</text>
<polygon points="587 -393.5 587 -410.5 722 -410.5 722 -393.5" fill="none" stroke="#000"/>
<text x="588" y="-398.3" font-family="Times,serif" font-size="14">allocatedInstances</text>
<polygon points="722 -393.5 722 -410.5 950 -410.5 950 -393.5" fill="none" stroke="#000"/>
<text x="831" y="-398.3" font-family="Times,serif" font-size="14">0</text>
<polygon points="587 -376.5 587 -393.5 722 -393.5 722 -376.5" fill="none" stroke="#000"/>
<text x="623.5" y="-381.3" font-family="Times,serif" font-size="14">preloads</text>
<polygon points="722 -376.5 722 -393.5 950 -393.5 950 -376.5" fill="none" stroke="#000"/>
<text x="831" y="-381.3" font-family="Times,serif" font-size="14">0</text>
<polygon points="585.5 -376 585.5 -497 950.5 -497 950.5 -376" fill="none" stroke="#000"/>
</a>
</g>
<g class="node">
<title>0x5d023fadde20</title>
<a xlink:href="file:///./CGPoint.dot" xlink:title="&lt;TABLE&gt;">
<polygon points="1000.5 -283 655.5 -283 655.5 -279 651.5 -279 651.5 -275 655.5 -275 655.5 -196 651.5 -196 651.5 -192 655.5 -192 655.5 -188 1000.5 -188" fill="none" stroke="#000"/>
<polyline points="655.5 -279 659.5 -279 659.5 -275 655.5 -275" fill="none" stroke="#000"/>
<polyline points="655.5 -196 659.5 -196 659.5 -192 655.5 -192" fill="none" stroke="#000"/>
<polygon points="665 -260.5 665 -277.5 992 -277.5 992 -260.5" fill="#daa520" stroke="transparent"/>
<polygon points="665 -260.5 665 -277.5 992 -277.5 992 -260.5" fill="none" stroke="#000"/>
<text x="799" y="-265.3" fill="white" font-family="Times,serif" font-size="14">CGPoint</text>
<polygon points="665 -243.5 665 -260.5 764 -260.5 764 -243.5" fill="none" stroke="#000"/>
<text x="666" y="-248.3" font-family="Times,serif" font-size="14">allocationsize</text>
<polygon points="764 -243.5 764 -260.5 992 -260.5 992 -243.5" fill="none" stroke="#000"/>
<text x="864" y="-248.3" font-family="Times,serif" font-size="14">352</text>
<polygon points="665 -226.5 665 -243.5 764 -243.5 764 -226.5" fill="none" stroke="#000"/>
<text x="673.5" y="-231.3" font-family="Times,serif" font-size="14">inheritance</text>
<polygon points="764 -226.5 764 -243.5 992 -243.5 992 -226.5" fill="none" stroke="#000"/>
<text x="765" y="-231.3" font-family="Times,serif" font-size="14">superclass categories protocols</text>
<polygon points="665 -209.5 665 -226.5 764 -226.5 764 -209.5" fill="none" stroke="#000"/>
<text x="696" y="-214.3" font-family="Times,serif" font-size="14">state</text>
<polygon points="764 -209.5 764 -226.5 992 -226.5 992 -209.5" fill="none" stroke="#000"/>
<text x="860" y="-214.3" font-family="Times,serif" font-size="14">0x40</text>
<polygon points="665 -192.5 665 -209.5 764 -209.5 764 -192.5" fill="none" stroke="#000"/>
<text x="683.5" y="-197.3" font-family="Times,serif" font-size="14">preloads</text>
<polygon points="764 -192.5 764 -209.5 992 -209.5 992 -192.5" fill="none" stroke="#000"/>
<text x="873" y="-197.3" font-family="Times,serif" font-size="14">0</text>
<polygon points="663.5 -192 663.5 -279 992.5 -279 992.5 -192" fill="none" stroke="#000"/>
</a>
</g>
<g class="edge">
<title>0x5d023faddc40-&gt;0x5d023fadde20</title>
<path d="m736.92-371.78c-1.98 11.02-1.84 22.29 2.08 32.78 6.51 17.42 17.45 33.83 29.49 48.21" fill="none" stroke="#daa520"/>
<polygon points="771.33 -292.85 775.27 -283.02 766.06 -288.25" fill="#daa520" stroke="#daa520"/>
<text x="757.5" y="-342.8" fill="goldenrod" font-family="Times,serif" font-size="14" text-anchor="middle">meta</text>
</g>
<g class="node">
<title>0x5d023e3502e8</title>
<polygon points="9 -298.5 9 -315.5 419 -315.5 419 -298.5" stroke="transparent"/>
<polygon points="9 -298.5 9 -315.5 419 -315.5 419 -298.5" fill="none" stroke="#000"/>
<text x="175.5" y="-303.3" fill="white" font-family="Times,serif" font-size="14">methodlist</text>
<polygon points="9 -226.5 9 -298.5 137 -298.5 137 -226.5" fill="none" stroke="#000"/>
<text x="57" y="-258.8" font-family="Times,serif" font-size="14">area</text>
<polygon points="137 -226.5 137 -298.5 419 -298.5 419 -226.5" fill="none" stroke="#000"/>
<polygon points="139 -279.5 139 -296.5 255 -296.5 255 -279.5" fill="none" stroke="#d3d3d3"/>
<text x="162.5" y="-284.3" font-family="Times,serif" font-size="14">signature</text>
<polygon points="255 -279.5 255 -296.5 417 -296.5 417 -279.5" fill="none" stroke="#d3d3d3"/>
<text x="305.5" y="-284.3" font-family="Times,serif" font-size="14">f16@0:8</text>
<polygon points="139 -262.5 139 -279.5 255 -279.5 255 -262.5" fill="none" stroke="#d3d3d3"/>
<text x="163" y="-267.3" font-family="Times,serif" font-size="14">methodid</text>
<polygon points="255 -262.5 255 -279.5 417 -279.5 417 -262.5" fill="none" stroke="#d3d3d3"/>
<text x="293" y="-267.3" font-family="Times,serif" font-size="14">0xb0f21449</text>
<polygon points="139 -245.5 139 -262.5 255 -262.5 255 -245.5" fill="none" stroke="#d3d3d3"/>
<text x="183" y="-250.3" font-family="Times,serif" font-size="14">bits</text>
<polygon points="255 -245.5 255 -262.5 417 -262.5 417 -245.5" fill="none" stroke="#d3d3d3"/>
<text x="300" y="-250.3" font-family="Times,serif" font-size="14">0x200000</text>
<polygon points="139 -228.5 139 -245.5 255 -245.5 255 -228.5" fill="none" stroke="#d3d3d3"/>
<text x="140.5" y="-233.3" font-family="Times,serif" font-size="14">implementation</text>
<polygon points="255 -228.5 255 -245.5 417 -245.5 417 -228.5" fill="none" stroke="#d3d3d3"/>
<text x="256" y="-233.3" font-family="Times,serif" font-size="14">0x00005d023e2356a0</text>
<polygon points="138 -227.5 138 -297.5 418 -297.5 418 -227.5" fill="none" stroke="#d3d3d3"/>
<polygon points="9 -154.5 9 -226.5 137 -226.5 137 -154.5" fill="none" stroke="#000"/>
<text x="10" y="-186.8" font-family="Times,serif" font-size="14">translateWithX:y:</text>
<polygon points="137 -154.5 137 -226.5 419 -226.5 419 -154.5" fill="none" stroke="#000"/>
<polygon points="139 -207.5 139 -224.5 254 -224.5 254 -207.5" fill="none" stroke="#d3d3d3"/>
<text x="162" y="-212.3" font-family="Times,serif" font-size="14">signature</text>
<polygon points="254 -207.5 254 -224.5 417 -224.5 417 -207.5" fill="none" stroke="#d3d3d3"/>
<text x="280.5" y="-212.3" font-family="Times,serif" font-size="14">v24@0:8f16f20</text>
<polygon points="139 -190.5 139 -207.5 254 -207.5 254 -190.5" fill="none" stroke="#d3d3d3"/>
<text x="162.5" y="-195.3" font-family="Times,serif" font-size="14">methodid</text>
<polygon points="254 -190.5 254 -207.5 417 -207.5 417 -190.5" fill="none" stroke="#d3d3d3"/>
<text x="291.5" y="-195.3" font-family="Times,serif" font-size="14">0xb7ee7240</text>
<polygon points="139 -173.5 139 -190.5 254 -190.5 254 -173.5" fill="none" stroke="#d3d3d3"/>
<text x="182.5" y="-178.3" font-family="Times,serif" font-size="14">bits</text>
<polygon points="254 -173.5 254 -190.5 417 -190.5 417 -173.5" fill="none" stroke="#d3d3d3"/>
<text x="322" y="-178.3" font-family="Times,serif" font-size="14">0x0</text>
<polygon points="139 -156.5 139 -173.5 254 -173.5 254 -156.5" fill="none" stroke="#d3d3d3"/>
<text x="140" y="-161.3" font-family="Times,serif" font-size="14">implementation</text>
<polygon points="254 -156.5 254 -173.5 417 -173.5 417 -156.5" fill="none" stroke="#d3d3d3"/>
<text x="255" y="-161.3" font-family="Times,serif" font-size="14">0x00005d023e235660</text>
<polygon points="138 -155.5 138 -225.5 418 -225.5 418 -155.5" fill="none" stroke="#d3d3d3"/>
<polygon points="8 -154 8 -317 420 -317 420 -154" fill="none" stroke="#000"/>
</g>
<g class="edge">
<title>0x5d023faddc40-&gt;0x5d023e3502e8</title>
<path d="m581.78-371.99c-47.02 16.33-97.34 34.08-143.78 50.99-0.1 0.04-0.2 0.07-0.3 0.11" fill="none" stroke="#000"/>
<polygon points="438.86 -317.59 428.26 -317.45 436.46 -324.16" stroke="#000"/>
<text x="579.5" y="-342.8" font-family="Times,serif" font-size="14" text-anchor="middle">methodlist #0</text>
</g>
<g class="node">
<title>0x5d023e350268</title>
<polygon points="456 -281.5 456 -298.5 629 -298.5 629 -281.5" stroke="transparent"/>
<polygon points="456 -281.5 456 -298.5 629 -298.5 629 -281.5" fill="none" stroke="#000"/>
<text x="517" y="-286.3" fill="white" font-family="Times,serif" font-size="14">ivarlist</text>
<polygon points="456 -226.5 456 -281.5 467 -281.5 467 -226.5" fill="none" stroke="#000"/>
<text x="457" y="-250.3" font-family="Times,serif" font-size="14">x</text>
<polygon points="467 -226.5 467 -281.5 629 -281.5 629 -226.5" fill="none" stroke="#000"/>
<polygon points="469 -262.5 469 -279.5 540 -279.5 540 -262.5" fill="none" stroke="#d3d3d3"/>
<text x="470" y="-267.3" font-family="Times,serif" font-size="14">signature</text>
<polygon points="540 -262.5 540 -279.5 627 -279.5 627 -262.5" fill="none" stroke="#d3d3d3"/>
<text x="580.5" y="-267.3" font-family="Times,serif" font-size="14">f</text>
<polygon points="469 -245.5 469 -262.5 540 -262.5 540 -245.5" fill="none" stroke="#d3d3d3"/>
<text x="470.5" y="-250.3" font-family="Times,serif" font-size="14">methodid</text>
<polygon points="540 -245.5 540 -262.5 627 -262.5 627 -245.5" fill="none" stroke="#d3d3d3"/>
<text x="541" y="-250.3" font-family="Times,serif" font-size="14">0xd0c5087f</text>
<polygon points="469 -228.5 469 -245.5 540 -245.5 540 -228.5" fill="none" stroke="#d3d3d3"/>
<text x="484.5" y="-233.3" font-family="Times,serif" font-size="14">offset</text>
<polygon points="540 -228.5 540 -245.5 627 -245.5 627 -228.5" fill="none" stroke="#d3d3d3"/>
<text x="578.5" y="-233.3" font-family="Times,serif" font-size="14">0</text>
<polygon points="468 -227.5 468 -280.5 628 -280.5 628 -227.5" fill="none" stroke="#d3d3d3"/>
<polygon points="456 -171.5 456 -226.5 467 -226.5 467 -171.5" fill="none" stroke="#000"/>
<text x="457" y="-195.3" font-family="Times,serif" font-size="14">y</text>
<polygon points="467 -171.5 467 -226.5 629 -226.5 629 -171.5" fill="none" stroke="#000"/>
<polygon points="469 -207.5 469 -224.5 543 -224.5 543 -207.5" fill="none" stroke="#d3d3d3"/>
<text x="471.5" y="-212.3" font-family="Times,serif" font-size="14">signature</text>
<polygon points="543 -207.5 543 -224.5 627 -224.5 627 -207.5" fill="none" stroke="#d3d3d3"/>
<text x="582" y="-212.3" font-family="Times,serif" font-size="14">f</text>
<polygon points="469 -190.5 469 -207.5 543 -207.5 543 -190.5" fill="none" stroke="#d3d3d3"/>
<text x="472" y="-195.3" font-family="Times,serif" font-size="14">methodid</text>
<polygon points="543 -190.5 543 -207.5 627 -207.5 627 -190.5" fill="none" stroke="#d3d3d3"/>
<text x="545.5" y="-195.3" font-family="Times,serif" font-size="14">0xc0c4ef4f</text>
<polygon points="469 -173.5 469 -190.5 543 -190.5 543 -173.5" fill="none" stroke="#d3d3d3"/>
<text x="486" y="-178.3" font-family="Times,serif" font-size="14">offset</text>
<polygon points="543 -173.5 543 -190.5 627 -190.5 627 -173.5" fill="none" stroke="#d3d3d3"/>
<text x="580" y="-178.3" font-family="Times,serif" font-size="14">4</text>
<polygon points="468 -172.5 468 -225.5 628 -225.5 628 -172.5" fill="none" stroke="#d3d3d3"/>
<polygon points="454.5 -171 454.5 -300 629.5 -300 629.5 -171" fill="none" stroke="#000"/>
</g>
<g class="edge">
<title>0x5d023faddc40-&gt;0x5d023e350268</title>
<path d="m677.68-371.88c-7.46 5.88-14.78 11.89-21.68 17.88-15.22 13.21-30.75 28.11-45.26 42.76" fill="none" stroke="#000"/>
<polygon points="613.21 -308.76 603.71 -304.08 608.22 -313.66" stroke="#000"/>
<text x="694" y="-342.8" font-family="Times,serif" font-size="14" text-anchor="middle">ivarlist #0</text>
</g>
<g class="node">
<title>0x5d023fadc950</title>
<polygon points="948 -49.5 948 -66.5 1124 -66.5 1124 -49.5" fill="dimgray" stroke="transparent"/>
<polygon points="948 -49.5 948 -66.5 1124 -66.5 1124 -49.5" fill="none" stroke="#000"/>
<text x="1002.5" y="-54.3" fill="white" font-family="Times,serif" font-size="14">protocols</text>
<polygon points="948 -32.5 948 -49.5 1053 -49.5 1053 -32.5" fill="none" stroke="#000"/>
<text x="949" y="-37.3" font-family="Times,serif" font-size="14">"Translatable"</text>
<polygon points="1053 -32.5 1053 -49.5 1124 -49.5 1124 -32.5" fill="none" stroke="#000"/>
<text x="1054" y="-37.3" font-family="Times,serif" font-size="14">36b2706f</text>
<polygon points="947 -31.5 947 -67.5 1125 -67.5 1125 -31.5" fill="none" stroke="#000"/>
</g>
<g class="edge">
<title>0x5d023faddc40-&gt;0x5d023fadc950</title>
<path d="m956.17-371.91c20.83 13.88 39.6 30.66 53.83 50.91 51.1 72.75 41.06 184.96 32.2 239.12" fill="none" stroke="#000"/>
<polygon points="1045.6 -81.1 1040.5 -71.85 1038.7 -82.3" stroke="#000"/>
<text x="1089" y="-231.8" font-family="Times,serif" font-size="14" text-anchor="middle">protocolids</text>
</g>
<g class="edge">
<title>0x5d023fadde20-&gt;0x5d023faddc40</title>
<path d="m813.97-283.03c-7.11-23.6-15.92-52.81-23.92-79.33" fill="none" stroke="#daa520"/>
<polygon points="786.69 -361.4 787.15 -371.99 793.39 -363.42" fill="#daa520" stroke="#daa520"/>
<text x="814.5" y="-342.8" fill="goldenrod" font-family="Times,serif" font-size="14" text-anchor="middle">meta</text>
</g>
<g class="edge">
<title>0x5d023fadde20-&gt;0x5d023faddc40</title>
<path d="m839.77-283.2c3.42-22.06 4.35-48.4-3.77-70.8-1.06-2.94-2.29-5.84-3.64-8.71" fill="none" stroke="blue"/>
<polygon points="829.18 -361.23 827.62 -371.71 835.38 -364.49" fill="blue" stroke="blue"/>
<text x="856" y="-342.8" fill="blue" font-family="Times,serif" font-size="14" text-anchor="middle">infra</text>
</g>
<g class="edge">
<title>0x5d023fadde20-&gt;0x5d023fadc950</title>
<path d="m869.46-187.9c20.85 22.42 47.06 49.09 72.54 70.9 16.42 14.06 35.74 28.11 52.59 39.65" fill="none" stroke="#000"/>
<polygon points="996.82 -80.07 1003.1 -71.56 992.9 -74.27" stroke="#000"/>
<text x="982" y="-120.8" font-family="Times,serif" font-size="14" text-anchor="middle">protocolids</text>
</g>
<g class="node">
<title>0x5d023e3502b0</title>
<polygon points="598 -76.5 598 -93.5 912 -93.5 912 -76.5" stroke="transparent"/>
<polygon points="598 -76.5 598 -93.5 912 -93.5 912 -76.5" fill="none" stroke="#000"/>
<text x="716.5" y="-81.3" fill="white" font-family="Times,serif" font-size="14">methodlist</text>
<polygon points="598 -4.5 598 -76.5 630 -76.5 630 -4.5" fill="none" stroke="#000"/>
<text x="599" y="-36.8" font-family="Times,serif" font-size="14">new</text>
<polygon points="630 -4.5 630 -76.5 912 -76.5 912 -4.5" fill="none" stroke="#000"/>
<polygon points="632 -57.5 632 -74.5 747 -74.5 747 -57.5" fill="none" stroke="#d3d3d3"/>
<text x="655" y="-62.3" font-family="Times,serif" font-size="14">signature</text>
<polygon points="747 -57.5 747 -74.5 910 -74.5 910 -57.5" fill="none" stroke="#d3d3d3"/>
<text x="793.5" y="-62.3" font-family="Times,serif" font-size="14">@16@0:8</text>
<polygon points="632 -40.5 632 -57.5 747 -57.5 747 -40.5" fill="none" stroke="#d3d3d3"/>
<text x="655.5" y="-45.3" font-family="Times,serif" font-size="14">methodid</text>
<polygon points="747 -40.5 747 -57.5 910 -57.5 910 -40.5" fill="none" stroke="#d3d3d3"/>
<text x="783.5" y="-45.3" font-family="Times,serif" font-size="14">0x89996112</text>
<polygon points="632 -23.5 632 -40.5 747 -40.5 747 -23.5" fill="none" stroke="#d3d3d3"/>
<text x="675.5" y="-28.3" font-family="Times,serif" font-size="14">bits</text>
<polygon points="747 -23.5 747 -40.5 910 -40.5 910 -23.5" fill="none" stroke="#d3d3d3"/>
<text x="797" y="-28.3" font-family="Times,serif" font-size="14">0x50000</text>
<polygon points="632 -6.5 632 -23.5 747 -23.5 747 -6.5" fill="none" stroke="#d3d3d3"/>
<text x="633" y="-11.3" font-family="Times,serif" font-size="14">implementation</text>
<polygon points="747 -6.5 747 -23.5 910 -23.5 910 -6.5" fill="none" stroke="#d3d3d3"/>
<text x="748" y="-11.3" font-family="Times,serif" font-size="14">0x00005d023e235600</text>
<polygon points="631 -5.5 631 -75.5 911 -75.5 911 -5.5" fill="none" stroke="#d3d3d3"/>
<polygon points="597 -4 597 -95 913 -95 913 -4" fill="none" stroke="#000"/>
</g>
<g class="edge">
<title>0x5d023fadde20-&gt;0x5d023e3502b0</title>
<path d="m808.62-187.91c-7.2 17.49-15.38 37.58-22.62 55.91-2.97 7.51-6.04 15.42-9.05 23.25" fill="none" stroke="#000"/>
<polygon points="780.17 -107.36 773.32 -99.28 773.63 -109.87" stroke="#000"/>
<text x="837.5" y="-120.8" font-family="Times,serif" font-size="14" text-anchor="middle">methodlist #0</text>
</g>
</g>
</svg>
