<?xml version="1.0" encoding="UTF-8"?>
<!DOCTYPE svg  PUBLIC '-//W3C//DTD SVG 1.1//EN'  'http://www.w3.org/Graphics/SVG/1.1/DTD/svg11.dtd'>
<svg width="792pt" height="509pt" viewBox="0 0 792 509" xmlns="http://www.w3.org/2000/svg" xmlns:xlink="http://www.w3.org/1999/xlink">
<g class="graph" transform="scale(1) translate(4 505)">
<title>mulle_objc_class</title>
<polygon points="-4 4 -4 -505 788 -505 788 4" fill="#fff" stroke="transparent"/>
<g class="node">
<title>0x5665f424fc40</title>
<a xlink:href="file:///./CGPoint.dot" xlink:title="&lt;TABLE&gt;">
<polygon points="423 -501 42 -501 42 -372 423 -372" fill="none" stroke="#000"/>
<polygon points="51.5 -478.5 51.5 -495.5 414.5 -495.5 414.5 -478.5" fill="blue" stroke="transparent"/>
<polygon points="51.5 -478.5 51.5 -495.5 414.5 -495.5 414.5 -478.5" fill="none" stroke="#000"/>
<text x="203.5" y="-483.3" fill="white" font-family="Times,serif" font-size="14">CGPoint</text>
<polygon points="51.5 -461.5 51.5 -478.5 186.5 -478.5 186.5 -461.5" fill="none" stroke="#000"/>
<text x="70.5" y="-466.3" font-family="Times,serif" font-size="14">allocationsize</text>
<polygon points="186.5 -461.5 186.5 -478.5 414.5 -478.5 414.5 -461.5" fill="none" stroke="#000"/>
<text x="291" y="-466.3" font-family="Times,serif" font-size="14">40</text>
<polygon points="51.5 -444.5 51.5 -461.5 186.5 -461.5 186.5 -444.5" fill="none" stroke="#000"/>
<text x="78" y="-449.3" font-family="Times,serif" font-size="14">inheritance</text>
<polygon points="186.5 -444.5 186.5 -461.5 414.5 -461.5 414.5 -444.5" fill="none" stroke="#000"/>
<text x="187.5" y="-449.3" font-family="Times,serif" font-size="14">superclass categories protocols</text>
<polygon points="51.5 -427.5 51.5 -444.5 186.5 -444.5 186.5 -427.5" fill="none" stroke="#000"/>
<text x="100.5" y="-432.3" font-family="Times,serif" font-size="14">state</text>
<polygon points="186.5 -427.5 186.5 -444.5 414.5 -444.5 414.5 -427.5" fill="none" stroke="#000"/>
<text x="287" y="-432.3" font-family="Times,serif" font-size="14">0x0</text>
<polygon points="51.5 -410.5 51.5 -427.5 186.5 -427.5 186.5 -410.5" fill="none" stroke="#000"/>
<text x="88" y="-415.3" font-family="Times,serif" font-size="14">ivarhash</text>
<polygon points="186.5 -410.5 186.5 -427.5 414.5 -427.5 414.5 -410.5" fill="none" stroke="#000"/>
<text x="257" y="-415.3" font-family="Times,serif" font-size="14">0xa8e101c2</text>
<polygon points="51.5 -393.5 51.5 -410.5 186.5 -410.5 186.5 -393.5" fill="none" stroke="#000"/>
<text x="52.5" y="-398.3" font-family="Times,serif" font-size="14">allocatedInstances</text>
<polygon points="186.5 -393.5 186.5 -410.5 414.5 -410.5 414.5 -393.5" fill="none" stroke="#000"/>
<text x="295.5" y="-398.3" font-family="Times,serif" font-size="14">0</text>
<polygon points="51.5 -376.5 51.5 -393.5 186.5 -393.5 186.5 -376.5" fill="none" stroke="#000"/>
<text x="88" y="-381.3" font-family="Times,serif" font-size="14">preloads</text>
<polygon points="186.5 -376.5 186.5 -393.5 414.5 -393.5 414.5 -376.5" fill="none" stroke="#000"/>
<text x="295.5" y="-381.3" font-family="Times,serif" font-size="14">0</text>
<polygon points="50 -376 50 -497 415 -497 415 -376" fill="none" stroke="#000"/>
</a>
</g>
<g class="node">
<title>0x5665f424fe20</title>
<a xlink:href="file:///./CGPoint.dot" xlink:title="&lt;TABLE&gt;">
<polygon points="345 -283 0 -283 0 -279 -4 -279 -4 -275 0 -275 0 -196 -4 -196 -4 -192 0 -192 0 -188 345 -188" fill="none" stroke="#000"/>
<polyline points="0 -279 4 -279 4 -275 0 -275" fill="none" stroke="#000"/>
<polyline points="0 -196 4 -196 4 -192 0 -192" fill="none" stroke="#000"/>
<polygon points="9.5 -260.5 9.5 -277.5 336.5 -277.5 336.5 -260.5" fill="#daa520" stroke="transparent"/>
<polygon points="9.5 -260.5 9.5 -277.5 336.5 -277.5 336.5 -260.5" fill="none" stroke="#000"/>
<text x="143.5" y="-265.3" fill="white" font-family="Times,serif" font-size="14">CGPoint</text>
<polygon points="9.5 -243.5 9.5 -260.5 108.5 -260.5 108.5 -243.5" fill="none" stroke="#000"/>
<text x="10.5" y="-248.3" font-family="Times,serif" font-size="14">allocationsize</text>
<polygon points="108.5 -243.5 108.5 -260.5 336.5 -260.5 336.5 -243.5" fill="none" stroke="#000"/>
<text x="208.5" y="-248.3" font-family="Times,serif" font-size="14">352</text>
<polygon points="9.5 -226.5 9.5 -243.5 108.5 -243.5 108.5 -226.5" fill="none" stroke="#000"/>
<text x="18" y="-231.3" font-family="Times,serif" font-size="14">inheritance</text>
<polygon points="108.5 -226.5 108.5 -243.5 336.5 -243.5 336.5 -226.5" fill="none" stroke="#000"/>
<text x="109.5" y="-231.3" font-family="Times,serif" font-size="14">superclass categories protocols</text>
<polygon points="9.5 -209.5 9.5 -226.5 108.5 -226.5 108.5 -209.5" fill="none" stroke="#000"/>
<text x="40.5" y="-214.3" font-family="Times,serif" font-size="14">state</text>
<polygon points="108.5 -209.5 108.5 -226.5 336.5 -226.5 336.5 -209.5" fill="none" stroke="#000"/>
<text x="204.5" y="-214.3" font-family="Times,serif" font-size="14">0x40</text>
<polygon points="9.5 -192.5 9.5 -209.5 108.5 -209.5 108.5 -192.5" fill="none" stroke="#000"/>
<text x="28" y="-197.3" font-family="Times,serif" font-size="14">preloads</text>
<polygon points="108.5 -192.5 108.5 -209.5 336.5 -209.5 336.5 -192.5" fill="none" stroke="#000"/>
<text x="217.5" y="-197.3" font-family="Times,serif" font-size="14">0</text>
<polygon points="8 -192 8 -279 337 -279 337 -192" fill="none" stroke="#000"/>
</a>
</g>
<g class="edge">
<title>0x5665f424fc40-&gt;0x5665f424fe20</title>
<path d="m153.71-371.86c-3.99 5.66-7.47 11.63-10.21 17.86-8.48 19.25-5.89 41.42 0.41 61.27" fill="none" stroke="#daa520"/>
<polygon points="147.25 -293.78 147.27 -283.19 140.64 -291.46" fill="#daa520" stroke="#daa520"/>
<text x="162" y="-342.8" fill="goldenrod" font-family="Times,serif" font-size="14" text-anchor="middle">meta</text>
</g>
<g class="node">
<title>0x5665f24152d0</title>
<polygon points="372.5 -298.5 372.5 -315.5 775.5 -315.5 775.5 -298.5" stroke="transparent"/>
<polygon points="372.5 -298.5 372.5 -315.5 775.5 -315.5 775.5 -298.5" fill="none" stroke="#000"/>
<text x="535.5" y="-303.3" fill="white" font-family="Times,serif" font-size="14">methodlist</text>
<polygon points="372.5 -226.5 372.5 -298.5 500.5 -298.5 500.5 -226.5" fill="none" stroke="#000"/>
<text x="420.5" y="-258.8" font-family="Times,serif" font-size="14">area</text>
<polygon points="500.5 -226.5 500.5 -298.5 775.5 -298.5 775.5 -226.5" fill="none" stroke="#000"/>
<polygon points="502.5 -279.5 502.5 -296.5 618.5 -296.5 618.5 -279.5" fill="none" stroke="#d3d3d3"/>
<text x="526" y="-284.3" font-family="Times,serif" font-size="14">signature</text>
<polygon points="618.5 -279.5 618.5 -296.5 773.5 -296.5 773.5 -279.5" fill="none" stroke="#d3d3d3"/>
<text x="665.5" y="-284.3" font-family="Times,serif" font-size="14">f16@0:8</text>
<polygon points="502.5 -262.5 502.5 -279.5 618.5 -279.5 618.5 -262.5" fill="none" stroke="#d3d3d3"/>
<text x="526.5" y="-267.3" font-family="Times,serif" font-size="14">methodid</text>
<polygon points="618.5 -262.5 618.5 -279.5 773.5 -279.5 773.5 -262.5" fill="none" stroke="#d3d3d3"/>
<text x="653" y="-267.3" font-family="Times,serif" font-size="14">0xb0f21449</text>
<polygon points="502.5 -245.5 502.5 -262.5 618.5 -262.5 618.5 -245.5" fill="none" stroke="#d3d3d3"/>
<text x="546.5" y="-250.3" font-family="Times,serif" font-size="14">bits</text>
<polygon points="618.5 -245.5 618.5 -262.5 773.5 -262.5 773.5 -245.5" fill="none" stroke="#d3d3d3"/>
<text x="660" y="-250.3" font-family="Times,serif" font-size="14">0x200000</text>
<polygon points="502.5 -228.5 502.5 -245.5 618.5 -245.5 618.5 -228.5" fill="none" stroke="#d3d3d3"/>
<text x="504" y="-233.3" font-family="Times,serif" font-size="14">implementation</text>
<polygon points="618.5 -228.5 618.5 -245.5 773.5 -245.5 773.5 -228.5" fill="none" stroke="#d3d3d3"/>
<text x="619.5" y="-233.3" font-family="Times,serif" font-size="14">0x00005665f22fa6a0</text>
<polygon points="501.5 -227.5 501.5 -297.5 774.5 -297.5 774.5 -227.5" fill="none" stroke="#d3d3d3"/>
<polygon points="372.5 -154.5 372.5 -226.5 500.5 -226.5 500.5 -154.5" fill="none" stroke="#000"/>
<text x="373.5" y="-186.8" font-family="Times,serif" font-size="14">translateWithX:y:</text>
<polygon points="500.5 -154.5 500.5 -226.5 775.5 -226.5 775.5 -154.5" fill="none" stroke="#000"/>
<polygon points="502.5 -207.5 502.5 -224.5 617.5 -224.5 617.5 -207.5" fill="none" stroke="#d3d3d3"/>
<text x="525.5" y="-212.3" font-family="Times,serif" font-size="14">signature</text>
<polygon points="617.5 -207.5 617.5 -224.5 773.5 -224.5 773.5 -207.5" fill="none" stroke="#d3d3d3"/>
<text x="640.5" y="-212.3" font-family="Times,serif" font-size="14">v24@0:8f16f20</text>
<polygon points="502.5 -190.5 502.5 -207.5 617.5 -207.5 617.5 -190.5" fill="none" stroke="#d3d3d3"/>
<text x="526" y="-195.3" font-family="Times,serif" font-size="14">methodid</text>
<polygon points="617.5 -190.5 617.5 -207.5 773.5 -207.5 773.5 -190.5" fill="none" stroke="#d3d3d3"/>
<text x="651.5" y="-195.3" font-family="Times,serif" font-size="14">0xb7ee7240</text>
<polygon points="502.5 -173.5 502.5 -190.5 617.5 -190.5 617.5 -173.5" fill="none" stroke="#d3d3d3"/>
<text x="546" y="-178.3" font-family="Times,serif" font-size="14">bits</text>
<polygon points="617.5 -173.5 617.5 -190.5 773.5 -190.5 773.5 -173.5" fill="none" stroke="#d3d3d3"/>
<text x="682" y="-178.3" font-family="Times,serif" font-size="14">0x0</text>
<polygon points="502.5 -156.5 502.5 -173.5 617.5 -173.5 617.5 -156.5" fill="none" stroke="#d3d3d3"/>
<text x="503.5" y="-161.3" font-family="Times,serif" font-size="14">implementation</text>
<polygon points="617.5 -156.5 617.5 -173.5 773.5 -173.5 773.5 -156.5" fill="none" stroke="#d3d3d3"/>
<text x="618.5" y="-161.3" font-family="Times,serif" font-size="14">0x00005665f22fa660</text>
<polygon points="501.5 -155.5 501.5 -225.5 774.5 -225.5 774.5 -155.5" fill="none" stroke="#d3d3d3"/>
<polygon points="371 -154 371 -317 776 -317 776 -154" fill="none" stroke="#000"/>
</g>
<g class="edge">
<title>0x5665f424fc40-&gt;0x5665f24152d0</title>
<path d="m341.33-371.99c24.96 14.56 51.95 30.32 78.4 45.75" fill="none" stroke="#000"/>
<polygon points="421.8 -329.08 428.67 -321.02 418.27 -323.04" stroke="#000"/>
<text x="445" y="-342.8" font-family="Times,serif" font-size="14" text-anchor="middle">methodlist #0</text>
</g>
<g class="edge">
<title>0x5665f424fe20-&gt;0x5665f424fc40</title>
<path d="m183.83-283.07c5.52-21.69 12.5-47.75 19.67-70.93 0.8-2.6 1.64-5.24 2.5-7.9" fill="none" stroke="#daa520"/>
<polygon points="202.74 -363.2 209.19 -371.6 209.39 -361.01" fill="#daa520" stroke="#daa520"/>
<text x="222" y="-342.8" fill="goldenrod" font-family="Times,serif" font-size="14" text-anchor="middle">meta</text>
</g>
<g class="edge">
<title>0x5665f424fe20-&gt;0x5665f424fc40</title>
<path d="m211.69-283.05c11.62-16.6 22.83-36.12 28.81-55.95 2.19-7.27 3.36-14.99 3.8-22.76" fill="none" stroke="blue"/>
<polygon points="240.81 -362.04 244.48 -371.98 247.81 -361.91" fill="blue" stroke="blue"/>
<text x="260.5" y="-342.8" fill="blue" font-family="Times,serif" font-size="14" text-anchor="middle">infra</text>
</g>
<g class="node">
<title>0x5665f2415298</title>
<polygon points="19.5 -76.5 19.5 -93.5 326.5 -93.5 326.5 -76.5" stroke="transparent"/>
<polygon points="19.5 -76.5 19.5 -93.5 326.5 -93.5 326.5 -76.5" fill="none" stroke="#000"/>
<text x="134.5" y="-81.3" fill="white" font-family="Times,serif" font-size="14">methodlist</text>
<polygon points="19.5 -4.5 19.5 -76.5 51.5 -76.5 51.5 -4.5" fill="none" stroke="#000"/>
<text x="20.5" y="-36.8" font-family="Times,serif" font-size="14">new</text>
<polygon points="51.5 -4.5 51.5 -76.5 326.5 -76.5 326.5 -4.5" fill="none" stroke="#000"/>
<polygon points="53.5 -57.5 53.5 -74.5 168.5 -74.5 168.5 -57.5" fill="none" stroke="#d3d3d3"/>
<text x="76.5" y="-62.3" font-family="Times,serif" font-size="14">signature</text>
<polygon points="168.5 -57.5 168.5 -74.5 324.5 -74.5 324.5 -57.5" fill="none" stroke="#d3d3d3"/>
<text x="211.5" y="-62.3" font-family="Times,serif" font-size="14">@16@0:8</text>
<polygon points="53.5 -40.5 53.5 -57.5 168.5 -57.5 168.5 -40.5" fill="none" stroke="#d3d3d3"/>
<text x="77" y="-45.3" font-family="Times,serif" font-size="14">methodid</text>
<polygon points="168.5 -40.5 168.5 -57.5 324.5 -57.5 324.5 -40.5" fill="none" stroke="#d3d3d3"/>
<text x="201.5" y="-45.3" font-family="Times,serif" font-size="14">0x89996112</text>
<polygon points="53.5 -23.5 53.5 -40.5 168.5 -40.5 168.5 -23.5" fill="none" stroke="#d3d3d3"/>
<text x="97" y="-28.3" font-family="Times,serif" font-size="14">bits</text>
<polygon points="168.5 -23.5 168.5 -40.5 324.5 -40.5 324.5 -23.5" fill="none" stroke="#d3d3d3"/>
<text x="215" y="-28.3" font-family="Times,serif" font-size="14">0x50000</text>
<polygon points="53.5 -6.5 53.5 -23.5 168.5 -23.5 168.5 -6.5" fill="none" stroke="#d3d3d3"/>
<text x="54.5" y="-11.3" font-family="Times,serif" font-size="14">implementation</text>
<polygon points="168.5 -6.5 168.5 -23.5 324.5 -23.5 324.5 -6.5" fill="none" stroke="#d3d3d3"/>
<text x="169.5" y="-11.3" font-family="Times,serif" font-size="14">0x00005665f22fa600</text>
<polygon points="52.5 -5.5 52.5 -75.5 325.5 -75.5 325.5 -5.5" fill="none" stroke="#d3d3d3"/>
<polygon points="18 -4 18 -95 327 -95 327 -4" fill="none" stroke="#000"/>
</g>
<g class="edge">
<title>0x5665f424fe20-&gt;0x5665f2415298</title>
<path d="m172.5-187.59v78.14" fill="none" stroke="#000"/>
<polygon points="176 -109.25 172.5 -99.25 169 -109.25" stroke="#000"/>
<text x="224" y="-120.8" font-family="Times,serif" font-size="14" text-anchor="middle">methodlist #0</text>
</g>
</g>
</svg>
