<?xml version="1.0" encoding="UTF-8"?>
<!DOCTYPE svg  PUBLIC '-//W3C//DTD SVG 1.1//EN'  'http://www.w3.org/Graphics/SVG/1.1/DTD/svg11.dtd'>
<svg width="1245pt" height="526pt" viewBox="0 0 1244.5 526" xmlns="http://www.w3.org/2000/svg" xmlns:xlink="http://www.w3.org/1999/xlink">
<g class="graph" transform="scale(1) translate(4 522)">
<title>mulle_objc_class</title>
<polygon points="-4 4 -4 -522 1240.5 -522 1240.5 4" fill="#fff" stroke="transparent"/>
<g class="node">
<title>0x5e1591178c40</title>
<a xlink:href="file:///./CGPoint.dot" xlink:title="&lt;TABLE&gt;">
<polygon points="802 -518 421 -518 421 -389 802 -389" fill="none" stroke="#000"/>
<polygon points="430.5 -495.5 430.5 -512.5 793.5 -512.5 793.5 -495.5" fill="blue" stroke="transparent"/>
<polygon points="430.5 -495.5 430.5 -512.5 793.5 -512.5 793.5 -495.5" fill="none" stroke="#000"/>
<text x="582.5" y="-500.3" fill="white" font-family="Times,serif" font-size="14">CGPoint</text>
<polygon points="430.5 -478.5 430.5 -495.5 565.5 -495.5 565.5 -478.5" fill="none" stroke="#000"/>
<text x="449.5" y="-483.3" font-family="Times,serif" font-size="14">allocationsize</text>
<polygon points="565.5 -478.5 565.5 -495.5 793.5 -495.5 793.5 -478.5" fill="none" stroke="#000"/>
<text x="670" y="-483.3" font-family="Times,serif" font-size="14">40</text>
<polygon points="430.5 -461.5 430.5 -478.5 565.5 -478.5 565.5 -461.5" fill="none" stroke="#000"/>
<text x="457" y="-466.3" font-family="Times,serif" font-size="14">inheritance</text>
<polygon points="565.5 -461.5 565.5 -478.5 793.5 -478.5 793.5 -461.5" fill="none" stroke="#000"/>
<text x="566.5" y="-466.3" font-family="Times,serif" font-size="14">superclass categories protocols</text>
<polygon points="430.5 -444.5 430.5 -461.5 565.5 -461.5 565.5 -444.5" fill="none" stroke="#000"/>
<text x="479.5" y="-449.3" font-family="Times,serif" font-size="14">state</text>
<polygon points="565.5 -444.5 565.5 -461.5 793.5 -461.5 793.5 -444.5" fill="none" stroke="#000"/>
<text x="666" y="-449.3" font-family="Times,serif" font-size="14">0x0</text>
<polygon points="430.5 -427.5 430.5 -444.5 565.5 -444.5 565.5 -427.5" fill="none" stroke="#000"/>
<text x="467" y="-432.3" font-family="Times,serif" font-size="14">ivarhash</text>
<polygon points="565.5 -427.5 565.5 -444.5 793.5 -444.5 793.5 -427.5" fill="none" stroke="#000"/>
<text x="636" y="-432.3" font-family="Times,serif" font-size="14">0xa8e101c2</text>
<polygon points="430.5 -410.5 430.5 -427.5 565.5 -427.5 565.5 -410.5" fill="none" stroke="#000"/>
<text x="431.5" y="-415.3" font-family="Times,serif" font-size="14">allocatedInstances</text>
<polygon points="565.5 -410.5 565.5 -427.5 793.5 -427.5 793.5 -410.5" fill="none" stroke="#000"/>
<text x="674.5" y="-415.3" font-family="Times,serif" font-size="14">0</text>
<polygon points="430.5 -393.5 430.5 -410.5 565.5 -410.5 565.5 -393.5" fill="none" stroke="#000"/>
<text x="467" y="-398.3" font-family="Times,serif" font-size="14">preloads</text>
<polygon points="565.5 -393.5 565.5 -410.5 793.5 -410.5 793.5 -393.5" fill="none" stroke="#000"/>
<text x="674.5" y="-398.3" font-family="Times,serif" font-size="14">0</text>
<polygon points="429 -393 429 -514 794 -514 794 -393" fill="none" stroke="#000"/>
</a>
</g>
<g class="node">
<title>0x5e1591178e20</title>
<a xlink:href="file:///./CGPoint.dot" xlink:title="&lt;TABLE&gt;">
<polygon points="784 -300 439 -300 439 -296 435 -296 435 -292 439 -292 439 -213 435 -213 435 -209 439 -209 439 -205 784 -205" fill="none" stroke="#000"/>
<polyline points="439 -296 443 -296 443 -292 439 -292" fill="none" stroke="#000"/>
<polyline points="439 -213 443 -213 443 -209 439 -209" fill="none" stroke="#000"/>
<polygon points="448.5 -277.5 448.5 -294.5 775.5 -294.5 775.5 -277.5" fill="#daa520" stroke="transparent"/>
<polygon points="448.5 -277.5 448.5 -294.5 775.5 -294.5 775.5 -277.5" fill="none" stroke="#000"/>
<text x="582.5" y="-282.3" fill="white" font-family="Times,serif" font-size="14">CGPoint</text>
<polygon points="448.5 -260.5 448.5 -277.5 547.5 -277.5 547.5 -260.5" fill="none" stroke="#000"/>
<text x="449.5" y="-265.3" font-family="Times,serif" font-size="14">allocationsize</text>
<polygon points="547.5 -260.5 547.5 -277.5 775.5 -277.5 775.5 -260.5" fill="none" stroke="#000"/>
<text x="647.5" y="-265.3" font-family="Times,serif" font-size="14">352</text>
<polygon points="448.5 -243.5 448.5 -260.5 547.5 -260.5 547.5 -243.5" fill="none" stroke="#000"/>
<text x="457" y="-248.3" font-family="Times,serif" font-size="14">inheritance</text>
<polygon points="547.5 -243.5 547.5 -260.5 775.5 -260.5 775.5 -243.5" fill="none" stroke="#000"/>
<text x="548.5" y="-248.3" font-family="Times,serif" font-size="14">superclass categories protocols</text>
<polygon points="448.5 -226.5 448.5 -243.5 547.5 -243.5 547.5 -226.5" fill="none" stroke="#000"/>
<text x="479.5" y="-231.3" font-family="Times,serif" font-size="14">state</text>
<polygon points="547.5 -226.5 547.5 -243.5 775.5 -243.5 775.5 -226.5" fill="none" stroke="#000"/>
<text x="643.5" y="-231.3" font-family="Times,serif" font-size="14">0x40</text>
<polygon points="448.5 -209.5 448.5 -226.5 547.5 -226.5 547.5 -209.5" fill="none" stroke="#000"/>
<text x="467" y="-214.3" font-family="Times,serif" font-size="14">preloads</text>
<polygon points="547.5 -209.5 547.5 -226.5 775.5 -226.5 775.5 -209.5" fill="none" stroke="#000"/>
<text x="656.5" y="-214.3" font-family="Times,serif" font-size="14">0</text>
<polygon points="447 -209 447 -296 776 -296 776 -209" fill="none" stroke="#000"/>
</a>
</g>
<g class="edge">
<title>0x5e1591178c40-&gt;0x5e1591178e20</title>
<path d="m559.97-388.64c-2.97 5.75-5.53 11.66-7.47 17.64-6.83 21.09 0.01 43.09 11.14 62.28" fill="none" stroke="#daa520"/>
<polygon points="566.68 -310.46 569.02 -300.12 560.75 -306.74" fill="#daa520" stroke="#daa520"/>
<text x="571" y="-359.8" fill="goldenrod" font-family="Times,serif" font-size="14" text-anchor="middle">meta</text>
</g>
<g class="node">
<title>0x5e158f7132d0</title>
<polygon points="9.5 -315.5 9.5 -332.5 412.5 -332.5 412.5 -315.5" stroke="transparent"/>
<polygon points="9.5 -315.5 9.5 -332.5 412.5 -332.5 412.5 -315.5" fill="none" stroke="#000"/>
<text x="172.5" y="-320.3" fill="white" font-family="Times,serif" font-size="14">methodlist</text>
<polygon points="9.5 -243.5 9.5 -315.5 137.5 -315.5 137.5 -243.5" fill="none" stroke="#000"/>
<text x="57.5" y="-275.8" font-family="Times,serif" font-size="14">area</text>
<polygon points="137.5 -243.5 137.5 -315.5 412.5 -315.5 412.5 -243.5" fill="none" stroke="#000"/>
<polygon points="139.5 -296.5 139.5 -313.5 255.5 -313.5 255.5 -296.5" fill="none" stroke="#d3d3d3"/>
<text x="163" y="-301.3" font-family="Times,serif" font-size="14">signature</text>
<polygon points="255.5 -296.5 255.5 -313.5 410.5 -313.5 410.5 -296.5" fill="none" stroke="#d3d3d3"/>
<text x="302.5" y="-301.3" font-family="Times,serif" font-size="14">f16@0:8</text>
<polygon points="139.5 -279.5 139.5 -296.5 255.5 -296.5 255.5 -279.5" fill="none" stroke="#d3d3d3"/>
<text x="163.5" y="-284.3" font-family="Times,serif" font-size="14">methodid</text>
<polygon points="255.5 -279.5 255.5 -296.5 410.5 -296.5 410.5 -279.5" fill="none" stroke="#d3d3d3"/>
<text x="290" y="-284.3" font-family="Times,serif" font-size="14">0xb0f21449</text>
<polygon points="139.5 -262.5 139.5 -279.5 255.5 -279.5 255.5 -262.5" fill="none" stroke="#d3d3d3"/>
<text x="183.5" y="-267.3" font-family="Times,serif" font-size="14">bits</text>
<polygon points="255.5 -262.5 255.5 -279.5 410.5 -279.5 410.5 -262.5" fill="none" stroke="#d3d3d3"/>
<text x="297" y="-267.3" font-family="Times,serif" font-size="14">0x200000</text>
<polygon points="139.5 -245.5 139.5 -262.5 255.5 -262.5 255.5 -245.5" fill="none" stroke="#d3d3d3"/>
<text x="141" y="-250.3" font-family="Times,serif" font-size="14">implementation</text>
<polygon points="255.5 -245.5 255.5 -262.5 410.5 -262.5 410.5 -245.5" fill="none" stroke="#d3d3d3"/>
<text x="257" y="-250.3" font-family="Times,serif" font-size="14">0x00005e158f5f86c0</text>
<polygon points="138.5 -244.5 138.5 -314.5 411.5 -314.5 411.5 -244.5" fill="none" stroke="#d3d3d3"/>
<polygon points="9.5 -171.5 9.5 -243.5 137.5 -243.5 137.5 -171.5" fill="none" stroke="#000"/>
<text x="10.5" y="-203.8" font-family="Times,serif" font-size="14">translateWithX:y:</text>
<polygon points="137.5 -171.5 137.5 -243.5 412.5 -243.5 412.5 -171.5" fill="none" stroke="#000"/>
<polygon points="139.5 -224.5 139.5 -241.5 254.5 -241.5 254.5 -224.5" fill="none" stroke="#d3d3d3"/>
<text x="162.5" y="-229.3" font-family="Times,serif" font-size="14">signature</text>
<polygon points="254.5 -224.5 254.5 -241.5 410.5 -241.5 410.5 -224.5" fill="none" stroke="#d3d3d3"/>
<text x="277.5" y="-229.3" font-family="Times,serif" font-size="14">v24@0:8f16f20</text>
<polygon points="139.5 -207.5 139.5 -224.5 254.5 -224.5 254.5 -207.5" fill="none" stroke="#d3d3d3"/>
<text x="163" y="-212.3" font-family="Times,serif" font-size="14">methodid</text>
<polygon points="254.5 -207.5 254.5 -224.5 410.5 -224.5 410.5 -207.5" fill="none" stroke="#d3d3d3"/>
<text x="288.5" y="-212.3" font-family="Times,serif" font-size="14">0xb7ee7240</text>
<polygon points="139.5 -190.5 139.5 -207.5 254.5 -207.5 254.5 -190.5" fill="none" stroke="#d3d3d3"/>
<text x="183" y="-195.3" font-family="Times,serif" font-size="14">bits</text>
<polygon points="254.5 -190.5 254.5 -207.5 410.5 -207.5 410.5 -190.5" fill="none" stroke="#d3d3d3"/>
<text x="319" y="-195.3" font-family="Times,serif" font-size="14">0x0</text>
<polygon points="139.5 -173.5 139.5 -190.5 254.5 -190.5 254.5 -173.5" fill="none" stroke="#d3d3d3"/>
<text x="140.5" y="-178.3" font-family="Times,serif" font-size="14">implementation</text>
<polygon points="254.5 -173.5 254.5 -190.5 410.5 -190.5 410.5 -173.5" fill="none" stroke="#d3d3d3"/>
<text x="255.5" y="-178.3" font-family="Times,serif" font-size="14">0x00005e158f5f8680</text>
<polygon points="138.5 -172.5 138.5 -242.5 411.5 -242.5 411.5 -172.5" fill="none" stroke="#d3d3d3"/>
<polygon points="8 -171 8 -334 413 -334 413 -171" fill="none" stroke="#000"/>
</g>
<g class="edge">
<title>0x5e1591178c40-&gt;0x5e158f7132d0</title>
<path d="m479.8-388.85c-12.28 6.01-24.53 12.03-36.3 17.85-18.49 9.15-37.78 18.76-56.99 28.38" fill="none" stroke="#000"/>
<polygon points="387.9 -339.4 377.39 -338.05 384.76 -345.66" stroke="#000"/>
<text x="495" y="-359.8" font-family="Times,serif" font-size="14" text-anchor="middle">methodlist #0</text>
</g>
<g class="node">
<title>0x5e158f7133d0</title>
<polygon points="811.5 -288.5 811.5 -305.5 1227.5 -305.5 1227.5 -288.5" stroke="transparent"/>
<polygon points="811.5 -288.5 811.5 -305.5 1227.5 -305.5 1227.5 -288.5" fill="none" stroke="#000"/>
<text x="981" y="-293.3" fill="white" font-family="Times,serif" font-size="14">methodlist</text>
<polygon points="811.5 -271.5 811.5 -288.5 952.5 -288.5 952.5 -271.5" fill="none" stroke="#000"/>
<text x="850.5" y="-276.3" font-family="Times,serif" font-size="14">category</text>
<polygon points="952.5 -271.5 952.5 -288.5 1227.5 -288.5 1227.5 -271.5" fill="none" stroke="#000"/>
<text x="1056" y="-276.3" font-family="Times,serif" font-size="14">Additions</text>
<polygon points="811.5 -199.5 811.5 -271.5 952.5 -271.5 952.5 -199.5" fill="none" stroke="#000"/>
<text x="812.5" y="-231.8" font-family="Times,serif" font-size="14">rotateWithRadians:</text>
<polygon points="952.5 -199.5 952.5 -271.5 1227.5 -271.5 1227.5 -199.5" fill="none" stroke="#000"/>
<polygon points="954.5 -252.5 954.5 -269.5 1069.5 -269.5 1069.5 -252.5" fill="none" stroke="#d3d3d3"/>
<text x="977.5" y="-257.3" font-family="Times,serif" font-size="14">signature</text>
<polygon points="1069.5 -252.5 1069.5 -269.5 1225.5 -269.5 1225.5 -252.5" fill="none" stroke="#d3d3d3"/>
<text x="1104" y="-257.3" font-family="Times,serif" font-size="14">v20@0:8f16</text>
<polygon points="954.5 -235.5 954.5 -252.5 1069.5 -252.5 1069.5 -235.5" fill="none" stroke="#d3d3d3"/>
<text x="978" y="-240.3" font-family="Times,serif" font-size="14">methodid</text>
<polygon points="1069.5 -235.5 1069.5 -252.5 1225.5 -252.5 1225.5 -235.5" fill="none" stroke="#d3d3d3"/>
<text x="1105" y="-240.3" font-family="Times,serif" font-size="14">0x8a8efb2d</text>
<polygon points="954.5 -218.5 954.5 -235.5 1069.5 -235.5 1069.5 -218.5" fill="none" stroke="#d3d3d3"/>
<text x="998" y="-223.3" font-family="Times,serif" font-size="14">bits</text>
<polygon points="1069.5 -218.5 1069.5 -235.5 1225.5 -235.5 1225.5 -218.5" fill="none" stroke="#d3d3d3"/>
<text x="1134" y="-223.3" font-family="Times,serif" font-size="14">0x0</text>
<polygon points="954.5 -201.5 954.5 -218.5 1069.5 -218.5 1069.5 -201.5" fill="none" stroke="#d3d3d3"/>
<text x="955.5" y="-206.3" font-family="Times,serif" font-size="14">implementation</text>
<polygon points="1069.5 -201.5 1069.5 -218.5 1225.5 -218.5 1225.5 -201.5" fill="none" stroke="#d3d3d3"/>
<text x="1070.5" y="-206.3" font-family="Times,serif" font-size="14">0x00005e158f5f8750</text>
<polygon points="953.5 -200.5 953.5 -270.5 1226.5 -270.5 1226.5 -200.5" fill="none" stroke="#d3d3d3"/>
<polygon points="810.5 -198.5 810.5 -306.5 1228.5 -306.5 1228.5 -198.5" fill="none" stroke="#000"/>
</g>
<g class="edge">
<title>0x5e1591178c40-&gt;0x5e158f7133d0</title>
<path d="m741.72-388.99c48.52 23.67 103.49 50.48 151.65 73.97" fill="none" stroke="#000"/>
<polygon points="895.14 -318.05 902.59 -310.52 892.07 -311.76" stroke="#000"/>
<text x="854" y="-359.8" font-family="Times,serif" font-size="14" text-anchor="middle">methodlist #1</text>
</g>
<g class="edge">
<title>0x5e1591178e20-&gt;0x5e1591178c40</title>
<path d="m611.5-300.03v-78.63" fill="none" stroke="#daa520"/>
<polygon points="608 -378.99 611.5 -388.99 615 -378.99" fill="#daa520" stroke="#daa520"/>
<text x="630" y="-359.8" fill="goldenrod" font-family="Times,serif" font-size="14" text-anchor="middle">meta</text>
</g>
<g class="edge">
<title>0x5e1591178e20-&gt;0x5e1591178c40</title>
<path d="m638.61-300.11c9.28-21.34 16.16-47.13 10.89-70.89-0.6-2.69-1.29-5.4-2.07-8.11" fill="none" stroke="blue"/>
<polygon points="644.01 -378.32 644.28 -388.91 650.67 -380.46" fill="blue" stroke="blue"/>
<text x="668.5" y="-359.8" fill="blue" font-family="Times,serif" font-size="14" text-anchor="middle">infra</text>
</g>
<g class="node">
<title>0x5e158f713298</title>
<polygon points="271.5 -85 271.5 -102 578.5 -102 578.5 -85" stroke="transparent"/>
<polygon points="271.5 -85 271.5 -102 578.5 -102 578.5 -85" fill="none" stroke="#000"/>
<text x="386.5" y="-89.8" fill="white" font-family="Times,serif" font-size="14">methodlist</text>
<polygon points="271.5 -13 271.5 -85 303.5 -85 303.5 -13" fill="none" stroke="#000"/>
<text x="272.5" y="-45.3" font-family="Times,serif" font-size="14">new</text>
<polygon points="303.5 -13 303.5 -85 578.5 -85 578.5 -13" fill="none" stroke="#000"/>
<polygon points="305.5 -66 305.5 -83 420.5 -83 420.5 -66" fill="none" stroke="#d3d3d3"/>
<text x="328.5" y="-70.8" font-family="Times,serif" font-size="14">signature</text>
<polygon points="420.5 -66 420.5 -83 576.5 -83 576.5 -66" fill="none" stroke="#d3d3d3"/>
<text x="463.5" y="-70.8" font-family="Times,serif" font-size="14">@16@0:8</text>
<polygon points="305.5 -49 305.5 -66 420.5 -66 420.5 -49" fill="none" stroke="#d3d3d3"/>
<text x="329" y="-53.8" font-family="Times,serif" font-size="14">methodid</text>
<polygon points="420.5 -49 420.5 -66 576.5 -66 576.5 -49" fill="none" stroke="#d3d3d3"/>
<text x="453.5" y="-53.8" font-family="Times,serif" font-size="14">0x89996112</text>
<polygon points="305.5 -32 305.5 -49 420.5 -49 420.5 -32" fill="none" stroke="#d3d3d3"/>
<text x="349" y="-36.8" font-family="Times,serif" font-size="14">bits</text>
<polygon points="420.5 -32 420.5 -49 576.5 -49 576.5 -32" fill="none" stroke="#d3d3d3"/>
<text x="467" y="-36.8" font-family="Times,serif" font-size="14">0x50000</text>
<polygon points="305.5 -15 305.5 -32 420.5 -32 420.5 -15" fill="none" stroke="#d3d3d3"/>
<text x="306.5" y="-19.8" font-family="Times,serif" font-size="14">implementation</text>
<polygon points="420.5 -15 420.5 -32 576.5 -32 576.5 -15" fill="none" stroke="#d3d3d3"/>
<text x="421.5" y="-19.8" font-family="Times,serif" font-size="14">0x00005e158f5f8620</text>
<polygon points="304.5 -14 304.5 -84 577.5 -84 577.5 -14" fill="none" stroke="#d3d3d3"/>
<polygon points="270 -12.5 270 -103.5 579 -103.5 579 -12.5" fill="none" stroke="#000"/>
</g>
<g class="edge">
<title>0x5e1591178e20-&gt;0x5e158f713298</title>
<path d="m566.23-204.9c-26.29 27.07-59.6 61.35-87.31 89.88" fill="none" stroke="#000"/>
<polygon points="481.11 -112.25 471.63 -107.52 476.09 -117.13" stroke="#000"/>
<text x="559" y="-137.8" font-family="Times,serif" font-size="14" text-anchor="middle">methodlist #0</text>
</g>
<g class="node">
<title>0x5e158f713398</title>
<polygon points="614.5 -94 614.5 -111 982.5 -111 982.5 -94" stroke="transparent"/>
<polygon points="614.5 -94 614.5 -111 982.5 -111 982.5 -94" fill="none" stroke="#000"/>
<text x="760" y="-98.8" fill="white" font-family="Times,serif" font-size="14">methodlist</text>
<polygon points="614.5 -77 614.5 -94 707.5 -94 707.5 -77" fill="none" stroke="#000"/>
<text x="629.5" y="-81.8" font-family="Times,serif" font-size="14">category</text>
<polygon points="707.5 -77 707.5 -94 982.5 -94 982.5 -77" fill="none" stroke="#000"/>
<text x="811" y="-81.8" font-family="Times,serif" font-size="14">Additions</text>
<polygon points="614.5 -5 614.5 -77 707.5 -77 707.5 -5" fill="none" stroke="#000"/>
<text x="615.5" y="-37.3" font-family="Times,serif" font-size="14">newWithX:y:</text>
<polygon points="707.5 -5 707.5 -77 982.5 -77 982.5 -5" fill="none" stroke="#000"/>
<polygon points="709.5 -58 709.5 -75 824.5 -75 824.5 -58" fill="none" stroke="#d3d3d3"/>
<text x="732.5" y="-62.8" font-family="Times,serif" font-size="14">signature</text>
<polygon points="824.5 -58 824.5 -75 980.5 -75 980.5 -58" fill="none" stroke="#d3d3d3"/>
<text x="844.5" y="-62.8" font-family="Times,serif" font-size="14">@24@0:8f16f20</text>
<polygon points="709.5 -41 709.5 -58 824.5 -58 824.5 -41" fill="none" stroke="#d3d3d3"/>
<text x="733" y="-45.8" font-family="Times,serif" font-size="14">methodid</text>
<polygon points="824.5 -41 824.5 -58 980.5 -58 980.5 -41" fill="none" stroke="#d3d3d3"/>
<text x="858.5" y="-45.8" font-family="Times,serif" font-size="14">0xc42e0007</text>
<polygon points="709.5 -24 709.5 -41 824.5 -41 824.5 -24" fill="none" stroke="#d3d3d3"/>
<text x="753" y="-28.8" font-family="Times,serif" font-size="14">bits</text>
<polygon points="824.5 -24 824.5 -41 980.5 -41 980.5 -24" fill="none" stroke="#d3d3d3"/>
<text x="871" y="-28.8" font-family="Times,serif" font-size="14">0x50000</text>
<polygon points="709.5 -7 709.5 -24 824.5 -24 824.5 -7" fill="none" stroke="#d3d3d3"/>
<text x="710.5" y="-11.8" font-family="Times,serif" font-size="14">implementation</text>
<polygon points="824.5 -7 824.5 -24 980.5 -24 980.5 -7" fill="none" stroke="#d3d3d3"/>
<text x="825.5" y="-11.8" font-family="Times,serif" font-size="14">0x00005e158f5f8700</text>
<polygon points="708.5 -6 708.5 -76 981.5 -76 981.5 -6" fill="none" stroke="#d3d3d3"/>
<polygon points="613.5 -4 613.5 -112 983.5 -112 983.5 -4" fill="none" stroke="#000"/>
</g>
<g class="edge">
<title>0x5e1591178e20-&gt;0x5e158f713398</title>
<path d="m656.77-204.9c23.71 24.41 53.12 54.69 79 81.32" fill="none" stroke="#000"/>
<polygon points="738.51 -125.78 742.96 -116.17 733.48 -120.9" stroke="#000"/>
<text x="773" y="-137.8" font-family="Times,serif" font-size="14" text-anchor="middle">methodlist #1</text>
</g>
</g>
</svg>
