<?xml version="1.0" encoding="UTF-8"?>
<!DOCTYPE svg  PUBLIC '-//W3C//DTD SVG 1.1//EN'  'http://www.w3.org/Graphics/SVG/1.1/DTD/svg11.dtd'>
<svg width="436pt" height="198pt" viewBox="0 0 436 198" xmlns="http://www.w3.org/2000/svg" xmlns:xlink="http://www.w3.org/1999/xlink">
<g class="graph" transform="scale(1) translate(4 194)">
<title>mulle_objc_class</title>
<polygon points="-4 4 -4 -194 432 -194 432 4" fill="#fff" stroke="transparent"/>
<g class="node">
<title>0x5a0930e84c40</title>
<a xlink:href="file:///./CGPoint.dot" xlink:title="&lt;TABLE&gt;">
<polygon points="254 -190 174 -190 174 -154 254 -154" fill="none" stroke="#000"/>
<polygon points="183 -163 183 -180 245 -180 245 -163" fill="blue" stroke="transparent"/>
<polygon points="183 -163 183 -180 245 -180 245 -163" fill="none" stroke="#000"/>
<text x="184.5" y="-167.8" fill="white" font-family="Times,serif" font-size="14">CGPoint</text>
<polygon points="182 -162.5 182 -181.5 246 -181.5 246 -162.5" fill="none" stroke="#000"/>
</a>
</g>
<g class="node">
<title>0x5a093093d298</title>
<polygon points="9 -80.5 9 -97.5 419 -97.5 419 -80.5" stroke="transparent"/>
<polygon points="9 -80.5 9 -97.5 419 -97.5 419 -80.5" fill="none" stroke="#000"/>
<text x="175.5" y="-85.3" fill="white" font-family="Times,serif" font-size="14">methodlist</text>
<polygon points="9 -42.5 9 -80.5 137 -80.5 137 -42.5" fill="none" stroke="#000"/>
<text x="57" y="-57.8" font-family="Times,serif" font-size="14">area</text>
<polygon points="137 -42.5 137 -80.5 419 -80.5 419 -42.5" fill="none" stroke="#000"/>
<polygon points="139 -61.5 139 -78.5 254 -78.5 254 -61.5" fill="none" stroke="#d3d3d3"/>
<text x="162.5" y="-66.3" font-family="Times,serif" font-size="14">methodid</text>
<polygon points="254 -61.5 254 -78.5 417 -78.5 417 -61.5" fill="none" stroke="#d3d3d3"/>
<text x="292.5" y="-66.3" font-family="Times,serif" font-size="14">0xb0f21449</text>
<polygon points="139 -44.5 139 -61.5 254 -61.5 254 -44.5" fill="none" stroke="#d3d3d3"/>
<text x="140" y="-49.3" font-family="Times,serif" font-size="14">implementation</text>
<polygon points="254 -44.5 254 -61.5 417 -61.5 417 -44.5" fill="none" stroke="#d3d3d3"/>
<text x="255" y="-49.3" font-family="Times,serif" font-size="14">0x00005a0930824640</text>
<polygon points="138 -43.5 138 -79.5 418 -79.5 418 -43.5" fill="none" stroke="#d3d3d3"/>
<polygon points="9 -4.5 9 -42.5 137 -42.5 137 -4.5" fill="none" stroke="#000"/>
<text x="10" y="-19.8" font-family="Times,serif" font-size="14">translateWithX:y:</text>
<polygon points="137 -4.5 137 -42.5 419 -42.5 419 -4.5" fill="none" stroke="#000"/>
<polygon points="139 -23.5 139 -40.5 254 -40.5 254 -23.5" fill="none" stroke="#d3d3d3"/>
<text x="162.5" y="-28.3" font-family="Times,serif" font-size="14">methodid</text>
<polygon points="254 -23.5 254 -40.5 417 -40.5 417 -23.5" fill="none" stroke="#d3d3d3"/>
<text x="291.5" y="-28.3" font-family="Times,serif" font-size="14">0xb7ee7240</text>
<polygon points="139 -6.5 139 -23.5 254 -23.5 254 -6.5" fill="none" stroke="#d3d3d3"/>
<text x="140" y="-11.3" font-family="Times,serif" font-size="14">implementation</text>
<polygon points="254 -6.5 254 -23.5 417 -23.5 417 -6.5" fill="none" stroke="#d3d3d3"/>
<text x="255" y="-11.3" font-family="Times,serif" font-size="14">0x00005a0930824600</text>
<polygon points="138 -5.5 138 -41.5 418 -41.5 418 -5.5" fill="none" stroke="#d3d3d3"/>
<polygon points="8 -4 8 -99 420 -99 420 -4" fill="none" stroke="#000"/>
</g>
<g class="edge">
<title>0x5a0930e84c40-&gt;0x5a093093d298</title>
<path d="m214-153.77v40.42" fill="none" stroke="#000"/>
<polygon points="217.5 -113.09 214 -103.09 210.5 -113.09" stroke="#000"/>
<text x="265.5" y="-124.8" font-family="Times,serif" font-size="14" text-anchor="middle">methodlist #0</text>
</g>
</g>
</svg>
