<?xml version="1.0" encoding="UTF-8" standalone="no"?>
<!DOCTYPE svg PUBLIC "-//W3C//DTD SVG 1.1//EN"
 "http://www.w3.org/Graphics/SVG/1.1/DTD/svg11.dtd">
<!-- Generated by graphviz version 2.43.0 (0)
 -->
<!-- Title: mulle_objc_class Pages: 1 -->
<svg width="1231pt" height="458pt"
 viewBox="0.00 0.00 1231.00 458.00" xmlns="http://www.w3.org/2000/svg" xmlns:xlink="http://www.w3.org/1999/xlink">
<g id="graph0" class="graph" transform="scale(1 1) rotate(0) translate(4 454)">
<title>mulle_objc_class</title>
<polygon fill="white" stroke="transparent" points="-4,4 -4,-454 1227,-454 1227,4 -4,4"/>
<!-- 0x642b183de690 -->
<g id="node1" class="node">
<title>0x642b183de690</title>
<polygon fill="none" stroke="black" points="771.5,-450 717.5,-450 717.5,-414 771.5,-414 771.5,-450"/>
<polygon fill="blue" stroke="transparent" points="737.5,-423 737.5,-440 751.5,-440 751.5,-423 737.5,-423"/>
<polygon fill="none" stroke="black" points="737.5,-423 737.5,-440 751.5,-440 751.5,-423 737.5,-423"/>
<text text-anchor="start" x="738.5" y="-427.8" font-family="Times,serif" font-size="14.00" fill="white">D</text>
<polygon fill="none" stroke="black" points="736.5,-422.5 736.5,-441.5 752.5,-441.5 752.5,-422.5 736.5,-422.5"/>
</g>
<!-- 0x642b183de0e0 -->
<g id="node2" class="node">
<title>0x642b183de0e0</title>
<polygon fill="none" stroke="black" points="463.5,-350.5 409.5,-350.5 409.5,-314.5 463.5,-314.5 463.5,-350.5"/>
<polygon fill="blue" stroke="transparent" points="429.5,-323.5 429.5,-340.5 443.5,-340.5 443.5,-323.5 429.5,-323.5"/>
<polygon fill="none" stroke="black" points="429.5,-323.5 429.5,-340.5 443.5,-340.5 443.5,-323.5 429.5,-323.5"/>
<text text-anchor="start" x="431" y="-328.3" font-family="Times,serif" font-size="14.00" fill="white">C</text>
<polygon fill="none" stroke="black" points="428.5,-323 428.5,-342 444.5,-342 444.5,-323 428.5,-323"/>
</g>
<!-- 0x642b183de690&#45;&gt;0x642b183de0e0 -->
<g id="edge1" class="edge">
<title>0x642b183de690&#45;&gt;0x642b183de0e0</title>
<path fill="none" stroke="black" stroke-width="3" d="M717.49,-426.66C685.36,-421.14 630.3,-410.54 584.5,-396 545.4,-383.58 502.38,-364.8 472.84,-351.07"/>
<polygon fill="black" stroke="black" stroke-width="3" points="474.29,-347.88 463.75,-346.8 471.32,-354.22 474.29,-347.88"/>
<text text-anchor="middle" x="605" y="-384.8" font-family="Times,serif" font-size="14.00">super</text>
</g>
<!-- 0x642b183dd660 -->
<g id="node3" class="node">
<title>0x642b183dd660</title>
<polygon fill="none" stroke="black" points="157.5,-247 103.5,-247 103.5,-211 157.5,-211 157.5,-247"/>
<polygon fill="blue" stroke="transparent" points="124.5,-220 124.5,-237 136.5,-237 136.5,-220 124.5,-220"/>
<polygon fill="none" stroke="black" points="124.5,-220 124.5,-237 136.5,-237 136.5,-220 124.5,-220"/>
<text text-anchor="start" x="125.5" y="-224.8" font-family="Times,serif" font-size="14.00" fill="white">Y</text>
<polygon fill="none" stroke="black" points="123.5,-219.5 123.5,-238.5 137.5,-238.5 137.5,-219.5 123.5,-219.5"/>
</g>
<!-- 0x642b183de690&#45;&gt;0x642b183dd660 -->
<g id="edge2" class="edge">
<title>0x642b183de690&#45;&gt;0x642b183dd660</title>
<path fill="none" stroke="black" d="M717.48,-431.47C643.83,-431.83 434.49,-426.75 276.5,-363 220.68,-340.48 208.31,-327.3 166.5,-284 158.43,-275.65 151.03,-265.27 145.06,-255.85"/>
<polygon fill="black" stroke="black" points="147.99,-253.93 139.8,-247.21 142.01,-257.57 147.99,-253.93"/>
<text text-anchor="middle" x="338.5" y="-328.8" font-family="Times,serif" font-size="14.00">protocol class #0</text>
</g>
<!-- 0x642b183dd130 -->
<g id="node5" class="node">
<title>0x642b183dd130</title>
<polygon fill="none" stroke="black" points="666.5,-247 612.5,-247 612.5,-211 666.5,-211 666.5,-247"/>
<polygon fill="blue" stroke="transparent" points="633.5,-220 633.5,-237 645.5,-237 645.5,-220 633.5,-220"/>
<polygon fill="none" stroke="black" points="633.5,-220 633.5,-237 645.5,-237 645.5,-220 633.5,-220"/>
<text text-anchor="start" x="634.5" y="-224.8" font-family="Times,serif" font-size="14.00" fill="white">X</text>
<polygon fill="none" stroke="black" points="632.5,-219.5 632.5,-238.5 646.5,-238.5 646.5,-219.5 632.5,-219.5"/>
</g>
<!-- 0x642b183de690&#45;&gt;0x642b183dd130 -->
<g id="edge4" class="edge">
<title>0x642b183de690&#45;&gt;0x642b183dd130</title>
<path fill="none" stroke="black" d="M717.36,-419.86C694.68,-408.97 663.68,-390.08 648.5,-363 630.13,-330.24 631.43,-285.58 634.85,-257.26"/>
<polygon fill="black" stroke="black" points="638.33,-257.65 636.23,-247.27 631.39,-256.69 638.33,-257.65"/>
<text text-anchor="middle" x="710.5" y="-328.8" font-family="Times,serif" font-size="14.00">protocol class #1</text>
</g>
<!-- 0x642b0c9c17d8 -->
<g id="node7" class="node">
<title>0x642b0c9c17d8</title>
<polygon fill="black" stroke="transparent" points="791.5,-332.5 791.5,-349.5 908.5,-349.5 908.5,-332.5 791.5,-332.5"/>
<polygon fill="none" stroke="black" points="791.5,-332.5 791.5,-349.5 908.5,-349.5 908.5,-332.5 791.5,-332.5"/>
<text text-anchor="start" x="811.5" y="-337.3" font-family="Times,serif" font-size="14.00" fill="white">methodlist</text>
<polygon fill="none" stroke="black" points="791.5,-315.5 791.5,-332.5 908.5,-332.5 908.5,-315.5 791.5,-315.5"/>
<text text-anchor="start" x="792.5" y="-320.3" font-family="Times,serif" font-size="14.00">instanceMethod</text>
<polygon fill="none" stroke="black" points="790,-314.5 790,-350.5 909,-350.5 909,-314.5 790,-314.5"/>
</g>
<!-- 0x642b183de690&#45;&gt;0x642b0c9c17d8 -->
<g id="edge6" class="edge">
<title>0x642b183de690&#45;&gt;0x642b0c9c17d8</title>
<path fill="none" stroke="black" d="M763.27,-413.57C778.86,-399.09 801.33,-378.23 819.42,-361.43"/>
<polygon fill="black" stroke="black" points="821.93,-363.88 826.87,-354.51 817.16,-358.75 821.93,-363.88"/>
<text text-anchor="middle" x="849" y="-384.8" font-family="Times,serif" font-size="14.00">methodlist #0</text>
</g>
<!-- 0x642b0c9c1878 -->
<g id="node8" class="node">
<title>0x642b0c9c1878</title>
<polygon fill="black" stroke="transparent" points="944.5,-340.5 944.5,-357.5 1061.5,-357.5 1061.5,-340.5 944.5,-340.5"/>
<polygon fill="none" stroke="black" points="944.5,-340.5 944.5,-357.5 1061.5,-357.5 1061.5,-340.5 944.5,-340.5"/>
<text text-anchor="start" x="964.5" y="-345.3" font-family="Times,serif" font-size="14.00" fill="white">methodlist</text>
<polygon fill="none" stroke="black" points="944.5,-323.5 944.5,-340.5 1029.5,-340.5 1029.5,-323.5 944.5,-323.5"/>
<text text-anchor="start" x="955.5" y="-328.3" font-family="Times,serif" font-size="14.00">category</text>
<polygon fill="none" stroke="black" points="1029.5,-323.5 1029.5,-340.5 1061.5,-340.5 1061.5,-323.5 1029.5,-323.5"/>
<text text-anchor="start" x="1040.5" y="-328.3" font-family="Times,serif" font-size="14.00">P</text>
<polygon fill="none" stroke="black" points="944.5,-306.5 944.5,-323.5 1061.5,-323.5 1061.5,-306.5 944.5,-306.5"/>
<text text-anchor="start" x="945.5" y="-311.3" font-family="Times,serif" font-size="14.00">instanceMethod</text>
<polygon fill="none" stroke="black" points="943,-306 943,-359 1062,-359 1062,-306 943,-306"/>
</g>
<!-- 0x642b183de690&#45;&gt;0x642b0c9c1878 -->
<g id="edge7" class="edge">
<title>0x642b183de690&#45;&gt;0x642b0c9c1878</title>
<path fill="none" stroke="black" d="M771.7,-428.01C804.25,-423.77 859.95,-414.39 904.5,-396 921.81,-388.85 939.45,-378.67 954.91,-368.6"/>
<polygon fill="black" stroke="black" points="956.88,-371.49 963.25,-363.03 952.99,-365.67 956.88,-371.49"/>
<text text-anchor="middle" x="985" y="-384.8" font-family="Times,serif" font-size="14.00">methodlist #1</text>
</g>
<!-- 0x642b0c9c1940 -->
<g id="node9" class="node">
<title>0x642b0c9c1940</title>
<polygon fill="black" stroke="transparent" points="1097.5,-340.5 1097.5,-357.5 1214.5,-357.5 1214.5,-340.5 1097.5,-340.5"/>
<polygon fill="none" stroke="black" points="1097.5,-340.5 1097.5,-357.5 1214.5,-357.5 1214.5,-340.5 1097.5,-340.5"/>
<text text-anchor="start" x="1117.5" y="-345.3" font-family="Times,serif" font-size="14.00" fill="white">methodlist</text>
<polygon fill="none" stroke="black" points="1097.5,-323.5 1097.5,-340.5 1181.5,-340.5 1181.5,-323.5 1097.5,-323.5"/>
<text text-anchor="start" x="1108" y="-328.3" font-family="Times,serif" font-size="14.00">category</text>
<polygon fill="none" stroke="black" points="1181.5,-323.5 1181.5,-340.5 1214.5,-340.5 1214.5,-323.5 1181.5,-323.5"/>
<text text-anchor="start" x="1192" y="-328.3" font-family="Times,serif" font-size="14.00">Q</text>
<polygon fill="none" stroke="black" points="1097.5,-306.5 1097.5,-323.5 1214.5,-323.5 1214.5,-306.5 1097.5,-306.5"/>
<text text-anchor="start" x="1098.5" y="-311.3" font-family="Times,serif" font-size="14.00">instanceMethod</text>
<polygon fill="none" stroke="black" points="1096,-306 1096,-359 1215,-359 1215,-306 1096,-306"/>
</g>
<!-- 0x642b183de690&#45;&gt;0x642b0c9c1940 -->
<g id="edge8" class="edge">
<title>0x642b183de690&#45;&gt;0x642b0c9c1940</title>
<path fill="none" stroke="black" d="M771.75,-431.18C824.79,-430.81 945.07,-426.33 1040.5,-396 1061.53,-389.31 1083.16,-378.71 1101.9,-368.11"/>
<polygon fill="black" stroke="black" points="1103.67,-371.13 1110.57,-363.1 1100.16,-365.08 1103.67,-371.13"/>
<text text-anchor="middle" x="1128" y="-384.8" font-family="Times,serif" font-size="14.00">methodlist #2</text>
</g>
<!-- 0x642b183de0e0&#45;&gt;0x642b183dd660 -->
<g id="edge11" class="edge">
<title>0x642b183de0e0&#45;&gt;0x642b183dd660</title>
<path fill="none" stroke="black" d="M409.36,-327.04C349.91,-317.14 211.89,-293.47 192.5,-284 177.6,-276.72 163.45,-264.93 152.44,-254.21"/>
<polygon fill="black" stroke="black" points="154.87,-251.69 145.36,-247.04 149.89,-256.61 154.87,-251.69"/>
<text text-anchor="middle" x="254.5" y="-272.8" font-family="Times,serif" font-size="14.00">protocol class #1</text>
</g>
<!-- 0x642b183de0e0&#45;&gt;0x642b183dd130 -->
<g id="edge10" class="edge">
<title>0x642b183de0e0&#45;&gt;0x642b183dd130</title>
<path fill="none" stroke="black" d="M450.23,-314.24C462.31,-300.13 481.13,-280.68 501.5,-269 532.95,-250.97 573.27,-240.83 602.2,-235.44"/>
<polygon fill="black" stroke="black" points="603.06,-238.84 612.3,-233.67 601.85,-231.95 603.06,-238.84"/>
<text text-anchor="middle" x="563.5" y="-272.8" font-family="Times,serif" font-size="14.00">protocol class #0</text>
</g>
<!-- 0x642b183ddbb0 -->
<g id="node10" class="node">
<title>0x642b183ddbb0</title>
<polygon fill="none" stroke="black" points="463.5,-247 409.5,-247 409.5,-211 463.5,-211 463.5,-247"/>
<polygon fill="blue" stroke="transparent" points="429.5,-220 429.5,-237 443.5,-237 443.5,-220 429.5,-220"/>
<polygon fill="none" stroke="black" points="429.5,-220 429.5,-237 443.5,-237 443.5,-220 429.5,-220"/>
<text text-anchor="start" x="431" y="-224.8" font-family="Times,serif" font-size="14.00" fill="white">B</text>
<polygon fill="none" stroke="black" points="428.5,-219.5 428.5,-238.5 444.5,-238.5 444.5,-219.5 428.5,-219.5"/>
</g>
<!-- 0x642b183de0e0&#45;&gt;0x642b183ddbb0 -->
<g id="edge9" class="edge">
<title>0x642b183de0e0&#45;&gt;0x642b183ddbb0</title>
<path fill="none" stroke="black" stroke-width="3" d="M436.5,-314.28C436.5,-298.75 436.5,-275.64 436.5,-257.54"/>
<polygon fill="black" stroke="black" stroke-width="3" points="440,-257.3 436.5,-247.3 433,-257.3 440,-257.3"/>
<text text-anchor="middle" x="457" y="-272.8" font-family="Times,serif" font-size="14.00">super</text>
</g>
<!-- 0x642b0c9c1700 -->
<g id="node11" class="node">
<title>0x642b0c9c1700</title>
<polygon fill="black" stroke="transparent" points="252.5,-229 252.5,-246 369.5,-246 369.5,-229 252.5,-229"/>
<polygon fill="none" stroke="black" points="252.5,-229 252.5,-246 369.5,-246 369.5,-229 252.5,-229"/>
<text text-anchor="start" x="272.5" y="-233.8" font-family="Times,serif" font-size="14.00" fill="white">methodlist</text>
<polygon fill="none" stroke="black" points="252.5,-212 252.5,-229 369.5,-229 369.5,-212 252.5,-212"/>
<text text-anchor="start" x="253.5" y="-216.8" font-family="Times,serif" font-size="14.00">instanceMethod</text>
<polygon fill="none" stroke="black" points="251,-211 251,-247 370,-247 370,-211 251,-211"/>
</g>
<!-- 0x642b183de0e0&#45;&gt;0x642b0c9c1700 -->
<g id="edge12" class="edge">
<title>0x642b183de0e0&#45;&gt;0x642b0c9c1700</title>
<path fill="none" stroke="black" d="M409.19,-325.84C385.14,-319.51 350.74,-306.99 329.5,-284 323.56,-277.56 319.45,-269.16 316.63,-260.9"/>
<polygon fill="black" stroke="black" points="319.92,-259.68 313.78,-251.04 313.19,-261.62 319.92,-259.68"/>
<text text-anchor="middle" x="381" y="-272.8" font-family="Times,serif" font-size="14.00">methodlist #0</text>
</g>
<!-- 0x642b0c9c1430 -->
<g id="node4" class="node">
<title>0x642b0c9c1430</title>
<polygon fill="black" stroke="transparent" points="9.5,-125.5 9.5,-142.5 126.5,-142.5 126.5,-125.5 9.5,-125.5"/>
<polygon fill="none" stroke="black" points="9.5,-125.5 9.5,-142.5 126.5,-142.5 126.5,-125.5 9.5,-125.5"/>
<text text-anchor="start" x="29.5" y="-130.3" font-family="Times,serif" font-size="14.00" fill="white">methodlist</text>
<polygon fill="none" stroke="black" points="9.5,-108.5 9.5,-125.5 126.5,-125.5 126.5,-108.5 9.5,-108.5"/>
<text text-anchor="start" x="10.5" y="-113.3" font-family="Times,serif" font-size="14.00">instanceMethod</text>
<polygon fill="none" stroke="black" points="8,-107.5 8,-143.5 127,-143.5 127,-107.5 8,-107.5"/>
</g>
<!-- 0x642b183dd660&#45;&gt;0x642b0c9c1430 -->
<g id="edge3" class="edge">
<title>0x642b183dd660&#45;&gt;0x642b0c9c1430</title>
<path fill="none" stroke="black" d="M112.87,-210.7C106.88,-204.25 100.46,-196.63 95.5,-189 89.05,-179.08 83.38,-167.42 78.87,-156.88"/>
<polygon fill="black" stroke="black" points="82.09,-155.52 75.05,-147.6 75.61,-158.18 82.09,-155.52"/>
<text text-anchor="middle" x="147" y="-177.8" font-family="Times,serif" font-size="14.00">methodlist #0</text>
</g>
<!-- 0x642b0c9c1370 -->
<g id="node6" class="node">
<title>0x642b0c9c1370</title>
<polygon fill="black" stroke="transparent" points="694.5,-125.5 694.5,-142.5 811.5,-142.5 811.5,-125.5 694.5,-125.5"/>
<polygon fill="none" stroke="black" points="694.5,-125.5 694.5,-142.5 811.5,-142.5 811.5,-125.5 694.5,-125.5"/>
<text text-anchor="start" x="714.5" y="-130.3" font-family="Times,serif" font-size="14.00" fill="white">methodlist</text>
<polygon fill="none" stroke="black" points="694.5,-108.5 694.5,-125.5 811.5,-125.5 811.5,-108.5 694.5,-108.5"/>
<text text-anchor="start" x="695.5" y="-113.3" font-family="Times,serif" font-size="14.00">instanceMethod</text>
<polygon fill="none" stroke="black" points="693,-107.5 693,-143.5 812,-143.5 812,-107.5 693,-107.5"/>
</g>
<!-- 0x642b183dd130&#45;&gt;0x642b0c9c1370 -->
<g id="edge5" class="edge">
<title>0x642b183dd130&#45;&gt;0x642b0c9c1370</title>
<path fill="none" stroke="black" d="M666.62,-215.47C679.53,-208.73 694.68,-199.61 706.5,-189 717.02,-179.55 726.64,-167.35 734.34,-156.23"/>
<polygon fill="black" stroke="black" points="737.44,-157.89 740.08,-147.63 731.62,-154.01 737.44,-157.89"/>
<text text-anchor="middle" x="772" y="-177.8" font-family="Times,serif" font-size="14.00">methodlist #0</text>
</g>
<!-- 0x642b183dcc60 -->
<g id="node12" class="node">
<title>0x642b183dcc60</title>
<polygon fill="none" stroke="black" points="513.5,-143.5 459.5,-143.5 459.5,-107.5 513.5,-107.5 513.5,-143.5"/>
<polygon fill="blue" stroke="transparent" points="480.5,-116.5 480.5,-133.5 492.5,-133.5 492.5,-116.5 480.5,-116.5"/>
<polygon fill="none" stroke="black" points="480.5,-116.5 480.5,-133.5 492.5,-133.5 492.5,-116.5 480.5,-116.5"/>
<text text-anchor="start" x="481.5" y="-121.3" font-family="Times,serif" font-size="14.00" fill="white">A</text>
<polygon fill="none" stroke="black" points="479.5,-116 479.5,-135 493.5,-135 493.5,-116 479.5,-116"/>
</g>
<!-- 0x642b183ddbb0&#45;&gt;0x642b183dcc60 -->
<g id="edge13" class="edge">
<title>0x642b183ddbb0&#45;&gt;0x642b183dcc60</title>
<path fill="none" stroke="black" stroke-width="3" d="M459.89,-210.77C466.61,-204.64 473.26,-197.21 477.5,-189 483.03,-178.3 485.47,-165.27 486.45,-153.88"/>
<polygon fill="black" stroke="black" stroke-width="3" points="489.96,-153.77 487.01,-143.6 482.97,-153.39 489.96,-153.77"/>
<text text-anchor="middle" x="504" y="-177.8" font-family="Times,serif" font-size="14.00">super</text>
</g>
<!-- 0x642b0c9c14d0 -->
<g id="node13" class="node">
<title>0x642b0c9c14d0</title>
<polygon fill="black" stroke="transparent" points="541.5,-125.5 541.5,-142.5 658.5,-142.5 658.5,-125.5 541.5,-125.5"/>
<polygon fill="none" stroke="black" points="541.5,-125.5 541.5,-142.5 658.5,-142.5 658.5,-125.5 541.5,-125.5"/>
<text text-anchor="start" x="561.5" y="-130.3" font-family="Times,serif" font-size="14.00" fill="white">methodlist</text>
<polygon fill="none" stroke="black" points="541.5,-108.5 541.5,-125.5 658.5,-125.5 658.5,-108.5 541.5,-108.5"/>
<text text-anchor="start" x="542.5" y="-113.3" font-family="Times,serif" font-size="14.00">instanceMethod</text>
<polygon fill="none" stroke="black" points="540,-107.5 540,-143.5 659,-143.5 659,-107.5 540,-107.5"/>
</g>
<!-- 0x642b183ddbb0&#45;&gt;0x642b0c9c14d0 -->
<g id="edge14" class="edge">
<title>0x642b183ddbb0&#45;&gt;0x642b0c9c14d0</title>
<path fill="none" stroke="black" d="M463.79,-219.05C482.72,-212.23 508.09,-201.84 528.5,-189 543.93,-179.3 559.32,-166.26 571.81,-154.61"/>
<polygon fill="black" stroke="black" points="574.37,-157.01 579.19,-147.57 569.53,-151.94 574.37,-157.01"/>
<text text-anchor="middle" x="599" y="-177.8" font-family="Times,serif" font-size="14.00">methodlist #0</text>
</g>
<!-- 0x642b0c9c1570 -->
<g id="node14" class="node">
<title>0x642b0c9c1570</title>
<polygon fill="black" stroke="transparent" points="162.5,-133.5 162.5,-150.5 279.5,-150.5 279.5,-133.5 162.5,-133.5"/>
<polygon fill="none" stroke="black" points="162.5,-133.5 162.5,-150.5 279.5,-150.5 279.5,-133.5 162.5,-133.5"/>
<text text-anchor="start" x="182.5" y="-138.3" font-family="Times,serif" font-size="14.00" fill="white">methodlist</text>
<polygon fill="none" stroke="black" points="162.5,-116.5 162.5,-133.5 247.5,-133.5 247.5,-116.5 162.5,-116.5"/>
<text text-anchor="start" x="173.5" y="-121.3" font-family="Times,serif" font-size="14.00">category</text>
<polygon fill="none" stroke="black" points="247.5,-116.5 247.5,-133.5 279.5,-133.5 279.5,-116.5 247.5,-116.5"/>
<text text-anchor="start" x="258.5" y="-121.3" font-family="Times,serif" font-size="14.00">P</text>
<polygon fill="none" stroke="black" points="162.5,-99.5 162.5,-116.5 279.5,-116.5 279.5,-99.5 162.5,-99.5"/>
<text text-anchor="start" x="163.5" y="-104.3" font-family="Times,serif" font-size="14.00">instanceMethod</text>
<polygon fill="none" stroke="black" points="161,-99 161,-152 280,-152 280,-99 161,-99"/>
</g>
<!-- 0x642b183ddbb0&#45;&gt;0x642b0c9c1570 -->
<g id="edge15" class="edge">
<title>0x642b183ddbb0&#45;&gt;0x642b0c9c1570</title>
<path fill="none" stroke="black" d="M409.44,-215.15C402.13,-212.09 394.12,-209.1 386.5,-207 331.54,-191.84 307.28,-220.09 259.5,-189 250.4,-183.08 243.05,-174.21 237.28,-165.01"/>
<polygon fill="black" stroke="black" points="240.23,-163.12 232.24,-156.16 234.15,-166.58 240.23,-163.12"/>
<text text-anchor="middle" x="311" y="-177.8" font-family="Times,serif" font-size="14.00">methodlist #1</text>
</g>
<!-- 0x642b0c9c1638 -->
<g id="node15" class="node">
<title>0x642b0c9c1638</title>
<polygon fill="black" stroke="transparent" points="315.5,-133.5 315.5,-150.5 432.5,-150.5 432.5,-133.5 315.5,-133.5"/>
<polygon fill="none" stroke="black" points="315.5,-133.5 315.5,-150.5 432.5,-150.5 432.5,-133.5 315.5,-133.5"/>
<text text-anchor="start" x="335.5" y="-138.3" font-family="Times,serif" font-size="14.00" fill="white">methodlist</text>
<polygon fill="none" stroke="black" points="315.5,-116.5 315.5,-133.5 399.5,-133.5 399.5,-116.5 315.5,-116.5"/>
<text text-anchor="start" x="326" y="-121.3" font-family="Times,serif" font-size="14.00">category</text>
<polygon fill="none" stroke="black" points="399.5,-116.5 399.5,-133.5 432.5,-133.5 432.5,-116.5 399.5,-116.5"/>
<text text-anchor="start" x="410" y="-121.3" font-family="Times,serif" font-size="14.00">Q</text>
<polygon fill="none" stroke="black" points="315.5,-99.5 315.5,-116.5 432.5,-116.5 432.5,-99.5 315.5,-99.5"/>
<text text-anchor="start" x="316.5" y="-104.3" font-family="Times,serif" font-size="14.00">instanceMethod</text>
<polygon fill="none" stroke="black" points="314,-99 314,-152 433,-152 433,-99 314,-99"/>
</g>
<!-- 0x642b183ddbb0&#45;&gt;0x642b0c9c1638 -->
<g id="edge16" class="edge">
<title>0x642b183ddbb0&#45;&gt;0x642b0c9c1638</title>
<path fill="none" stroke="black" d="M409.49,-219.45C395.19,-213.39 378.88,-203.68 370.5,-189 366.56,-182.1 365.12,-174.04 365.07,-166.05"/>
<polygon fill="black" stroke="black" points="368.56,-166.25 365.66,-156.06 361.57,-165.83 368.56,-166.25"/>
<text text-anchor="middle" x="422" y="-177.8" font-family="Times,serif" font-size="14.00">methodlist #2</text>
</g>
<!-- 0x642b0c9c12b0 -->
<g id="node16" class="node">
<title>0x642b0c9c12b0</title>
<polygon fill="black" stroke="transparent" points="428.5,-22 428.5,-39 545.5,-39 545.5,-22 428.5,-22"/>
<polygon fill="none" stroke="black" points="428.5,-22 428.5,-39 545.5,-39 545.5,-22 428.5,-22"/>
<text text-anchor="start" x="448.5" y="-26.8" font-family="Times,serif" font-size="14.00" fill="white">methodlist</text>
<polygon fill="none" stroke="black" points="428.5,-5 428.5,-22 545.5,-22 545.5,-5 428.5,-5"/>
<text text-anchor="start" x="429.5" y="-9.8" font-family="Times,serif" font-size="14.00">instanceMethod</text>
<polygon fill="none" stroke="black" points="427,-4 427,-40 546,-40 546,-4 427,-4"/>
</g>
<!-- 0x642b183dcc60&#45;&gt;0x642b0c9c12b0 -->
<g id="edge17" class="edge">
<title>0x642b183dcc60&#45;&gt;0x642b0c9c12b0</title>
<path fill="none" stroke="black" d="M486.5,-107.28C486.5,-92.86 486.5,-71.89 486.5,-54.47"/>
<polygon fill="black" stroke="black" points="490,-54.18 486.5,-44.18 483,-54.18 490,-54.18"/>
<text text-anchor="middle" x="538" y="-65.8" font-family="Times,serif" font-size="14.00">methodlist #0</text>
</g>
</g>
</svg>
