<?xml version="1.0" encoding="UTF-8"?>
<!DOCTYPE svg  PUBLIC '-//W3C//DTD SVG 1.1//EN'  'http://www.w3.org/Graphics/SVG/1.1/DTD/svg11.dtd'>
<svg width="1477pt" height="761pt" viewBox="0 0 1477 761" xmlns="http://www.w3.org/2000/svg" xmlns:xlink="http://www.w3.org/1999/xlink">
<g class="graph" transform="scale(1) translate(4 757)">
<title>mulle_objc_class</title>
<polygon points="-4 4 -4 -757 1473 -757 1473 4" fill="#fff" stroke="transparent"/>
<g class="node">
<title>0x5d30178c3110</title>
<a xlink:href="file:///./B.dot" xlink:title="&lt;TABLE&gt;">
<polygon points="987 -753 606 -753 606 -624 987 -624" fill="none" stroke="#000"/>
<polygon points="615.5 -730.5 615.5 -747.5 978.5 -747.5 978.5 -730.5" fill="blue" stroke="transparent"/>
<polygon points="615.5 -730.5 615.5 -747.5 978.5 -747.5 978.5 -730.5" fill="none" stroke="#000"/>
<text x="791.5" y="-735.3" fill="white" font-family="Times,serif" font-size="14">B</text>
<polygon points="615.5 -713.5 615.5 -730.5 750.5 -730.5 750.5 -713.5" fill="none" stroke="#000"/>
<text x="634.5" y="-718.3" font-family="Times,serif" font-size="14">allocationsize</text>
<polygon points="750.5 -713.5 750.5 -730.5 978.5 -730.5 978.5 -713.5" fill="none" stroke="#000"/>
<text x="855" y="-718.3" font-family="Times,serif" font-size="14">44</text>
<polygon points="615.5 -696.5 615.5 -713.5 750.5 -713.5 750.5 -696.5" fill="none" stroke="#000"/>
<text x="642" y="-701.3" font-family="Times,serif" font-size="14">inheritance</text>
<polygon points="750.5 -696.5 750.5 -713.5 978.5 -713.5 978.5 -696.5" fill="none" stroke="#000"/>
<text x="751.5" y="-701.3" font-family="Times,serif" font-size="14">superclass categories protocols</text>
<polygon points="615.5 -679.5 615.5 -696.5 750.5 -696.5 750.5 -679.5" fill="none" stroke="#000"/>
<text x="664.5" y="-684.3" font-family="Times,serif" font-size="14">state</text>
<polygon points="750.5 -679.5 750.5 -696.5 978.5 -696.5 978.5 -679.5" fill="none" stroke="#000"/>
<text x="851" y="-684.3" font-family="Times,serif" font-size="14">0x0</text>
<polygon points="615.5 -662.5 615.5 -679.5 750.5 -679.5 750.5 -662.5" fill="none" stroke="#000"/>
<text x="652" y="-667.3" font-family="Times,serif" font-size="14">ivarhash</text>
<polygon points="750.5 -662.5 750.5 -679.5 978.5 -679.5 978.5 -662.5" fill="none" stroke="#000"/>
<text x="822.5" y="-667.3" font-family="Times,serif" font-size="14">0xc290af70</text>
<polygon points="615.5 -645.5 615.5 -662.5 750.5 -662.5 750.5 -645.5" fill="none" stroke="#000"/>
<text x="616.5" y="-650.3" font-family="Times,serif" font-size="14">allocatedInstances</text>
<polygon points="750.5 -645.5 750.5 -662.5 978.5 -662.5 978.5 -645.5" fill="none" stroke="#000"/>
<text x="859.5" y="-650.3" font-family="Times,serif" font-size="14">0</text>
<polygon points="615.5 -628.5 615.5 -645.5 750.5 -645.5 750.5 -628.5" fill="none" stroke="#000"/>
<text x="652" y="-633.3" font-family="Times,serif" font-size="14">preloads</text>
<polygon points="750.5 -628.5 750.5 -645.5 978.5 -645.5 978.5 -628.5" fill="none" stroke="#000"/>
<text x="859.5" y="-633.3" font-family="Times,serif" font-size="14">0</text>
<polygon points="614 -628 614 -749 979 -749 979 -628" fill="none" stroke="#000"/>
</a>
</g>
<g class="node">
<title>0x5d30178c2c40</title>
<a xlink:href="file:///./A.dot" xlink:title="&lt;TABLE&gt;">
<polygon points="712 -351 331 -351 331 -222 712 -222" fill="none" stroke="#000"/>
<polygon points="340.5 -328.5 340.5 -345.5 703.5 -345.5 703.5 -328.5" fill="blue" stroke="transparent"/>
<polygon points="340.5 -328.5 340.5 -345.5 703.5 -345.5 703.5 -328.5" fill="none" stroke="#000"/>
<text x="517" y="-333.3" fill="white" font-family="Times,serif" font-size="14">A</text>
<polygon points="340.5 -311.5 340.5 -328.5 475.5 -328.5 475.5 -311.5" fill="none" stroke="#000"/>
<text x="359.5" y="-316.3" font-family="Times,serif" font-size="14">allocationsize</text>
<polygon points="475.5 -311.5 475.5 -328.5 703.5 -328.5 703.5 -311.5" fill="none" stroke="#000"/>
<text x="580" y="-316.3" font-family="Times,serif" font-size="14">40</text>
<polygon points="340.5 -294.5 340.5 -311.5 475.5 -311.5 475.5 -294.5" fill="none" stroke="#000"/>
<text x="367" y="-299.3" font-family="Times,serif" font-size="14">inheritance</text>
<polygon points="475.5 -294.5 475.5 -311.5 703.5 -311.5 703.5 -294.5" fill="none" stroke="#000"/>
<text x="476.5" y="-299.3" font-family="Times,serif" font-size="14">superclass categories protocols</text>
<polygon points="340.5 -277.5 340.5 -294.5 475.5 -294.5 475.5 -277.5" fill="none" stroke="#000"/>
<text x="389.5" y="-282.3" font-family="Times,serif" font-size="14">state</text>
<polygon points="475.5 -277.5 475.5 -294.5 703.5 -294.5 703.5 -277.5" fill="none" stroke="#000"/>
<text x="576" y="-282.3" font-family="Times,serif" font-size="14">0x0</text>
<polygon points="340.5 -260.5 340.5 -277.5 475.5 -277.5 475.5 -260.5" fill="none" stroke="#000"/>
<text x="377" y="-265.3" font-family="Times,serif" font-size="14">ivarhash</text>
<polygon points="475.5 -260.5 475.5 -277.5 703.5 -277.5 703.5 -260.5" fill="none" stroke="#000"/>
<text x="549.5" y="-265.3" font-family="Times,serif" font-size="14">0x5bcf9fa5</text>
<polygon points="340.5 -243.5 340.5 -260.5 475.5 -260.5 475.5 -243.5" fill="none" stroke="#000"/>
<text x="341.5" y="-248.3" font-family="Times,serif" font-size="14">allocatedInstances</text>
<polygon points="475.5 -243.5 475.5 -260.5 703.5 -260.5 703.5 -243.5" fill="none" stroke="#000"/>
<text x="584.5" y="-248.3" font-family="Times,serif" font-size="14">0</text>
<polygon points="340.5 -226.5 340.5 -243.5 475.5 -243.5 475.5 -226.5" fill="none" stroke="#000"/>
<text x="377" y="-231.3" font-family="Times,serif" font-size="14">preloads</text>
<polygon points="475.5 -226.5 475.5 -243.5 703.5 -243.5 703.5 -226.5" fill="none" stroke="#000"/>
<text x="584.5" y="-231.3" font-family="Times,serif" font-size="14">0</text>
<polygon points="339 -226 339 -347 704 -347 704 -226" fill="none" stroke="#000"/>
</a>
</g>
<g class="edge">
<title>0x5d30178c3110-&gt;0x5d30178c2c40</title>
<path d="m605.82-646.32c-36.39 16.73-70.03 40.25-92.32 73.32-41.83 62.05-31.56 150.17-16.08 212.05" fill="none" stroke="#000" stroke-width="3"/>
<polygon points="500.81 -361.81 499.94 -351.25 494.04 -360.05" stroke="#000" stroke-width="3"/>
<text x="534" y="-483.8" font-family="Times,serif" font-size="14" text-anchor="middle">super</text>
</g>
<g class="node">
<title>0x5d30178c32f0</title>
<a xlink:href="file:///./B.dot" xlink:title="&lt;TABLE&gt;">
<polygon points="909 -535 564 -535 564 -531 560 -531 560 -527 564 -527 564 -448 560 -448 560 -444 564 -444 564 -440 909 -440" fill="none" stroke="#000"/>
<polyline points="564 -531 568 -531 568 -527 564 -527" fill="none" stroke="#000"/>
<polyline points="564 -448 568 -448 568 -444 564 -444" fill="none" stroke="#000"/>
<polygon points="573.5 -512.5 573.5 -529.5 900.5 -529.5 900.5 -512.5" fill="#daa520" stroke="transparent"/>
<polygon points="573.5 -512.5 573.5 -529.5 900.5 -529.5 900.5 -512.5" fill="none" stroke="#000"/>
<text x="731.5" y="-517.3" fill="white" font-family="Times,serif" font-size="14">B</text>
<polygon points="573.5 -495.5 573.5 -512.5 672.5 -512.5 672.5 -495.5" fill="none" stroke="#000"/>
<text x="574.5" y="-500.3" font-family="Times,serif" font-size="14">allocationsize</text>
<polygon points="672.5 -495.5 672.5 -512.5 900.5 -512.5 900.5 -495.5" fill="none" stroke="#000"/>
<text x="772.5" y="-500.3" font-family="Times,serif" font-size="14">352</text>
<polygon points="573.5 -478.5 573.5 -495.5 672.5 -495.5 672.5 -478.5" fill="none" stroke="#000"/>
<text x="582" y="-483.3" font-family="Times,serif" font-size="14">inheritance</text>
<polygon points="672.5 -478.5 672.5 -495.5 900.5 -495.5 900.5 -478.5" fill="none" stroke="#000"/>
<text x="673.5" y="-483.3" font-family="Times,serif" font-size="14">superclass categories protocols</text>
<polygon points="573.5 -461.5 573.5 -478.5 672.5 -478.5 672.5 -461.5" fill="none" stroke="#000"/>
<text x="604.5" y="-466.3" font-family="Times,serif" font-size="14">state</text>
<polygon points="672.5 -461.5 672.5 -478.5 900.5 -478.5 900.5 -461.5" fill="none" stroke="#000"/>
<text x="768.5" y="-466.3" font-family="Times,serif" font-size="14">0x40</text>
<polygon points="573.5 -444.5 573.5 -461.5 672.5 -461.5 672.5 -444.5" fill="none" stroke="#000"/>
<text x="592" y="-449.3" font-family="Times,serif" font-size="14">preloads</text>
<polygon points="672.5 -444.5 672.5 -461.5 900.5 -461.5 900.5 -444.5" fill="none" stroke="#000"/>
<text x="781.5" y="-449.3" font-family="Times,serif" font-size="14">0</text>
<polygon points="572 -444 572 -531 901 -531 901 -444" fill="none" stroke="#000"/>
</a>
</g>
<g class="edge">
<title>0x5d30178c3110-&gt;0x5d30178c32f0</title>
<path d="m745.02-623.62c-2.98 5.74-5.56 11.65-7.52 17.62-6.32 19.23-7.89 41.2-7.45 60.9" fill="none" stroke="#daa520"/>
<polygon points="733.55 -545.17 730.46 -535.03 726.56 -544.89" fill="#daa520" stroke="#daa520"/>
<text x="756" y="-594.8" fill="goldenrod" font-family="Times,serif" font-size="14" text-anchor="middle">meta</text>
</g>
<g class="node">
<title>0x5d2ff378e388</title>
<polygon points="936.5 -550.5 936.5 -567.5 1251.5 -567.5 1251.5 -550.5" stroke="transparent"/>
<polygon points="936.5 -550.5 936.5 -567.5 1251.5 -567.5 1251.5 -550.5" fill="none" stroke="#000"/>
<text x="1055.5" y="-555.3" fill="white" font-family="Times,serif" font-size="14">methodlist</text>
<polygon points="936.5 -478.5 936.5 -550.5 976.5 -550.5 976.5 -478.5" fill="none" stroke="#000"/>
<text x="939.5" y="-510.8" font-family="Times,serif" font-size="14">getV</text>
<polygon points="976.5 -478.5 976.5 -550.5 1251.5 -550.5 1251.5 -478.5" fill="none" stroke="#000"/>
<polygon points="978.5 -531.5 978.5 -548.5 1093.5 -548.5 1093.5 -531.5" fill="none" stroke="#d3d3d3"/>
<text x="1001.5" y="-536.3" font-family="Times,serif" font-size="14">signature</text>
<polygon points="1093.5 -531.5 1093.5 -548.5 1249.5 -548.5 1249.5 -531.5" fill="none" stroke="#d3d3d3"/>
<text x="1141.5" y="-536.3" font-family="Times,serif" font-size="14">i16@0:8</text>
<polygon points="978.5 -514.5 978.5 -531.5 1093.5 -531.5 1093.5 -514.5" fill="none" stroke="#d3d3d3"/>
<text x="1002" y="-519.3" font-family="Times,serif" font-size="14">methodid</text>
<polygon points="1093.5 -514.5 1093.5 -531.5 1249.5 -531.5 1249.5 -514.5" fill="none" stroke="#d3d3d3"/>
<text x="1132" y="-519.3" font-family="Times,serif" font-size="14">0xeae6935</text>
<polygon points="978.5 -497.5 978.5 -514.5 1093.5 -514.5 1093.5 -497.5" fill="none" stroke="#d3d3d3"/>
<text x="1022" y="-502.3" font-family="Times,serif" font-size="14">bits</text>
<polygon points="1093.5 -497.5 1093.5 -514.5 1249.5 -514.5 1249.5 -497.5" fill="none" stroke="#d3d3d3"/>
<text x="1135.5" y="-502.3" font-family="Times,serif" font-size="14">0x200000</text>
<polygon points="978.5 -480.5 978.5 -497.5 1093.5 -497.5 1093.5 -480.5" fill="none" stroke="#d3d3d3"/>
<text x="979.5" y="-485.3" font-family="Times,serif" font-size="14">implementation</text>
<polygon points="1093.5 -480.5 1093.5 -497.5 1249.5 -497.5 1249.5 -480.5" fill="none" stroke="#d3d3d3"/>
<text x="1094.5" y="-485.3" font-family="Times,serif" font-size="14">0x00005d2ff3675640</text>
<polygon points="977.5 -479.5 977.5 -549.5 1250.5 -549.5 1250.5 -479.5" fill="none" stroke="#d3d3d3"/>
<polygon points="936.5 -406.5 936.5 -478.5 976.5 -478.5 976.5 -406.5" fill="none" stroke="#000"/>
<text x="937.5" y="-438.8" font-family="Times,serif" font-size="14">getW</text>
<polygon points="976.5 -406.5 976.5 -478.5 1251.5 -478.5 1251.5 -406.5" fill="none" stroke="#000"/>
<polygon points="978.5 -459.5 978.5 -476.5 1093.5 -476.5 1093.5 -459.5" fill="none" stroke="#d3d3d3"/>
<text x="1001.5" y="-464.3" font-family="Times,serif" font-size="14">signature</text>
<polygon points="1093.5 -459.5 1093.5 -476.5 1249.5 -476.5 1249.5 -459.5" fill="none" stroke="#d3d3d3"/>
<text x="1141.5" y="-464.3" font-family="Times,serif" font-size="14">i16@0:8</text>
<polygon points="978.5 -442.5 978.5 -459.5 1093.5 -459.5 1093.5 -442.5" fill="none" stroke="#d3d3d3"/>
<text x="1002" y="-447.3" font-family="Times,serif" font-size="14">methodid</text>
<polygon points="1093.5 -442.5 1093.5 -459.5 1249.5 -459.5 1249.5 -442.5" fill="none" stroke="#d3d3d3"/>
<text x="1129.5" y="-447.3" font-family="Times,serif" font-size="14">0xfeae5004</text>
<polygon points="978.5 -425.5 978.5 -442.5 1093.5 -442.5 1093.5 -425.5" fill="none" stroke="#d3d3d3"/>
<text x="1022" y="-430.3" font-family="Times,serif" font-size="14">bits</text>
<polygon points="1093.5 -425.5 1093.5 -442.5 1249.5 -442.5 1249.5 -425.5" fill="none" stroke="#d3d3d3"/>
<text x="1135.5" y="-430.3" font-family="Times,serif" font-size="14">0x200000</text>
<polygon points="978.5 -408.5 978.5 -425.5 1093.5 -425.5 1093.5 -408.5" fill="none" stroke="#d3d3d3"/>
<text x="979.5" y="-413.3" font-family="Times,serif" font-size="14">implementation</text>
<polygon points="1093.5 -408.5 1093.5 -425.5 1249.5 -425.5 1249.5 -408.5" fill="none" stroke="#d3d3d3"/>
<text x="1094.5" y="-413.3" font-family="Times,serif" font-size="14">0x00005d2ff3675690</text>
<polygon points="977.5 -407.5 977.5 -477.5 1250.5 -477.5 1250.5 -407.5" fill="none" stroke="#d3d3d3"/>
<polygon points="935 -406 935 -569 1252 -569 1252 -406" fill="none" stroke="#000"/>
</g>
<g class="edge">
<title>0x5d30178c3110-&gt;0x5d2ff378e388</title>
<path d="m891.29-623.99c21.54 14.44 44.83 30.04 67.68 45.35" fill="none" stroke="#000"/>
<polygon points="961 -581.49 967.36 -573.02 957.1 -575.68" stroke="#000"/>
<text x="988" y="-594.8" font-family="Times,serif" font-size="14" text-anchor="middle">methodlist #0</text>
</g>
<g class="node">
<title>0x5d2ff378e360</title>
<polygon points="1287.5 -506.5 1287.5 -523.5 1460.5 -523.5 1460.5 -506.5" stroke="transparent"/>
<polygon points="1287.5 -506.5 1287.5 -523.5 1460.5 -523.5 1460.5 -506.5" fill="none" stroke="#000"/>
<text x="1348.5" y="-511.3" fill="white" font-family="Times,serif" font-size="14">ivarlist</text>
<polygon points="1287.5 -451.5 1287.5 -506.5 1302.5 -506.5 1302.5 -451.5" fill="none" stroke="#000"/>
<text x="1288.5" y="-475.3" font-family="Times,serif" font-size="14">w</text>
<polygon points="1302.5 -451.5 1302.5 -506.5 1460.5 -506.5 1460.5 -451.5" fill="none" stroke="#000"/>
<polygon points="1304.5 -487.5 1304.5 -504.5 1375.5 -504.5 1375.5 -487.5" fill="none" stroke="#d3d3d3"/>
<text x="1305.5" y="-492.3" font-family="Times,serif" font-size="14">signature</text>
<polygon points="1375.5 -487.5 1375.5 -504.5 1458.5 -504.5 1458.5 -487.5" fill="none" stroke="#d3d3d3"/>
<text x="1414.5" y="-492.3" font-family="Times,serif" font-size="14">i</text>
<polygon points="1304.5 -470.5 1304.5 -487.5 1375.5 -487.5 1375.5 -470.5" fill="none" stroke="#d3d3d3"/>
<text x="1306" y="-475.3" font-family="Times,serif" font-size="14">methodid</text>
<polygon points="1375.5 -470.5 1375.5 -487.5 1458.5 -487.5 1458.5 -470.5" fill="none" stroke="#d3d3d3"/>
<text x="1376.5" y="-475.3" font-family="Times,serif" font-size="14">0x20c3f36f</text>
<polygon points="1304.5 -453.5 1304.5 -470.5 1375.5 -470.5 1375.5 -453.5" fill="none" stroke="#d3d3d3"/>
<text x="1320" y="-458.3" font-family="Times,serif" font-size="14">offset</text>
<polygon points="1375.5 -453.5 1375.5 -470.5 1458.5 -470.5 1458.5 -453.5" fill="none" stroke="#d3d3d3"/>
<text x="1412" y="-458.3" font-family="Times,serif" font-size="14">8</text>
<polygon points="1303.5 -452.5 1303.5 -505.5 1459.5 -505.5 1459.5 -452.5" fill="none" stroke="#d3d3d3"/>
<polygon points="1286 -450.5 1286 -524.5 1461 -524.5 1461 -450.5" fill="none" stroke="#000"/>
</g>
<g class="edge">
<title>0x5d30178c3110-&gt;0x5d2ff378e360</title>
<path d="m987.08-661.31c89.02 17.16 194.5 44.76 282.42 88.31 19.71 9.76 39.04 23.84 55.59 37.71" fill="none" stroke="#000"/>
<polygon points="1327.7 -537.69 1333 -528.52 1323.1 -532.38" stroke="#000"/>
<text x="1260.5" y="-594.8" font-family="Times,serif" font-size="14" text-anchor="middle">ivarlist #0</text>
</g>
<g class="node">
<title>0x5d30178c2e20</title>
<a xlink:href="file:///./A.dot" xlink:title="&lt;TABLE&gt;">
<polygon points="694 -133 349 -133 349 -129 345 -129 345 -125 349 -125 349 -46 345 -46 345 -42 349 -42 349 -38 694 -38" fill="none" stroke="#000"/>
<polyline points="349 -129 353 -129 353 -125 349 -125" fill="none" stroke="#000"/>
<polyline points="349 -46 353 -46 353 -42 349 -42" fill="none" stroke="#000"/>
<polygon points="358.5 -110.5 358.5 -127.5 685.5 -127.5 685.5 -110.5" fill="#daa520" stroke="transparent"/>
<polygon points="358.5 -110.5 358.5 -127.5 685.5 -127.5 685.5 -110.5" fill="none" stroke="#000"/>
<text x="517" y="-115.3" fill="white" font-family="Times,serif" font-size="14">A</text>
<polygon points="358.5 -93.5 358.5 -110.5 457.5 -110.5 457.5 -93.5" fill="none" stroke="#000"/>
<text x="359.5" y="-98.3" font-family="Times,serif" font-size="14">allocationsize</text>
<polygon points="457.5 -93.5 457.5 -110.5 685.5 -110.5 685.5 -93.5" fill="none" stroke="#000"/>
<text x="557.5" y="-98.3" font-family="Times,serif" font-size="14">352</text>
<polygon points="358.5 -76.5 358.5 -93.5 457.5 -93.5 457.5 -76.5" fill="none" stroke="#000"/>
<text x="367" y="-81.3" font-family="Times,serif" font-size="14">inheritance</text>
<polygon points="457.5 -76.5 457.5 -93.5 685.5 -93.5 685.5 -76.5" fill="none" stroke="#000"/>
<text x="458.5" y="-81.3" font-family="Times,serif" font-size="14">superclass categories protocols</text>
<polygon points="358.5 -59.5 358.5 -76.5 457.5 -76.5 457.5 -59.5" fill="none" stroke="#000"/>
<text x="389.5" y="-64.3" font-family="Times,serif" font-size="14">state</text>
<polygon points="457.5 -59.5 457.5 -76.5 685.5 -76.5 685.5 -59.5" fill="none" stroke="#000"/>
<text x="553.5" y="-64.3" font-family="Times,serif" font-size="14">0x40</text>
<polygon points="358.5 -42.5 358.5 -59.5 457.5 -59.5 457.5 -42.5" fill="none" stroke="#000"/>
<text x="377" y="-47.3" font-family="Times,serif" font-size="14">preloads</text>
<polygon points="457.5 -42.5 457.5 -59.5 685.5 -59.5 685.5 -42.5" fill="none" stroke="#000"/>
<text x="566.5" y="-47.3" font-family="Times,serif" font-size="14">0</text>
<polygon points="357 -42 357 -129 686 -129 686 -42" fill="none" stroke="#000"/>
</a>
</g>
<g class="edge">
<title>0x5d30178c2c40-&gt;0x5d30178c2e20</title>
<path d="m469.97-221.64c-2.97 5.75-5.53 11.66-7.47 17.64-6.83 21.09 0.01 43.09 11.14 62.28" fill="none" stroke="#daa520"/>
<polygon points="476.68 -143.46 479.02 -133.12 470.75 -139.74" fill="#daa520" stroke="#daa520"/>
<text x="481" y="-192.8" fill="goldenrod" font-family="Times,serif" font-size="14" text-anchor="middle">meta</text>
</g>
<g class="node">
<title>0x5d2ff378e298</title>
<polygon points="9.5 -148.5 9.5 -165.5 322.5 -165.5 322.5 -148.5" stroke="transparent"/>
<polygon points="9.5 -148.5 9.5 -165.5 322.5 -165.5 322.5 -148.5" fill="none" stroke="#000"/>
<text x="127.5" y="-153.3" fill="white" font-family="Times,serif" font-size="14">methodlist</text>
<polygon points="9.5 -76.5 9.5 -148.5 47.5 -148.5 47.5 -76.5" fill="none" stroke="#000"/>
<text x="10.5" y="-108.8" font-family="Times,serif" font-size="14">getU</text>
<polygon points="47.5 -76.5 47.5 -148.5 322.5 -148.5 322.5 -76.5" fill="none" stroke="#000"/>
<polygon points="49.5 -129.5 49.5 -146.5 164.5 -146.5 164.5 -129.5" fill="none" stroke="#d3d3d3"/>
<text x="72.5" y="-134.3" font-family="Times,serif" font-size="14">signature</text>
<polygon points="164.5 -129.5 164.5 -146.5 320.5 -146.5 320.5 -129.5" fill="none" stroke="#d3d3d3"/>
<text x="212.5" y="-134.3" font-family="Times,serif" font-size="14">i16@0:8</text>
<polygon points="49.5 -112.5 49.5 -129.5 164.5 -129.5 164.5 -112.5" fill="none" stroke="#d3d3d3"/>
<text x="73" y="-117.3" font-family="Times,serif" font-size="14">methodid</text>
<polygon points="164.5 -112.5 164.5 -129.5 320.5 -129.5 320.5 -112.5" fill="none" stroke="#d3d3d3"/>
<text x="198.5" y="-117.3" font-family="Times,serif" font-size="14">0x1eae8265</text>
<polygon points="49.5 -95.5 49.5 -112.5 164.5 -112.5 164.5 -95.5" fill="none" stroke="#d3d3d3"/>
<text x="93" y="-100.3" font-family="Times,serif" font-size="14">bits</text>
<polygon points="164.5 -95.5 164.5 -112.5 320.5 -112.5 320.5 -95.5" fill="none" stroke="#d3d3d3"/>
<text x="206.5" y="-100.3" font-family="Times,serif" font-size="14">0x200000</text>
<polygon points="49.5 -78.5 49.5 -95.5 164.5 -95.5 164.5 -78.5" fill="none" stroke="#d3d3d3"/>
<text x="50.5" y="-83.3" font-family="Times,serif" font-size="14">implementation</text>
<polygon points="164.5 -78.5 164.5 -95.5 320.5 -95.5 320.5 -78.5" fill="none" stroke="#d3d3d3"/>
<text x="165.5" y="-83.3" font-family="Times,serif" font-size="14">0x00005d2ff3675600</text>
<polygon points="48.5 -77.5 48.5 -147.5 321.5 -147.5 321.5 -77.5" fill="none" stroke="#d3d3d3"/>
<polygon points="9.5 -4.5 9.5 -76.5 47.5 -76.5 47.5 -4.5" fill="none" stroke="#000"/>
<text x="11.5" y="-36.8" font-family="Times,serif" font-size="14">getV</text>
<polygon points="47.5 -4.5 47.5 -76.5 322.5 -76.5 322.5 -4.5" fill="none" stroke="#000"/>
<polygon points="49.5 -57.5 49.5 -74.5 164.5 -74.5 164.5 -57.5" fill="none" stroke="#d3d3d3"/>
<text x="72.5" y="-62.3" font-family="Times,serif" font-size="14">signature</text>
<polygon points="164.5 -57.5 164.5 -74.5 320.5 -74.5 320.5 -57.5" fill="none" stroke="#d3d3d3"/>
<text x="212.5" y="-62.3" font-family="Times,serif" font-size="14">i16@0:8</text>
<polygon points="49.5 -40.5 49.5 -57.5 164.5 -57.5 164.5 -40.5" fill="none" stroke="#d3d3d3"/>
<text x="73" y="-45.3" font-family="Times,serif" font-size="14">methodid</text>
<polygon points="164.5 -40.5 164.5 -57.5 320.5 -57.5 320.5 -40.5" fill="none" stroke="#d3d3d3"/>
<text x="203" y="-45.3" font-family="Times,serif" font-size="14">0xeae6935</text>
<polygon points="49.5 -23.5 49.5 -40.5 164.5 -40.5 164.5 -23.5" fill="none" stroke="#d3d3d3"/>
<text x="93" y="-28.3" font-family="Times,serif" font-size="14">bits</text>
<polygon points="164.5 -23.5 164.5 -40.5 320.5 -40.5 320.5 -23.5" fill="none" stroke="#d3d3d3"/>
<text x="206.5" y="-28.3" font-family="Times,serif" font-size="14">0x200000</text>
<polygon points="49.5 -6.5 49.5 -23.5 164.5 -23.5 164.5 -6.5" fill="none" stroke="#d3d3d3"/>
<text x="50.5" y="-11.3" font-family="Times,serif" font-size="14">implementation</text>
<polygon points="164.5 -6.5 164.5 -23.5 320.5 -23.5 320.5 -6.5" fill="none" stroke="#d3d3d3"/>
<text x="165.5" y="-11.3" font-family="Times,serif" font-size="14">0x00005d2ff3675620</text>
<polygon points="48.5 -5.5 48.5 -75.5 321.5 -75.5 321.5 -5.5" fill="none" stroke="#d3d3d3"/>
<polygon points="8 -4 8 -167 323 -167 323 -4" fill="none" stroke="#000"/>
</g>
<g class="edge">
<title>0x5d30178c2c40-&gt;0x5d2ff378e298</title>
<path d="m386.96-221.82c-11.4 5.87-22.68 11.86-33.46 17.82-15.63 8.64-31.77 18.01-47.73 27.57" fill="none" stroke="#000"/>
<polygon points="307.31 -173.27 296.93 -171.11 303.7 -179.27" stroke="#000"/>
<text x="405" y="-192.8" font-family="Times,serif" font-size="14" text-anchor="middle">methodlist #0</text>
</g>
<g class="node">
<title>0x5d2ff378e250</title>
<polygon points="721.5 -131.5 721.5 -148.5 893.5 -148.5 893.5 -131.5" stroke="transparent"/>
<polygon points="721.5 -131.5 721.5 -148.5 893.5 -148.5 893.5 -131.5" fill="none" stroke="#000"/>
<text x="782" y="-136.3" fill="white" font-family="Times,serif" font-size="14">ivarlist</text>
<polygon points="721.5 -76.5 721.5 -131.5 733.5 -131.5 733.5 -76.5" fill="none" stroke="#000"/>
<text x="722.5" y="-100.3" font-family="Times,serif" font-size="14">u</text>
<polygon points="733.5 -76.5 733.5 -131.5 893.5 -131.5 893.5 -76.5" fill="none" stroke="#000"/>
<polygon points="735.5 -112.5 735.5 -129.5 815.5 -129.5 815.5 -112.5" fill="none" stroke="#d3d3d3"/>
<text x="741" y="-117.3" font-family="Times,serif" font-size="14">signature</text>
<polygon points="815.5 -112.5 815.5 -129.5 891.5 -129.5 891.5 -112.5" fill="none" stroke="#d3d3d3"/>
<text x="851" y="-117.3" font-family="Times,serif" font-size="14">i</text>
<polygon points="735.5 -95.5 735.5 -112.5 815.5 -112.5 815.5 -95.5" fill="none" stroke="#d3d3d3"/>
<text x="741.5" y="-100.3" font-family="Times,serif" font-size="14">methodid</text>
<polygon points="815.5 -95.5 815.5 -112.5 891.5 -112.5 891.5 -95.5" fill="none" stroke="#d3d3d3"/>
<text x="821" y="-100.3" font-family="Times,serif" font-size="14">0xc3c10f</text>
<polygon points="735.5 -78.5 735.5 -95.5 815.5 -95.5 815.5 -78.5" fill="none" stroke="#d3d3d3"/>
<text x="755.5" y="-83.3" font-family="Times,serif" font-size="14">offset</text>
<polygon points="815.5 -78.5 815.5 -95.5 891.5 -95.5 891.5 -78.5" fill="none" stroke="#d3d3d3"/>
<text x="848.5" y="-83.3" font-family="Times,serif" font-size="14">0</text>
<polygon points="734.5 -77.5 734.5 -130.5 892.5 -130.5 892.5 -77.5" fill="none" stroke="#d3d3d3"/>
<polygon points="721.5 -21.5 721.5 -76.5 733.5 -76.5 733.5 -21.5" fill="none" stroke="#000"/>
<text x="723" y="-45.3" font-family="Times,serif" font-size="14">v</text>
<polygon points="733.5 -21.5 733.5 -76.5 893.5 -76.5 893.5 -21.5" fill="none" stroke="#000"/>
<polygon points="735.5 -57.5 735.5 -74.5 806.5 -74.5 806.5 -57.5" fill="none" stroke="#d3d3d3"/>
<text x="736.5" y="-62.3" font-family="Times,serif" font-size="14">signature</text>
<polygon points="806.5 -57.5 806.5 -74.5 891.5 -74.5 891.5 -57.5" fill="none" stroke="#d3d3d3"/>
<text x="846.5" y="-62.3" font-family="Times,serif" font-size="14">i</text>
<polygon points="735.5 -40.5 735.5 -57.5 806.5 -57.5 806.5 -40.5" fill="none" stroke="#d3d3d3"/>
<text x="737" y="-45.3" font-family="Times,serif" font-size="14">methodid</text>
<polygon points="806.5 -40.5 806.5 -57.5 891.5 -57.5 891.5 -40.5" fill="none" stroke="#d3d3d3"/>
<text x="807.5" y="-45.3" font-family="Times,serif" font-size="14">0x30c40c9f</text>
<polygon points="735.5 -23.5 735.5 -40.5 806.5 -40.5 806.5 -23.5" fill="none" stroke="#d3d3d3"/>
<text x="751" y="-28.3" font-family="Times,serif" font-size="14">offset</text>
<polygon points="806.5 -23.5 806.5 -40.5 891.5 -40.5 891.5 -23.5" fill="none" stroke="#d3d3d3"/>
<text x="844" y="-28.3" font-family="Times,serif" font-size="14">4</text>
<polygon points="734.5 -22.5 734.5 -75.5 892.5 -75.5 892.5 -22.5" fill="none" stroke="#d3d3d3"/>
<polygon points="720.5 -21 720.5 -150 894.5 -150 894.5 -21" fill="none" stroke="#000"/>
</g>
<g class="edge">
<title>0x5d30178c2c40-&gt;0x5d2ff378e250</title>
<path d="m626.69-221.79c25.2 16.04 51.77 33.59 75.81 50.79 4.82 3.44 9.71 7.03 14.61 10.7" fill="none" stroke="#000"/>
<polygon points="719.5 -162.88 725.36 -154.05 715.27 -157.29" stroke="#000"/>
<text x="712.5" y="-192.8" font-family="Times,serif" font-size="14" text-anchor="middle">ivarlist #0</text>
</g>
<g class="edge">
<title>0x5d30178c32f0-&gt;0x5d30178c3110</title>
<path d="m755.21-535.01c6.61-17.4 13.76-37.44 19.29-55.99 2.21-7.41 4.32-15.2 6.3-23" fill="none" stroke="blue"/>
<polygon points="777.44 -614.99 783.24 -623.86 784.24 -613.32" fill="blue" stroke="blue"/>
<text x="795.5" y="-594.8" fill="blue" font-family="Times,serif" font-size="14" text-anchor="middle">infra</text>
</g>
<g class="edge">
<title>0x5d30178c32f0-&gt;0x5d30178c2c40</title>
<path d="m686.09-439.84c-26.31 24.35-59.06 54.66-88.4 81.82" fill="none" stroke="#daa520"/>
<polygon points="600.03 -355.41 590.31 -351.19 595.27 -360.55" fill="#daa520" stroke="#daa520"/>
<text x="642" y="-372.8" fill="goldenrod" font-family="Times,serif" font-size="14" text-anchor="middle">meta</text>
</g>
<g class="edge">
<title>0x5d30178c2e20-&gt;0x5d30178c2c40</title>
<path d="m521.5-133.03v-78.63" fill="none" stroke="#daa520"/>
<polygon points="518 -211.99 521.5 -221.99 525 -211.99" fill="#daa520" stroke="#daa520"/>
<text x="540" y="-192.8" fill="goldenrod" font-family="Times,serif" font-size="14" text-anchor="middle">meta</text>
</g>
<g class="edge">
<title>0x5d30178c2e20-&gt;0x5d30178c2c40</title>
<path d="m548.61-133.11c9.28-21.34 16.16-47.13 10.89-70.89-0.6-2.69-1.29-5.4-2.07-8.11" fill="none" stroke="blue"/>
<polygon points="554.01 -211.32 554.28 -221.91 560.67 -213.46" fill="blue" stroke="blue"/>
<text x="578.5" y="-192.8" fill="blue" font-family="Times,serif" font-size="14" text-anchor="middle">infra</text>
</g>
</g>
</svg>
