<?xml version="1.0" encoding="UTF-8"?>
<!DOCTYPE svg  PUBLIC '-//W3C//DTD SVG 1.1//EN'  'http://www.w3.org/Graphics/SVG/1.1/DTD/svg11.dtd'>
<svg width="1009pt" height="509pt" viewBox="0 0 1009 509" xmlns="http://www.w3.org/2000/svg" xmlns:xlink="http://www.w3.org/1999/xlink">
<g class="graph" transform="scale(1) translate(4 505)">
<title>mulle_objc_class</title>
<polygon points="-4 4 -4 -505 1005 -505 1005 4" fill="#fff" stroke="transparent"/>
<g class="node">
<title>0x560019bf5c40</title>
<a xlink:href="file:///./CGPoint.dot" xlink:title="&lt;TABLE&gt;">
<polygon points="810 -501 429 -501 429 -372 810 -372" fill="none" stroke="#000"/>
<polygon points="438.5 -478.5 438.5 -495.5 801.5 -495.5 801.5 -478.5" fill="blue" stroke="transparent"/>
<polygon points="438.5 -478.5 438.5 -495.5 801.5 -495.5 801.5 -478.5" fill="none" stroke="#000"/>
<text x="590.5" y="-483.3" fill="white" font-family="Times,serif" font-size="14">CGPoint</text>
<polygon points="438.5 -461.5 438.5 -478.5 573.5 -478.5 573.5 -461.5" fill="none" stroke="#000"/>
<text x="457.5" y="-466.3" font-family="Times,serif" font-size="14">allocationsize</text>
<polygon points="573.5 -461.5 573.5 -478.5 801.5 -478.5 801.5 -461.5" fill="none" stroke="#000"/>
<text x="678" y="-466.3" font-family="Times,serif" font-size="14">40</text>
<polygon points="438.5 -444.5 438.5 -461.5 573.5 -461.5 573.5 -444.5" fill="none" stroke="#000"/>
<text x="465" y="-449.3" font-family="Times,serif" font-size="14">inheritance</text>
<polygon points="573.5 -444.5 573.5 -461.5 801.5 -461.5 801.5 -444.5" fill="none" stroke="#000"/>
<text x="574.5" y="-449.3" font-family="Times,serif" font-size="14">superclass categories protocols</text>
<polygon points="438.5 -427.5 438.5 -444.5 573.5 -444.5 573.5 -427.5" fill="none" stroke="#000"/>
<text x="487.5" y="-432.3" font-family="Times,serif" font-size="14">state</text>
<polygon points="573.5 -427.5 573.5 -444.5 801.5 -444.5 801.5 -427.5" fill="none" stroke="#000"/>
<text x="674" y="-432.3" font-family="Times,serif" font-size="14">0x0</text>
<polygon points="438.5 -410.5 438.5 -427.5 573.5 -427.5 573.5 -410.5" fill="none" stroke="#000"/>
<text x="475" y="-415.3" font-family="Times,serif" font-size="14">ivarhash</text>
<polygon points="573.5 -410.5 573.5 -427.5 801.5 -427.5 801.5 -410.5" fill="none" stroke="#000"/>
<text x="644" y="-415.3" font-family="Times,serif" font-size="14">0xa8e101c2</text>
<polygon points="438.5 -393.5 438.5 -410.5 573.5 -410.5 573.5 -393.5" fill="none" stroke="#000"/>
<text x="439.5" y="-398.3" font-family="Times,serif" font-size="14">allocatedInstances</text>
<polygon points="573.5 -393.5 573.5 -410.5 801.5 -410.5 801.5 -393.5" fill="none" stroke="#000"/>
<text x="682.5" y="-398.3" font-family="Times,serif" font-size="14">0</text>
<polygon points="438.5 -376.5 438.5 -393.5 573.5 -393.5 573.5 -376.5" fill="none" stroke="#000"/>
<text x="475" y="-381.3" font-family="Times,serif" font-size="14">preloads</text>
<polygon points="573.5 -376.5 573.5 -393.5 801.5 -393.5 801.5 -376.5" fill="none" stroke="#000"/>
<text x="682.5" y="-381.3" font-family="Times,serif" font-size="14">0</text>
<polygon points="437 -376 437 -497 802 -497 802 -376" fill="none" stroke="#000"/>
</a>
</g>
<g class="node">
<title>0x560019bf5e20</title>
<a xlink:href="file:///./CGPoint.dot" xlink:title="&lt;TABLE&gt;">
<polygon points="792 -283 447 -283 447 -279 443 -279 443 -275 447 -275 447 -196 443 -196 443 -192 447 -192 447 -188 792 -188" fill="none" stroke="#000"/>
<polyline points="447 -279 451 -279 451 -275 447 -275" fill="none" stroke="#000"/>
<polyline points="447 -196 451 -196 451 -192 447 -192" fill="none" stroke="#000"/>
<polygon points="456.5 -260.5 456.5 -277.5 783.5 -277.5 783.5 -260.5" fill="#daa520" stroke="transparent"/>
<polygon points="456.5 -260.5 456.5 -277.5 783.5 -277.5 783.5 -260.5" fill="none" stroke="#000"/>
<text x="590.5" y="-265.3" fill="white" font-family="Times,serif" font-size="14">CGPoint</text>
<polygon points="456.5 -243.5 456.5 -260.5 555.5 -260.5 555.5 -243.5" fill="none" stroke="#000"/>
<text x="457.5" y="-248.3" font-family="Times,serif" font-size="14">allocationsize</text>
<polygon points="555.5 -243.5 555.5 -260.5 783.5 -260.5 783.5 -243.5" fill="none" stroke="#000"/>
<text x="655.5" y="-248.3" font-family="Times,serif" font-size="14">352</text>
<polygon points="456.5 -226.5 456.5 -243.5 555.5 -243.5 555.5 -226.5" fill="none" stroke="#000"/>
<text x="465" y="-231.3" font-family="Times,serif" font-size="14">inheritance</text>
<polygon points="555.5 -226.5 555.5 -243.5 783.5 -243.5 783.5 -226.5" fill="none" stroke="#000"/>
<text x="556.5" y="-231.3" font-family="Times,serif" font-size="14">superclass categories protocols</text>
<polygon points="456.5 -209.5 456.5 -226.5 555.5 -226.5 555.5 -209.5" fill="none" stroke="#000"/>
<text x="487.5" y="-214.3" font-family="Times,serif" font-size="14">state</text>
<polygon points="555.5 -209.5 555.5 -226.5 783.5 -226.5 783.5 -209.5" fill="none" stroke="#000"/>
<text x="651.5" y="-214.3" font-family="Times,serif" font-size="14">0x40</text>
<polygon points="456.5 -192.5 456.5 -209.5 555.5 -209.5 555.5 -192.5" fill="none" stroke="#000"/>
<text x="475" y="-197.3" font-family="Times,serif" font-size="14">preloads</text>
<polygon points="555.5 -192.5 555.5 -209.5 783.5 -209.5 783.5 -192.5" fill="none" stroke="#000"/>
<text x="664.5" y="-197.3" font-family="Times,serif" font-size="14">0</text>
<polygon points="455 -192 455 -279 784 -279 784 -192" fill="none" stroke="#000"/>
</a>
</g>
<g class="edge">
<title>0x560019bf5c40-&gt;0x560019bf5e20</title>
<path d="m567.97-371.64c-2.97 5.75-5.53 11.66-7.47 17.64-6.83 21.09 0.01 43.09 11.14 62.28" fill="none" stroke="#daa520"/>
<polygon points="574.68 -293.46 577.02 -283.12 568.75 -289.74" fill="#daa520" stroke="#daa520"/>
<text x="579" y="-342.8" fill="goldenrod" font-family="Times,serif" font-size="14" text-anchor="middle">meta</text>
</g>
<g class="node">
<title>0x560019a802d0</title>
<polygon points="9.5 -298.5 9.5 -315.5 420.5 -315.5 420.5 -298.5" stroke="transparent"/>
<polygon points="9.5 -298.5 9.5 -315.5 420.5 -315.5 420.5 -298.5" fill="none" stroke="#000"/>
<text x="176.5" y="-303.3" fill="white" font-family="Times,serif" font-size="14">methodlist</text>
<polygon points="9.5 -226.5 9.5 -298.5 137.5 -298.5 137.5 -226.5" fill="none" stroke="#000"/>
<text x="57.5" y="-258.8" font-family="Times,serif" font-size="14">area</text>
<polygon points="137.5 -226.5 137.5 -298.5 420.5 -298.5 420.5 -226.5" fill="none" stroke="#000"/>
<polygon points="139.5 -279.5 139.5 -296.5 255.5 -296.5 255.5 -279.5" fill="none" stroke="#d3d3d3"/>
<text x="163" y="-284.3" font-family="Times,serif" font-size="14">signature</text>
<polygon points="255.5 -279.5 255.5 -296.5 418.5 -296.5 418.5 -279.5" fill="none" stroke="#d3d3d3"/>
<text x="306.5" y="-284.3" font-family="Times,serif" font-size="14">f16@0:8</text>
<polygon points="139.5 -262.5 139.5 -279.5 255.5 -279.5 255.5 -262.5" fill="none" stroke="#d3d3d3"/>
<text x="163.5" y="-267.3" font-family="Times,serif" font-size="14">methodid</text>
<polygon points="255.5 -262.5 255.5 -279.5 418.5 -279.5 418.5 -262.5" fill="none" stroke="#d3d3d3"/>
<text x="294" y="-267.3" font-family="Times,serif" font-size="14">0xb0f21449</text>
<polygon points="139.5 -245.5 139.5 -262.5 255.5 -262.5 255.5 -245.5" fill="none" stroke="#d3d3d3"/>
<text x="183.5" y="-250.3" font-family="Times,serif" font-size="14">bits</text>
<polygon points="255.5 -245.5 255.5 -262.5 418.5 -262.5 418.5 -245.5" fill="none" stroke="#d3d3d3"/>
<text x="301" y="-250.3" font-family="Times,serif" font-size="14">0x200000</text>
<polygon points="139.5 -228.5 139.5 -245.5 255.5 -245.5 255.5 -228.5" fill="none" stroke="#d3d3d3"/>
<text x="141" y="-233.3" font-family="Times,serif" font-size="14">implementation</text>
<polygon points="255.5 -228.5 255.5 -245.5 418.5 -245.5 418.5 -228.5" fill="none" stroke="#d3d3d3"/>
<text x="256.5" y="-233.3" font-family="Times,serif" font-size="14">0x00005600199656a0</text>
<polygon points="138.5 -227.5 138.5 -297.5 419.5 -297.5 419.5 -227.5" fill="none" stroke="#d3d3d3"/>
<polygon points="9.5 -154.5 9.5 -226.5 137.5 -226.5 137.5 -154.5" fill="none" stroke="#000"/>
<text x="10.5" y="-186.8" font-family="Times,serif" font-size="14">translateWithX:y:</text>
<polygon points="137.5 -154.5 137.5 -226.5 420.5 -226.5 420.5 -154.5" fill="none" stroke="#000"/>
<polygon points="139.5 -207.5 139.5 -224.5 254.5 -224.5 254.5 -207.5" fill="none" stroke="#d3d3d3"/>
<text x="162.5" y="-212.3" font-family="Times,serif" font-size="14">signature</text>
<polygon points="254.5 -207.5 254.5 -224.5 418.5 -224.5 418.5 -207.5" fill="none" stroke="#d3d3d3"/>
<text x="281.5" y="-212.3" font-family="Times,serif" font-size="14">v24@0:8f16f20</text>
<polygon points="139.5 -190.5 139.5 -207.5 254.5 -207.5 254.5 -190.5" fill="none" stroke="#d3d3d3"/>
<text x="163" y="-195.3" font-family="Times,serif" font-size="14">methodid</text>
<polygon points="254.5 -190.5 254.5 -207.5 418.5 -207.5 418.5 -190.5" fill="none" stroke="#d3d3d3"/>
<text x="292.5" y="-195.3" font-family="Times,serif" font-size="14">0xb7ee7240</text>
<polygon points="139.5 -173.5 139.5 -190.5 254.5 -190.5 254.5 -173.5" fill="none" stroke="#d3d3d3"/>
<text x="183" y="-178.3" font-family="Times,serif" font-size="14">bits</text>
<polygon points="254.5 -173.5 254.5 -190.5 418.5 -190.5 418.5 -173.5" fill="none" stroke="#d3d3d3"/>
<text x="323" y="-178.3" font-family="Times,serif" font-size="14">0x0</text>
<polygon points="139.5 -156.5 139.5 -173.5 254.5 -173.5 254.5 -156.5" fill="none" stroke="#d3d3d3"/>
<text x="140.5" y="-161.3" font-family="Times,serif" font-size="14">implementation</text>
<polygon points="254.5 -156.5 254.5 -173.5 418.5 -173.5 418.5 -156.5" fill="none" stroke="#d3d3d3"/>
<text x="255.5" y="-161.3" font-family="Times,serif" font-size="14">0x0000560019965660</text>
<polygon points="138.5 -155.5 138.5 -225.5 419.5 -225.5 419.5 -155.5" fill="none" stroke="#d3d3d3"/>
<polygon points="8 -154 8 -317 421 -317 421 -154" fill="none" stroke="#000"/>
</g>
<g class="edge">
<title>0x560019bf5c40-&gt;0x560019a802d0</title>
<path d="m488.3-371.99c-12.45 6.07-24.87 12.14-36.8 17.99-18.69 9.17-38.19 18.77-57.62 28.37" fill="none" stroke="#000"/>
<polygon points="395.16 -322.37 384.65 -321.08 392.06 -328.64" stroke="#000"/>
<text x="503" y="-342.8" font-family="Times,serif" font-size="14" text-anchor="middle">methodlist #0</text>
</g>
<g class="node">
<title>0x560019a80250</title>
<polygon points="819.5 -281.5 819.5 -298.5 992.5 -298.5 992.5 -281.5" stroke="transparent"/>
<polygon points="819.5 -281.5 819.5 -298.5 992.5 -298.5 992.5 -281.5" fill="none" stroke="#000"/>
<text x="880.5" y="-286.3" fill="white" font-family="Times,serif" font-size="14">ivarlist</text>
<polygon points="819.5 -226.5 819.5 -281.5 830.5 -281.5 830.5 -226.5" fill="none" stroke="#000"/>
<text x="820.5" y="-250.3" font-family="Times,serif" font-size="14">x</text>
<polygon points="830.5 -226.5 830.5 -281.5 992.5 -281.5 992.5 -226.5" fill="none" stroke="#000"/>
<polygon points="832.5 -262.5 832.5 -279.5 903.5 -279.5 903.5 -262.5" fill="none" stroke="#d3d3d3"/>
<text x="833.5" y="-267.3" font-family="Times,serif" font-size="14">signature</text>
<polygon points="903.5 -262.5 903.5 -279.5 990.5 -279.5 990.5 -262.5" fill="none" stroke="#d3d3d3"/>
<text x="944" y="-267.3" font-family="Times,serif" font-size="14">f</text>
<polygon points="832.5 -245.5 832.5 -262.5 903.5 -262.5 903.5 -245.5" fill="none" stroke="#d3d3d3"/>
<text x="834" y="-250.3" font-family="Times,serif" font-size="14">methodid</text>
<polygon points="903.5 -245.5 903.5 -262.5 990.5 -262.5 990.5 -245.5" fill="none" stroke="#d3d3d3"/>
<text x="904.5" y="-250.3" font-family="Times,serif" font-size="14">0xd0c5087f</text>
<polygon points="832.5 -228.5 832.5 -245.5 903.5 -245.5 903.5 -228.5" fill="none" stroke="#d3d3d3"/>
<text x="848" y="-233.3" font-family="Times,serif" font-size="14">offset</text>
<polygon points="903.5 -228.5 903.5 -245.5 990.5 -245.5 990.5 -228.5" fill="none" stroke="#d3d3d3"/>
<text x="942" y="-233.3" font-family="Times,serif" font-size="14">0</text>
<polygon points="831.5 -227.5 831.5 -280.5 991.5 -280.5 991.5 -227.5" fill="none" stroke="#d3d3d3"/>
<polygon points="819.5 -171.5 819.5 -226.5 830.5 -226.5 830.5 -171.5" fill="none" stroke="#000"/>
<text x="820.5" y="-195.3" font-family="Times,serif" font-size="14">y</text>
<polygon points="830.5 -171.5 830.5 -226.5 992.5 -226.5 992.5 -171.5" fill="none" stroke="#000"/>
<polygon points="832.5 -207.5 832.5 -224.5 906.5 -224.5 906.5 -207.5" fill="none" stroke="#d3d3d3"/>
<text x="835" y="-212.3" font-family="Times,serif" font-size="14">signature</text>
<polygon points="906.5 -207.5 906.5 -224.5 990.5 -224.5 990.5 -207.5" fill="none" stroke="#d3d3d3"/>
<text x="945.5" y="-212.3" font-family="Times,serif" font-size="14">f</text>
<polygon points="832.5 -190.5 832.5 -207.5 906.5 -207.5 906.5 -190.5" fill="none" stroke="#d3d3d3"/>
<text x="835.5" y="-195.3" font-family="Times,serif" font-size="14">methodid</text>
<polygon points="906.5 -190.5 906.5 -207.5 990.5 -207.5 990.5 -190.5" fill="none" stroke="#d3d3d3"/>
<text x="909" y="-195.3" font-family="Times,serif" font-size="14">0xc0c4ef4f</text>
<polygon points="832.5 -173.5 832.5 -190.5 906.5 -190.5 906.5 -173.5" fill="none" stroke="#d3d3d3"/>
<text x="849.5" y="-178.3" font-family="Times,serif" font-size="14">offset</text>
<polygon points="906.5 -173.5 906.5 -190.5 990.5 -190.5 990.5 -173.5" fill="none" stroke="#d3d3d3"/>
<text x="943.5" y="-178.3" font-family="Times,serif" font-size="14">4</text>
<polygon points="831.5 -172.5 831.5 -225.5 991.5 -225.5 991.5 -172.5" fill="none" stroke="#d3d3d3"/>
<polygon points="818 -171 818 -300 993 -300 993 -171" fill="none" stroke="#000"/>
</g>
<g class="edge">
<title>0x560019bf5c40-&gt;0x560019a80250</title>
<path d="m724.69-371.79c25.2 16.04 51.77 33.59 75.81 50.79 4.82 3.44 9.71 7.03 14.61 10.7" fill="none" stroke="#000"/>
<polygon points="817.5 -312.88 823.36 -304.05 813.27 -307.29" stroke="#000"/>
<text x="810.5" y="-342.8" font-family="Times,serif" font-size="14" text-anchor="middle">ivarlist #0</text>
</g>
<g class="edge">
<title>0x560019bf5e20-&gt;0x560019bf5c40</title>
<path d="m619.5-283.03v-78.63" fill="none" stroke="#daa520"/>
<polygon points="616 -361.99 619.5 -371.99 623 -361.99" fill="#daa520" stroke="#daa520"/>
<text x="638" y="-342.8" fill="goldenrod" font-family="Times,serif" font-size="14" text-anchor="middle">meta</text>
</g>
<g class="edge">
<title>0x560019bf5e20-&gt;0x560019bf5c40</title>
<path d="m646.61-283.11c9.28-21.34 16.16-47.13 10.89-70.89-0.6-2.69-1.29-5.4-2.07-8.11" fill="none" stroke="blue"/>
<polygon points="652.01 -361.32 652.28 -371.91 658.67 -363.46" fill="blue" stroke="blue"/>
<text x="676.5" y="-342.8" fill="blue" font-family="Times,serif" font-size="14" text-anchor="middle">infra</text>
</g>
<g class="node">
<title>0x560019a80298</title>
<polygon points="462.5 -76.5 462.5 -93.5 777.5 -93.5 777.5 -76.5" stroke="transparent"/>
<polygon points="462.5 -76.5 462.5 -93.5 777.5 -93.5 777.5 -76.5" fill="none" stroke="#000"/>
<text x="581.5" y="-81.3" fill="white" font-family="Times,serif" font-size="14">methodlist</text>
<polygon points="462.5 -4.5 462.5 -76.5 494.5 -76.5 494.5 -4.5" fill="none" stroke="#000"/>
<text x="463.5" y="-36.8" font-family="Times,serif" font-size="14">new</text>
<polygon points="494.5 -4.5 494.5 -76.5 777.5 -76.5 777.5 -4.5" fill="none" stroke="#000"/>
<polygon points="496.5 -57.5 496.5 -74.5 611.5 -74.5 611.5 -57.5" fill="none" stroke="#d3d3d3"/>
<text x="519.5" y="-62.3" font-family="Times,serif" font-size="14">signature</text>
<polygon points="611.5 -57.5 611.5 -74.5 775.5 -74.5 775.5 -57.5" fill="none" stroke="#d3d3d3"/>
<text x="658.5" y="-62.3" font-family="Times,serif" font-size="14">@16@0:8</text>
<polygon points="496.5 -40.5 496.5 -57.5 611.5 -57.5 611.5 -40.5" fill="none" stroke="#d3d3d3"/>
<text x="520" y="-45.3" font-family="Times,serif" font-size="14">methodid</text>
<polygon points="611.5 -40.5 611.5 -57.5 775.5 -57.5 775.5 -40.5" fill="none" stroke="#d3d3d3"/>
<text x="648.5" y="-45.3" font-family="Times,serif" font-size="14">0x89996112</text>
<polygon points="496.5 -23.5 496.5 -40.5 611.5 -40.5 611.5 -23.5" fill="none" stroke="#d3d3d3"/>
<text x="540" y="-28.3" font-family="Times,serif" font-size="14">bits</text>
<polygon points="611.5 -23.5 611.5 -40.5 775.5 -40.5 775.5 -23.5" fill="none" stroke="#d3d3d3"/>
<text x="662" y="-28.3" font-family="Times,serif" font-size="14">0x50000</text>
<polygon points="496.5 -6.5 496.5 -23.5 611.5 -23.5 611.5 -6.5" fill="none" stroke="#d3d3d3"/>
<text x="497.5" y="-11.3" font-family="Times,serif" font-size="14">implementation</text>
<polygon points="611.5 -6.5 611.5 -23.5 775.5 -23.5 775.5 -6.5" fill="none" stroke="#d3d3d3"/>
<text x="612.5" y="-11.3" font-family="Times,serif" font-size="14">0x0000560019965600</text>
<polygon points="495.5 -5.5 495.5 -75.5 776.5 -75.5 776.5 -5.5" fill="none" stroke="#d3d3d3"/>
<polygon points="461 -4 461 -95 778 -95 778 -4" fill="none" stroke="#000"/>
</g>
<g class="edge">
<title>0x560019bf5e20-&gt;0x560019a80298</title>
<path d="m619.5-187.59v78.14" fill="none" stroke="#000"/>
<polygon points="623 -109.25 619.5 -99.25 616 -109.25" stroke="#000"/>
<text x="671" y="-120.8" font-family="Times,serif" font-size="14" text-anchor="middle">methodlist #0</text>
</g>
</g>
</svg>
